M48
; DRILL file {KiCad 9.0.6} date 2026-07-31T17:23:00-0400
; FORMAT={-:-/ absolute / metric / decimal}
; #@! TF.CreationDate,2026-07-31T17:23:00-04:00
; #@! TF.GenerationSoftware,Kicad,Pcbnew,9.0.6
; #@! TF.FileFunction,Plated,1,2,PTH
FMAT,2
METRIC
; #@! TA.AperFunction,Plated,PTH,ViaDrill
T1C0.400
; #@! TA.AperFunction,Plated,PTH,ComponentDrill
T2C0.700
; #@! TA.AperFunction,Plated,PTH,ComponentDrill
T3C1.470
%
G90
G05
T1
X78.094Y-77.594
X78.094Y-70.906
X80.5Y-82.5
X80.5Y-85.0
X83.487Y-83.562
X85.05Y-84.273
X85.5Y-90.0
X89.5Y-64.5
X92.887Y-77.872
X94.0Y-76.5
X94.158Y-78.658
X94.793Y-83.773
X95.0Y-75.5
X95.5Y-74.5
X95.5Y-84.5
X96.0Y-88.5
X97.227Y-74.5
X100.5Y-62.0
X101.227Y-66.5
X105.5Y-83.0
X112.5Y-61.5
X112.5Y-80.0
T3
X105.69Y-66.96
X105.69Y-85.96
X107.0Y-65.5
X107.0Y-84.5
X112.0Y-65.0
X112.0Y-84.0
X112.04Y-64.42
X112.04Y-83.42
X124.69Y-66.96
X124.714Y-85.979
X126.0Y-65.5
X126.024Y-84.519
X131.0Y-65.0
X131.024Y-84.019
X131.04Y-64.42
X131.064Y-83.439
T2
X62.738Y-61.194G85X62.738Y-62.394
G05
X62.738Y-65.694G85X62.738Y-66.894
G05
X70.038Y-61.194G85X70.038Y-62.394
G05
X70.038Y-65.694G85X70.038Y-66.894
G05
M30
