%TF.GenerationSoftware,KiCad,Pcbnew,9.0.6*%
%TF.CreationDate,2026-08-04T16:10:33-04:00*%
%TF.ProjectId,PCB_Related,5043425f-5265-46c6-9174-65642e6b6963,rev?*%
%TF.SameCoordinates,Original*%
%TF.FileFunction,Paste,Top*%
%TF.FilePolarity,Positive*%
%FSLAX46Y46*%
G04 Gerber Fmt 4.6, Leading zero omitted, Abs format (unit mm)*
G04 Created by KiCad (PCBNEW 9.0.6) date 2026-08-04 16:10:33*
%MOMM*%
%LPD*%
G01*
G04 APERTURE LIST*
G04 Aperture macros list*
%AMRoundRect*
0 Rectangle with rounded corners*
0 $1 Rounding radius*
0 $2 $3 $4 $5 $6 $7 $8 $9 X,Y pos of 4 corners*
0 Add a 4 corners polygon primitive as box body*
4,1,4,$2,$3,$4,$5,$6,$7,$8,$9,$2,$3,0*
0 Add four circle primitives for the rounded corners*
1,1,$1+$1,$2,$3*
1,1,$1+$1,$4,$5*
1,1,$1+$1,$6,$7*
1,1,$1+$1,$8,$9*
0 Add four rect primitives between the rounded corners*
20,1,$1+$1,$2,$3,$4,$5,0*
20,1,$1+$1,$4,$5,$6,$7,0*
20,1,$1+$1,$6,$7,$8,$9,0*
20,1,$1+$1,$8,$9,$2,$3,0*%
G04 Aperture macros list end*
%ADD10C,0.010000*%
%ADD11RoundRect,0.225000X-0.225000X-0.375000X0.225000X-0.375000X0.225000X0.375000X-0.225000X0.375000X0*%
%ADD12RoundRect,0.250000X0.250000X0.475000X-0.250000X0.475000X-0.250000X-0.475000X0.250000X-0.475000X0*%
%ADD13RoundRect,0.250000X-0.250000X-0.475000X0.250000X-0.475000X0.250000X0.475000X-0.250000X0.475000X0*%
%ADD14RoundRect,0.250000X0.475000X-0.250000X0.475000X0.250000X-0.475000X0.250000X-0.475000X-0.250000X0*%
%ADD15RoundRect,0.250000X-0.475000X0.250000X-0.475000X-0.250000X0.475000X-0.250000X0.475000X0.250000X0*%
%ADD16R,0.600000X1.150000*%
%ADD17R,0.300000X1.150000*%
%ADD18RoundRect,0.250000X0.450000X-0.262500X0.450000X0.262500X-0.450000X0.262500X-0.450000X-0.262500X0*%
%ADD19RoundRect,0.250000X0.262500X0.450000X-0.262500X0.450000X-0.262500X-0.450000X0.262500X-0.450000X0*%
%ADD20R,1.100000X1.800000*%
%ADD21R,1.500000X0.900000*%
%ADD22R,0.700000X0.700000*%
%ADD23RoundRect,0.069750X-0.585250X-0.395250X0.585250X-0.395250X0.585250X0.395250X-0.585250X0.395250X0*%
%ADD24RoundRect,0.098250X-0.556750X-1.521750X0.556750X-1.521750X0.556750X1.521750X-0.556750X1.521750X0*%
%ADD25RoundRect,0.250000X-0.262500X-0.450000X0.262500X-0.450000X0.262500X0.450000X-0.262500X0.450000X0*%
%ADD26RoundRect,0.250000X-0.450000X0.262500X-0.450000X-0.262500X0.450000X-0.262500X0.450000X0.262500X0*%
%ADD27R,1.016000X1.143000*%
%ADD28RoundRect,0.225000X0.375000X-0.225000X0.375000X0.225000X-0.375000X0.225000X-0.375000X-0.225000X0*%
G04 APERTURE END LIST*
D10*
%TO.C,U2*%
X112286000Y-54167600D02*
X112293000Y-54168600D01*
X112301000Y-54169600D01*
X112309000Y-54171600D01*
X112316000Y-54173600D01*
X112324000Y-54176600D01*
X112331000Y-54179600D01*
X112338000Y-54182600D01*
X112345000Y-54186600D01*
X112352000Y-54190600D01*
X112358000Y-54195600D01*
X112364000Y-54199600D01*
X112370000Y-54205600D01*
X112376000Y-54210600D01*
X112381000Y-54216600D01*
X112387000Y-54222600D01*
X112391000Y-54228600D01*
X112396000Y-54234600D01*
X112400000Y-54241600D01*
X112404000Y-54248600D01*
X112407000Y-54255600D01*
X112410000Y-54262600D01*
X112413000Y-54270600D01*
X112415000Y-54277600D01*
X112417000Y-54285600D01*
X112418000Y-54293600D01*
X112419000Y-54300600D01*
X112420000Y-54308600D01*
X112420000Y-54316600D01*
X112420000Y-55116600D01*
X112120000Y-55116600D01*
X112120000Y-54316600D01*
X112120000Y-54308600D01*
X112121000Y-54300600D01*
X112122000Y-54293600D01*
X112123000Y-54285600D01*
X112125000Y-54277600D01*
X112127000Y-54270600D01*
X112130000Y-54262600D01*
X112133000Y-54255600D01*
X112136000Y-54248600D01*
X112140000Y-54241600D01*
X112144000Y-54234600D01*
X112149000Y-54228600D01*
X112153000Y-54222600D01*
X112159000Y-54216600D01*
X112164000Y-54210600D01*
X112170000Y-54205600D01*
X112176000Y-54199600D01*
X112182000Y-54195600D01*
X112188000Y-54190600D01*
X112195000Y-54186600D01*
X112202000Y-54182600D01*
X112209000Y-54179600D01*
X112216000Y-54176600D01*
X112224000Y-54173600D01*
X112231000Y-54171600D01*
X112239000Y-54169600D01*
X112247000Y-54168600D01*
X112254000Y-54167600D01*
X112262000Y-54166600D01*
X112270000Y-54166600D01*
X112278000Y-54166600D01*
X112286000Y-54167600D01*
G36*
X112286000Y-54167600D02*
G01*
X112293000Y-54168600D01*
X112301000Y-54169600D01*
X112309000Y-54171600D01*
X112316000Y-54173600D01*
X112324000Y-54176600D01*
X112331000Y-54179600D01*
X112338000Y-54182600D01*
X112345000Y-54186600D01*
X112352000Y-54190600D01*
X112358000Y-54195600D01*
X112364000Y-54199600D01*
X112370000Y-54205600D01*
X112376000Y-54210600D01*
X112381000Y-54216600D01*
X112387000Y-54222600D01*
X112391000Y-54228600D01*
X112396000Y-54234600D01*
X112400000Y-54241600D01*
X112404000Y-54248600D01*
X112407000Y-54255600D01*
X112410000Y-54262600D01*
X112413000Y-54270600D01*
X112415000Y-54277600D01*
X112417000Y-54285600D01*
X112418000Y-54293600D01*
X112419000Y-54300600D01*
X112420000Y-54308600D01*
X112420000Y-54316600D01*
X112420000Y-55116600D01*
X112120000Y-55116600D01*
X112120000Y-54316600D01*
X112120000Y-54308600D01*
X112121000Y-54300600D01*
X112122000Y-54293600D01*
X112123000Y-54285600D01*
X112125000Y-54277600D01*
X112127000Y-54270600D01*
X112130000Y-54262600D01*
X112133000Y-54255600D01*
X112136000Y-54248600D01*
X112140000Y-54241600D01*
X112144000Y-54234600D01*
X112149000Y-54228600D01*
X112153000Y-54222600D01*
X112159000Y-54216600D01*
X112164000Y-54210600D01*
X112170000Y-54205600D01*
X112176000Y-54199600D01*
X112182000Y-54195600D01*
X112188000Y-54190600D01*
X112195000Y-54186600D01*
X112202000Y-54182600D01*
X112209000Y-54179600D01*
X112216000Y-54176600D01*
X112224000Y-54173600D01*
X112231000Y-54171600D01*
X112239000Y-54169600D01*
X112247000Y-54168600D01*
X112254000Y-54167600D01*
X112262000Y-54166600D01*
X112270000Y-54166600D01*
X112278000Y-54166600D01*
X112286000Y-54167600D01*
G37*
X116645000Y-53891600D02*
X115845000Y-53891600D01*
X115837000Y-53891600D01*
X115829000Y-53890600D01*
X115822000Y-53889600D01*
X115814000Y-53888600D01*
X115806000Y-53886600D01*
X115799000Y-53884600D01*
X115791000Y-53881600D01*
X115784000Y-53878600D01*
X115777000Y-53875600D01*
X115770000Y-53871600D01*
X115763000Y-53867600D01*
X115757000Y-53862600D01*
X115751000Y-53858600D01*
X115745000Y-53852600D01*
X115739000Y-53847600D01*
X115734000Y-53841600D01*
X115728000Y-53835600D01*
X115724000Y-53829600D01*
X115719000Y-53823600D01*
X115715000Y-53816600D01*
X115711000Y-53809600D01*
X115708000Y-53802600D01*
X115705000Y-53795600D01*
X115702000Y-53787600D01*
X115700000Y-53780600D01*
X115698000Y-53772600D01*
X115697000Y-53764600D01*
X115696000Y-53757600D01*
X115695000Y-53749600D01*
X115695000Y-53741600D01*
X115695000Y-53733600D01*
X115696000Y-53725600D01*
X115697000Y-53718600D01*
X115698000Y-53710600D01*
X115700000Y-53702600D01*
X115702000Y-53695600D01*
X115705000Y-53687600D01*
X115708000Y-53680600D01*
X115711000Y-53673600D01*
X115715000Y-53666600D01*
X115719000Y-53659600D01*
X115724000Y-53653600D01*
X115728000Y-53647600D01*
X115734000Y-53641600D01*
X115739000Y-53635600D01*
X115745000Y-53630600D01*
X115751000Y-53624600D01*
X115757000Y-53620600D01*
X115763000Y-53615600D01*
X115770000Y-53611600D01*
X115777000Y-53607600D01*
X115784000Y-53604600D01*
X115791000Y-53601600D01*
X115799000Y-53598600D01*
X115806000Y-53596600D01*
X115814000Y-53594600D01*
X115822000Y-53593600D01*
X115829000Y-53592600D01*
X115837000Y-53591600D01*
X115845000Y-53591600D01*
X116645000Y-53591600D01*
X116645000Y-53891600D01*
G36*
X116645000Y-53891600D02*
G01*
X115845000Y-53891600D01*
X115837000Y-53891600D01*
X115829000Y-53890600D01*
X115822000Y-53889600D01*
X115814000Y-53888600D01*
X115806000Y-53886600D01*
X115799000Y-53884600D01*
X115791000Y-53881600D01*
X115784000Y-53878600D01*
X115777000Y-53875600D01*
X115770000Y-53871600D01*
X115763000Y-53867600D01*
X115757000Y-53862600D01*
X115751000Y-53858600D01*
X115745000Y-53852600D01*
X115739000Y-53847600D01*
X115734000Y-53841600D01*
X115728000Y-53835600D01*
X115724000Y-53829600D01*
X115719000Y-53823600D01*
X115715000Y-53816600D01*
X115711000Y-53809600D01*
X115708000Y-53802600D01*
X115705000Y-53795600D01*
X115702000Y-53787600D01*
X115700000Y-53780600D01*
X115698000Y-53772600D01*
X115697000Y-53764600D01*
X115696000Y-53757600D01*
X115695000Y-53749600D01*
X115695000Y-53741600D01*
X115695000Y-53733600D01*
X115696000Y-53725600D01*
X115697000Y-53718600D01*
X115698000Y-53710600D01*
X115700000Y-53702600D01*
X115702000Y-53695600D01*
X115705000Y-53687600D01*
X115708000Y-53680600D01*
X115711000Y-53673600D01*
X115715000Y-53666600D01*
X115719000Y-53659600D01*
X115724000Y-53653600D01*
X115728000Y-53647600D01*
X115734000Y-53641600D01*
X115739000Y-53635600D01*
X115745000Y-53630600D01*
X115751000Y-53624600D01*
X115757000Y-53620600D01*
X115763000Y-53615600D01*
X115770000Y-53611600D01*
X115777000Y-53607600D01*
X115784000Y-53604600D01*
X115791000Y-53601600D01*
X115799000Y-53598600D01*
X115806000Y-53596600D01*
X115814000Y-53594600D01*
X115822000Y-53593600D01*
X115829000Y-53592600D01*
X115837000Y-53591600D01*
X115845000Y-53591600D01*
X116645000Y-53591600D01*
X116645000Y-53891600D01*
G37*
X115420000Y-50166600D02*
X115420000Y-50174600D01*
X115419000Y-50182600D01*
X115418000Y-50189600D01*
X115417000Y-50197600D01*
X115415000Y-50205600D01*
X115413000Y-50212600D01*
X115410000Y-50220600D01*
X115407000Y-50227600D01*
X115404000Y-50234600D01*
X115400000Y-50241600D01*
X115396000Y-50248600D01*
X115391000Y-50254600D01*
X115387000Y-50260600D01*
X115381000Y-50266600D01*
X115376000Y-50272600D01*
X115370000Y-50277600D01*
X115364000Y-50283600D01*
X115358000Y-50287600D01*
X115352000Y-50292600D01*
X115345000Y-50296600D01*
X115338000Y-50300600D01*
X115331000Y-50303600D01*
X115324000Y-50306600D01*
X115316000Y-50309600D01*
X115309000Y-50311600D01*
X115301000Y-50313600D01*
X115293000Y-50314600D01*
X115286000Y-50315600D01*
X115278000Y-50316600D01*
X115270000Y-50316600D01*
X115262000Y-50316600D01*
X115254000Y-50315600D01*
X115247000Y-50314600D01*
X115239000Y-50313600D01*
X115231000Y-50311600D01*
X115224000Y-50309600D01*
X115216000Y-50306600D01*
X115209000Y-50303600D01*
X115202000Y-50300600D01*
X115195000Y-50296600D01*
X115188000Y-50292600D01*
X115182000Y-50287600D01*
X115176000Y-50283600D01*
X115170000Y-50277600D01*
X115164000Y-50272600D01*
X115159000Y-50266600D01*
X115153000Y-50260600D01*
X115149000Y-50254600D01*
X115144000Y-50248600D01*
X115140000Y-50241600D01*
X115136000Y-50234600D01*
X115133000Y-50227600D01*
X115130000Y-50220600D01*
X115127000Y-50212600D01*
X115125000Y-50205600D01*
X115123000Y-50197600D01*
X115122000Y-50189600D01*
X115121000Y-50182600D01*
X115120000Y-50174600D01*
X115120000Y-50166600D01*
X115120000Y-49366600D01*
X115420000Y-49366600D01*
X115420000Y-50166600D01*
G36*
X115420000Y-50166600D02*
G01*
X115420000Y-50174600D01*
X115419000Y-50182600D01*
X115418000Y-50189600D01*
X115417000Y-50197600D01*
X115415000Y-50205600D01*
X115413000Y-50212600D01*
X115410000Y-50220600D01*
X115407000Y-50227600D01*
X115404000Y-50234600D01*
X115400000Y-50241600D01*
X115396000Y-50248600D01*
X115391000Y-50254600D01*
X115387000Y-50260600D01*
X115381000Y-50266600D01*
X115376000Y-50272600D01*
X115370000Y-50277600D01*
X115364000Y-50283600D01*
X115358000Y-50287600D01*
X115352000Y-50292600D01*
X115345000Y-50296600D01*
X115338000Y-50300600D01*
X115331000Y-50303600D01*
X115324000Y-50306600D01*
X115316000Y-50309600D01*
X115309000Y-50311600D01*
X115301000Y-50313600D01*
X115293000Y-50314600D01*
X115286000Y-50315600D01*
X115278000Y-50316600D01*
X115270000Y-50316600D01*
X115262000Y-50316600D01*
X115254000Y-50315600D01*
X115247000Y-50314600D01*
X115239000Y-50313600D01*
X115231000Y-50311600D01*
X115224000Y-50309600D01*
X115216000Y-50306600D01*
X115209000Y-50303600D01*
X115202000Y-50300600D01*
X115195000Y-50296600D01*
X115188000Y-50292600D01*
X115182000Y-50287600D01*
X115176000Y-50283600D01*
X115170000Y-50277600D01*
X115164000Y-50272600D01*
X115159000Y-50266600D01*
X115153000Y-50260600D01*
X115149000Y-50254600D01*
X115144000Y-50248600D01*
X115140000Y-50241600D01*
X115136000Y-50234600D01*
X115133000Y-50227600D01*
X115130000Y-50220600D01*
X115127000Y-50212600D01*
X115125000Y-50205600D01*
X115123000Y-50197600D01*
X115122000Y-50189600D01*
X115121000Y-50182600D01*
X115120000Y-50174600D01*
X115120000Y-50166600D01*
X115120000Y-49366600D01*
X115420000Y-49366600D01*
X115420000Y-50166600D01*
G37*
X111711000Y-50592600D02*
X111718000Y-50593600D01*
X111726000Y-50594600D01*
X111734000Y-50596600D01*
X111741000Y-50598600D01*
X111749000Y-50601600D01*
X111756000Y-50604600D01*
X111763000Y-50607600D01*
X111770000Y-50611600D01*
X111777000Y-50615600D01*
X111783000Y-50620600D01*
X111789000Y-50624600D01*
X111795000Y-50630600D01*
X111801000Y-50635600D01*
X111806000Y-50641600D01*
X111812000Y-50647600D01*
X111816000Y-50653600D01*
X111821000Y-50659600D01*
X111825000Y-50666600D01*
X111829000Y-50673600D01*
X111832000Y-50680600D01*
X111835000Y-50687600D01*
X111838000Y-50695600D01*
X111840000Y-50702600D01*
X111842000Y-50710600D01*
X111843000Y-50718600D01*
X111844000Y-50725600D01*
X111845000Y-50733600D01*
X111845000Y-50741600D01*
X111845000Y-50749600D01*
X111844000Y-50757600D01*
X111843000Y-50764600D01*
X111842000Y-50772600D01*
X111840000Y-50780600D01*
X111838000Y-50787600D01*
X111835000Y-50795600D01*
X111832000Y-50802600D01*
X111829000Y-50809600D01*
X111825000Y-50816600D01*
X111821000Y-50823600D01*
X111816000Y-50829600D01*
X111812000Y-50835600D01*
X111806000Y-50841600D01*
X111801000Y-50847600D01*
X111795000Y-50852600D01*
X111789000Y-50858600D01*
X111783000Y-50862600D01*
X111777000Y-50867600D01*
X111770000Y-50871600D01*
X111763000Y-50875600D01*
X111756000Y-50878600D01*
X111749000Y-50881600D01*
X111741000Y-50884600D01*
X111734000Y-50886600D01*
X111726000Y-50888600D01*
X111718000Y-50889600D01*
X111711000Y-50890600D01*
X111703000Y-50891600D01*
X111695000Y-50891600D01*
X110895000Y-50891600D01*
X110895000Y-50591600D01*
X111695000Y-50591600D01*
X111703000Y-50591600D01*
X111711000Y-50592600D01*
G36*
X111711000Y-50592600D02*
G01*
X111718000Y-50593600D01*
X111726000Y-50594600D01*
X111734000Y-50596600D01*
X111741000Y-50598600D01*
X111749000Y-50601600D01*
X111756000Y-50604600D01*
X111763000Y-50607600D01*
X111770000Y-50611600D01*
X111777000Y-50615600D01*
X111783000Y-50620600D01*
X111789000Y-50624600D01*
X111795000Y-50630600D01*
X111801000Y-50635600D01*
X111806000Y-50641600D01*
X111812000Y-50647600D01*
X111816000Y-50653600D01*
X111821000Y-50659600D01*
X111825000Y-50666600D01*
X111829000Y-50673600D01*
X111832000Y-50680600D01*
X111835000Y-50687600D01*
X111838000Y-50695600D01*
X111840000Y-50702600D01*
X111842000Y-50710600D01*
X111843000Y-50718600D01*
X111844000Y-50725600D01*
X111845000Y-50733600D01*
X111845000Y-50741600D01*
X111845000Y-50749600D01*
X111844000Y-50757600D01*
X111843000Y-50764600D01*
X111842000Y-50772600D01*
X111840000Y-50780600D01*
X111838000Y-50787600D01*
X111835000Y-50795600D01*
X111832000Y-50802600D01*
X111829000Y-50809600D01*
X111825000Y-50816600D01*
X111821000Y-50823600D01*
X111816000Y-50829600D01*
X111812000Y-50835600D01*
X111806000Y-50841600D01*
X111801000Y-50847600D01*
X111795000Y-50852600D01*
X111789000Y-50858600D01*
X111783000Y-50862600D01*
X111777000Y-50867600D01*
X111770000Y-50871600D01*
X111763000Y-50875600D01*
X111756000Y-50878600D01*
X111749000Y-50881600D01*
X111741000Y-50884600D01*
X111734000Y-50886600D01*
X111726000Y-50888600D01*
X111718000Y-50889600D01*
X111711000Y-50890600D01*
X111703000Y-50891600D01*
X111695000Y-50891600D01*
X110895000Y-50891600D01*
X110895000Y-50591600D01*
X111695000Y-50591600D01*
X111703000Y-50591600D01*
X111711000Y-50592600D01*
G37*
X112786000Y-54167600D02*
X112793000Y-54168600D01*
X112801000Y-54169600D01*
X112809000Y-54171600D01*
X112816000Y-54173600D01*
X112824000Y-54176600D01*
X112831000Y-54179600D01*
X112838000Y-54182600D01*
X112845000Y-54186600D01*
X112852000Y-54190600D01*
X112858000Y-54195600D01*
X112864000Y-54199600D01*
X112870000Y-54205600D01*
X112876000Y-54210600D01*
X112881000Y-54216600D01*
X112887000Y-54222600D01*
X112891000Y-54228600D01*
X112896000Y-54234600D01*
X112900000Y-54241600D01*
X112904000Y-54248600D01*
X112907000Y-54255600D01*
X112910000Y-54262600D01*
X112913000Y-54270600D01*
X112915000Y-54277600D01*
X112917000Y-54285600D01*
X112918000Y-54293600D01*
X112919000Y-54300600D01*
X112920000Y-54308600D01*
X112920000Y-54316600D01*
X112920000Y-55116600D01*
X112620000Y-55116600D01*
X112620000Y-54316600D01*
X112620000Y-54308600D01*
X112621000Y-54300600D01*
X112622000Y-54293600D01*
X112623000Y-54285600D01*
X112625000Y-54277600D01*
X112627000Y-54270600D01*
X112630000Y-54262600D01*
X112633000Y-54255600D01*
X112636000Y-54248600D01*
X112640000Y-54241600D01*
X112644000Y-54234600D01*
X112649000Y-54228600D01*
X112653000Y-54222600D01*
X112659000Y-54216600D01*
X112664000Y-54210600D01*
X112670000Y-54205600D01*
X112676000Y-54199600D01*
X112682000Y-54195600D01*
X112688000Y-54190600D01*
X112695000Y-54186600D01*
X112702000Y-54182600D01*
X112709000Y-54179600D01*
X112716000Y-54176600D01*
X112724000Y-54173600D01*
X112731000Y-54171600D01*
X112739000Y-54169600D01*
X112747000Y-54168600D01*
X112754000Y-54167600D01*
X112762000Y-54166600D01*
X112770000Y-54166600D01*
X112778000Y-54166600D01*
X112786000Y-54167600D01*
G36*
X112786000Y-54167600D02*
G01*
X112793000Y-54168600D01*
X112801000Y-54169600D01*
X112809000Y-54171600D01*
X112816000Y-54173600D01*
X112824000Y-54176600D01*
X112831000Y-54179600D01*
X112838000Y-54182600D01*
X112845000Y-54186600D01*
X112852000Y-54190600D01*
X112858000Y-54195600D01*
X112864000Y-54199600D01*
X112870000Y-54205600D01*
X112876000Y-54210600D01*
X112881000Y-54216600D01*
X112887000Y-54222600D01*
X112891000Y-54228600D01*
X112896000Y-54234600D01*
X112900000Y-54241600D01*
X112904000Y-54248600D01*
X112907000Y-54255600D01*
X112910000Y-54262600D01*
X112913000Y-54270600D01*
X112915000Y-54277600D01*
X112917000Y-54285600D01*
X112918000Y-54293600D01*
X112919000Y-54300600D01*
X112920000Y-54308600D01*
X112920000Y-54316600D01*
X112920000Y-55116600D01*
X112620000Y-55116600D01*
X112620000Y-54316600D01*
X112620000Y-54308600D01*
X112621000Y-54300600D01*
X112622000Y-54293600D01*
X112623000Y-54285600D01*
X112625000Y-54277600D01*
X112627000Y-54270600D01*
X112630000Y-54262600D01*
X112633000Y-54255600D01*
X112636000Y-54248600D01*
X112640000Y-54241600D01*
X112644000Y-54234600D01*
X112649000Y-54228600D01*
X112653000Y-54222600D01*
X112659000Y-54216600D01*
X112664000Y-54210600D01*
X112670000Y-54205600D01*
X112676000Y-54199600D01*
X112682000Y-54195600D01*
X112688000Y-54190600D01*
X112695000Y-54186600D01*
X112702000Y-54182600D01*
X112709000Y-54179600D01*
X112716000Y-54176600D01*
X112724000Y-54173600D01*
X112731000Y-54171600D01*
X112739000Y-54169600D01*
X112747000Y-54168600D01*
X112754000Y-54167600D01*
X112762000Y-54166600D01*
X112770000Y-54166600D01*
X112778000Y-54166600D01*
X112786000Y-54167600D01*
G37*
X113286000Y-54167600D02*
X113293000Y-54168600D01*
X113301000Y-54169600D01*
X113309000Y-54171600D01*
X113316000Y-54173600D01*
X113324000Y-54176600D01*
X113331000Y-54179600D01*
X113338000Y-54182600D01*
X113345000Y-54186600D01*
X113352000Y-54190600D01*
X113358000Y-54195600D01*
X113364000Y-54199600D01*
X113370000Y-54205600D01*
X113376000Y-54210600D01*
X113381000Y-54216600D01*
X113387000Y-54222600D01*
X113391000Y-54228600D01*
X113396000Y-54234600D01*
X113400000Y-54241600D01*
X113404000Y-54248600D01*
X113407000Y-54255600D01*
X113410000Y-54262600D01*
X113413000Y-54270600D01*
X113415000Y-54277600D01*
X113417000Y-54285600D01*
X113418000Y-54293600D01*
X113419000Y-54300600D01*
X113420000Y-54308600D01*
X113420000Y-54316600D01*
X113420000Y-55116600D01*
X113120000Y-55116600D01*
X113120000Y-54316600D01*
X113120000Y-54308600D01*
X113121000Y-54300600D01*
X113122000Y-54293600D01*
X113123000Y-54285600D01*
X113125000Y-54277600D01*
X113127000Y-54270600D01*
X113130000Y-54262600D01*
X113133000Y-54255600D01*
X113136000Y-54248600D01*
X113140000Y-54241600D01*
X113144000Y-54234600D01*
X113149000Y-54228600D01*
X113153000Y-54222600D01*
X113159000Y-54216600D01*
X113164000Y-54210600D01*
X113170000Y-54205600D01*
X113176000Y-54199600D01*
X113182000Y-54195600D01*
X113188000Y-54190600D01*
X113195000Y-54186600D01*
X113202000Y-54182600D01*
X113209000Y-54179600D01*
X113216000Y-54176600D01*
X113224000Y-54173600D01*
X113231000Y-54171600D01*
X113239000Y-54169600D01*
X113247000Y-54168600D01*
X113254000Y-54167600D01*
X113262000Y-54166600D01*
X113270000Y-54166600D01*
X113278000Y-54166600D01*
X113286000Y-54167600D01*
G36*
X113286000Y-54167600D02*
G01*
X113293000Y-54168600D01*
X113301000Y-54169600D01*
X113309000Y-54171600D01*
X113316000Y-54173600D01*
X113324000Y-54176600D01*
X113331000Y-54179600D01*
X113338000Y-54182600D01*
X113345000Y-54186600D01*
X113352000Y-54190600D01*
X113358000Y-54195600D01*
X113364000Y-54199600D01*
X113370000Y-54205600D01*
X113376000Y-54210600D01*
X113381000Y-54216600D01*
X113387000Y-54222600D01*
X113391000Y-54228600D01*
X113396000Y-54234600D01*
X113400000Y-54241600D01*
X113404000Y-54248600D01*
X113407000Y-54255600D01*
X113410000Y-54262600D01*
X113413000Y-54270600D01*
X113415000Y-54277600D01*
X113417000Y-54285600D01*
X113418000Y-54293600D01*
X113419000Y-54300600D01*
X113420000Y-54308600D01*
X113420000Y-54316600D01*
X113420000Y-55116600D01*
X113120000Y-55116600D01*
X113120000Y-54316600D01*
X113120000Y-54308600D01*
X113121000Y-54300600D01*
X113122000Y-54293600D01*
X113123000Y-54285600D01*
X113125000Y-54277600D01*
X113127000Y-54270600D01*
X113130000Y-54262600D01*
X113133000Y-54255600D01*
X113136000Y-54248600D01*
X113140000Y-54241600D01*
X113144000Y-54234600D01*
X113149000Y-54228600D01*
X113153000Y-54222600D01*
X113159000Y-54216600D01*
X113164000Y-54210600D01*
X113170000Y-54205600D01*
X113176000Y-54199600D01*
X113182000Y-54195600D01*
X113188000Y-54190600D01*
X113195000Y-54186600D01*
X113202000Y-54182600D01*
X113209000Y-54179600D01*
X113216000Y-54176600D01*
X113224000Y-54173600D01*
X113231000Y-54171600D01*
X113239000Y-54169600D01*
X113247000Y-54168600D01*
X113254000Y-54167600D01*
X113262000Y-54166600D01*
X113270000Y-54166600D01*
X113278000Y-54166600D01*
X113286000Y-54167600D01*
G37*
X113786000Y-54167600D02*
X113793000Y-54168600D01*
X113801000Y-54169600D01*
X113809000Y-54171600D01*
X113816000Y-54173600D01*
X113824000Y-54176600D01*
X113831000Y-54179600D01*
X113838000Y-54182600D01*
X113845000Y-54186600D01*
X113852000Y-54190600D01*
X113858000Y-54195600D01*
X113864000Y-54199600D01*
X113870000Y-54205600D01*
X113876000Y-54210600D01*
X113881000Y-54216600D01*
X113887000Y-54222600D01*
X113891000Y-54228600D01*
X113896000Y-54234600D01*
X113900000Y-54241600D01*
X113904000Y-54248600D01*
X113907000Y-54255600D01*
X113910000Y-54262600D01*
X113913000Y-54270600D01*
X113915000Y-54277600D01*
X113917000Y-54285600D01*
X113918000Y-54293600D01*
X113919000Y-54300600D01*
X113920000Y-54308600D01*
X113920000Y-54316600D01*
X113920000Y-55116600D01*
X113620000Y-55116600D01*
X113620000Y-54316600D01*
X113620000Y-54308600D01*
X113621000Y-54300600D01*
X113622000Y-54293600D01*
X113623000Y-54285600D01*
X113625000Y-54277600D01*
X113627000Y-54270600D01*
X113630000Y-54262600D01*
X113633000Y-54255600D01*
X113636000Y-54248600D01*
X113640000Y-54241600D01*
X113644000Y-54234600D01*
X113649000Y-54228600D01*
X113653000Y-54222600D01*
X113659000Y-54216600D01*
X113664000Y-54210600D01*
X113670000Y-54205600D01*
X113676000Y-54199600D01*
X113682000Y-54195600D01*
X113688000Y-54190600D01*
X113695000Y-54186600D01*
X113702000Y-54182600D01*
X113709000Y-54179600D01*
X113716000Y-54176600D01*
X113724000Y-54173600D01*
X113731000Y-54171600D01*
X113739000Y-54169600D01*
X113747000Y-54168600D01*
X113754000Y-54167600D01*
X113762000Y-54166600D01*
X113770000Y-54166600D01*
X113778000Y-54166600D01*
X113786000Y-54167600D01*
G36*
X113786000Y-54167600D02*
G01*
X113793000Y-54168600D01*
X113801000Y-54169600D01*
X113809000Y-54171600D01*
X113816000Y-54173600D01*
X113824000Y-54176600D01*
X113831000Y-54179600D01*
X113838000Y-54182600D01*
X113845000Y-54186600D01*
X113852000Y-54190600D01*
X113858000Y-54195600D01*
X113864000Y-54199600D01*
X113870000Y-54205600D01*
X113876000Y-54210600D01*
X113881000Y-54216600D01*
X113887000Y-54222600D01*
X113891000Y-54228600D01*
X113896000Y-54234600D01*
X113900000Y-54241600D01*
X113904000Y-54248600D01*
X113907000Y-54255600D01*
X113910000Y-54262600D01*
X113913000Y-54270600D01*
X113915000Y-54277600D01*
X113917000Y-54285600D01*
X113918000Y-54293600D01*
X113919000Y-54300600D01*
X113920000Y-54308600D01*
X113920000Y-54316600D01*
X113920000Y-55116600D01*
X113620000Y-55116600D01*
X113620000Y-54316600D01*
X113620000Y-54308600D01*
X113621000Y-54300600D01*
X113622000Y-54293600D01*
X113623000Y-54285600D01*
X113625000Y-54277600D01*
X113627000Y-54270600D01*
X113630000Y-54262600D01*
X113633000Y-54255600D01*
X113636000Y-54248600D01*
X113640000Y-54241600D01*
X113644000Y-54234600D01*
X113649000Y-54228600D01*
X113653000Y-54222600D01*
X113659000Y-54216600D01*
X113664000Y-54210600D01*
X113670000Y-54205600D01*
X113676000Y-54199600D01*
X113682000Y-54195600D01*
X113688000Y-54190600D01*
X113695000Y-54186600D01*
X113702000Y-54182600D01*
X113709000Y-54179600D01*
X113716000Y-54176600D01*
X113724000Y-54173600D01*
X113731000Y-54171600D01*
X113739000Y-54169600D01*
X113747000Y-54168600D01*
X113754000Y-54167600D01*
X113762000Y-54166600D01*
X113770000Y-54166600D01*
X113778000Y-54166600D01*
X113786000Y-54167600D01*
G37*
X114286000Y-54167600D02*
X114293000Y-54168600D01*
X114301000Y-54169600D01*
X114309000Y-54171600D01*
X114316000Y-54173600D01*
X114324000Y-54176600D01*
X114331000Y-54179600D01*
X114338000Y-54182600D01*
X114345000Y-54186600D01*
X114352000Y-54190600D01*
X114358000Y-54195600D01*
X114364000Y-54199600D01*
X114370000Y-54205600D01*
X114376000Y-54210600D01*
X114381000Y-54216600D01*
X114387000Y-54222600D01*
X114391000Y-54228600D01*
X114396000Y-54234600D01*
X114400000Y-54241600D01*
X114404000Y-54248600D01*
X114407000Y-54255600D01*
X114410000Y-54262600D01*
X114413000Y-54270600D01*
X114415000Y-54277600D01*
X114417000Y-54285600D01*
X114418000Y-54293600D01*
X114419000Y-54300600D01*
X114420000Y-54308600D01*
X114420000Y-54316600D01*
X114420000Y-55116600D01*
X114120000Y-55116600D01*
X114120000Y-54316600D01*
X114120000Y-54308600D01*
X114121000Y-54300600D01*
X114122000Y-54293600D01*
X114123000Y-54285600D01*
X114125000Y-54277600D01*
X114127000Y-54270600D01*
X114130000Y-54262600D01*
X114133000Y-54255600D01*
X114136000Y-54248600D01*
X114140000Y-54241600D01*
X114144000Y-54234600D01*
X114149000Y-54228600D01*
X114153000Y-54222600D01*
X114159000Y-54216600D01*
X114164000Y-54210600D01*
X114170000Y-54205600D01*
X114176000Y-54199600D01*
X114182000Y-54195600D01*
X114188000Y-54190600D01*
X114195000Y-54186600D01*
X114202000Y-54182600D01*
X114209000Y-54179600D01*
X114216000Y-54176600D01*
X114224000Y-54173600D01*
X114231000Y-54171600D01*
X114239000Y-54169600D01*
X114247000Y-54168600D01*
X114254000Y-54167600D01*
X114262000Y-54166600D01*
X114270000Y-54166600D01*
X114278000Y-54166600D01*
X114286000Y-54167600D01*
G36*
X114286000Y-54167600D02*
G01*
X114293000Y-54168600D01*
X114301000Y-54169600D01*
X114309000Y-54171600D01*
X114316000Y-54173600D01*
X114324000Y-54176600D01*
X114331000Y-54179600D01*
X114338000Y-54182600D01*
X114345000Y-54186600D01*
X114352000Y-54190600D01*
X114358000Y-54195600D01*
X114364000Y-54199600D01*
X114370000Y-54205600D01*
X114376000Y-54210600D01*
X114381000Y-54216600D01*
X114387000Y-54222600D01*
X114391000Y-54228600D01*
X114396000Y-54234600D01*
X114400000Y-54241600D01*
X114404000Y-54248600D01*
X114407000Y-54255600D01*
X114410000Y-54262600D01*
X114413000Y-54270600D01*
X114415000Y-54277600D01*
X114417000Y-54285600D01*
X114418000Y-54293600D01*
X114419000Y-54300600D01*
X114420000Y-54308600D01*
X114420000Y-54316600D01*
X114420000Y-55116600D01*
X114120000Y-55116600D01*
X114120000Y-54316600D01*
X114120000Y-54308600D01*
X114121000Y-54300600D01*
X114122000Y-54293600D01*
X114123000Y-54285600D01*
X114125000Y-54277600D01*
X114127000Y-54270600D01*
X114130000Y-54262600D01*
X114133000Y-54255600D01*
X114136000Y-54248600D01*
X114140000Y-54241600D01*
X114144000Y-54234600D01*
X114149000Y-54228600D01*
X114153000Y-54222600D01*
X114159000Y-54216600D01*
X114164000Y-54210600D01*
X114170000Y-54205600D01*
X114176000Y-54199600D01*
X114182000Y-54195600D01*
X114188000Y-54190600D01*
X114195000Y-54186600D01*
X114202000Y-54182600D01*
X114209000Y-54179600D01*
X114216000Y-54176600D01*
X114224000Y-54173600D01*
X114231000Y-54171600D01*
X114239000Y-54169600D01*
X114247000Y-54168600D01*
X114254000Y-54167600D01*
X114262000Y-54166600D01*
X114270000Y-54166600D01*
X114278000Y-54166600D01*
X114286000Y-54167600D01*
G37*
X114786000Y-54167600D02*
X114793000Y-54168600D01*
X114801000Y-54169600D01*
X114809000Y-54171600D01*
X114816000Y-54173600D01*
X114824000Y-54176600D01*
X114831000Y-54179600D01*
X114838000Y-54182600D01*
X114845000Y-54186600D01*
X114852000Y-54190600D01*
X114858000Y-54195600D01*
X114864000Y-54199600D01*
X114870000Y-54205600D01*
X114876000Y-54210600D01*
X114881000Y-54216600D01*
X114887000Y-54222600D01*
X114891000Y-54228600D01*
X114896000Y-54234600D01*
X114900000Y-54241600D01*
X114904000Y-54248600D01*
X114907000Y-54255600D01*
X114910000Y-54262600D01*
X114913000Y-54270600D01*
X114915000Y-54277600D01*
X114917000Y-54285600D01*
X114918000Y-54293600D01*
X114919000Y-54300600D01*
X114920000Y-54308600D01*
X114920000Y-54316600D01*
X114920000Y-55116600D01*
X114620000Y-55116600D01*
X114620000Y-54316600D01*
X114620000Y-54308600D01*
X114621000Y-54300600D01*
X114622000Y-54293600D01*
X114623000Y-54285600D01*
X114625000Y-54277600D01*
X114627000Y-54270600D01*
X114630000Y-54262600D01*
X114633000Y-54255600D01*
X114636000Y-54248600D01*
X114640000Y-54241600D01*
X114644000Y-54234600D01*
X114649000Y-54228600D01*
X114653000Y-54222600D01*
X114659000Y-54216600D01*
X114664000Y-54210600D01*
X114670000Y-54205600D01*
X114676000Y-54199600D01*
X114682000Y-54195600D01*
X114688000Y-54190600D01*
X114695000Y-54186600D01*
X114702000Y-54182600D01*
X114709000Y-54179600D01*
X114716000Y-54176600D01*
X114724000Y-54173600D01*
X114731000Y-54171600D01*
X114739000Y-54169600D01*
X114747000Y-54168600D01*
X114754000Y-54167600D01*
X114762000Y-54166600D01*
X114770000Y-54166600D01*
X114778000Y-54166600D01*
X114786000Y-54167600D01*
G36*
X114786000Y-54167600D02*
G01*
X114793000Y-54168600D01*
X114801000Y-54169600D01*
X114809000Y-54171600D01*
X114816000Y-54173600D01*
X114824000Y-54176600D01*
X114831000Y-54179600D01*
X114838000Y-54182600D01*
X114845000Y-54186600D01*
X114852000Y-54190600D01*
X114858000Y-54195600D01*
X114864000Y-54199600D01*
X114870000Y-54205600D01*
X114876000Y-54210600D01*
X114881000Y-54216600D01*
X114887000Y-54222600D01*
X114891000Y-54228600D01*
X114896000Y-54234600D01*
X114900000Y-54241600D01*
X114904000Y-54248600D01*
X114907000Y-54255600D01*
X114910000Y-54262600D01*
X114913000Y-54270600D01*
X114915000Y-54277600D01*
X114917000Y-54285600D01*
X114918000Y-54293600D01*
X114919000Y-54300600D01*
X114920000Y-54308600D01*
X114920000Y-54316600D01*
X114920000Y-55116600D01*
X114620000Y-55116600D01*
X114620000Y-54316600D01*
X114620000Y-54308600D01*
X114621000Y-54300600D01*
X114622000Y-54293600D01*
X114623000Y-54285600D01*
X114625000Y-54277600D01*
X114627000Y-54270600D01*
X114630000Y-54262600D01*
X114633000Y-54255600D01*
X114636000Y-54248600D01*
X114640000Y-54241600D01*
X114644000Y-54234600D01*
X114649000Y-54228600D01*
X114653000Y-54222600D01*
X114659000Y-54216600D01*
X114664000Y-54210600D01*
X114670000Y-54205600D01*
X114676000Y-54199600D01*
X114682000Y-54195600D01*
X114688000Y-54190600D01*
X114695000Y-54186600D01*
X114702000Y-54182600D01*
X114709000Y-54179600D01*
X114716000Y-54176600D01*
X114724000Y-54173600D01*
X114731000Y-54171600D01*
X114739000Y-54169600D01*
X114747000Y-54168600D01*
X114754000Y-54167600D01*
X114762000Y-54166600D01*
X114770000Y-54166600D01*
X114778000Y-54166600D01*
X114786000Y-54167600D01*
G37*
X115286000Y-54167600D02*
X115293000Y-54168600D01*
X115301000Y-54169600D01*
X115309000Y-54171600D01*
X115316000Y-54173600D01*
X115324000Y-54176600D01*
X115331000Y-54179600D01*
X115338000Y-54182600D01*
X115345000Y-54186600D01*
X115352000Y-54190600D01*
X115358000Y-54195600D01*
X115364000Y-54199600D01*
X115370000Y-54205600D01*
X115376000Y-54210600D01*
X115381000Y-54216600D01*
X115387000Y-54222600D01*
X115391000Y-54228600D01*
X115396000Y-54234600D01*
X115400000Y-54241600D01*
X115404000Y-54248600D01*
X115407000Y-54255600D01*
X115410000Y-54262600D01*
X115413000Y-54270600D01*
X115415000Y-54277600D01*
X115417000Y-54285600D01*
X115418000Y-54293600D01*
X115419000Y-54300600D01*
X115420000Y-54308600D01*
X115420000Y-54316600D01*
X115420000Y-55116600D01*
X115120000Y-55116600D01*
X115120000Y-54316600D01*
X115120000Y-54308600D01*
X115121000Y-54300600D01*
X115122000Y-54293600D01*
X115123000Y-54285600D01*
X115125000Y-54277600D01*
X115127000Y-54270600D01*
X115130000Y-54262600D01*
X115133000Y-54255600D01*
X115136000Y-54248600D01*
X115140000Y-54241600D01*
X115144000Y-54234600D01*
X115149000Y-54228600D01*
X115153000Y-54222600D01*
X115159000Y-54216600D01*
X115164000Y-54210600D01*
X115170000Y-54205600D01*
X115176000Y-54199600D01*
X115182000Y-54195600D01*
X115188000Y-54190600D01*
X115195000Y-54186600D01*
X115202000Y-54182600D01*
X115209000Y-54179600D01*
X115216000Y-54176600D01*
X115224000Y-54173600D01*
X115231000Y-54171600D01*
X115239000Y-54169600D01*
X115247000Y-54168600D01*
X115254000Y-54167600D01*
X115262000Y-54166600D01*
X115270000Y-54166600D01*
X115278000Y-54166600D01*
X115286000Y-54167600D01*
G36*
X115286000Y-54167600D02*
G01*
X115293000Y-54168600D01*
X115301000Y-54169600D01*
X115309000Y-54171600D01*
X115316000Y-54173600D01*
X115324000Y-54176600D01*
X115331000Y-54179600D01*
X115338000Y-54182600D01*
X115345000Y-54186600D01*
X115352000Y-54190600D01*
X115358000Y-54195600D01*
X115364000Y-54199600D01*
X115370000Y-54205600D01*
X115376000Y-54210600D01*
X115381000Y-54216600D01*
X115387000Y-54222600D01*
X115391000Y-54228600D01*
X115396000Y-54234600D01*
X115400000Y-54241600D01*
X115404000Y-54248600D01*
X115407000Y-54255600D01*
X115410000Y-54262600D01*
X115413000Y-54270600D01*
X115415000Y-54277600D01*
X115417000Y-54285600D01*
X115418000Y-54293600D01*
X115419000Y-54300600D01*
X115420000Y-54308600D01*
X115420000Y-54316600D01*
X115420000Y-55116600D01*
X115120000Y-55116600D01*
X115120000Y-54316600D01*
X115120000Y-54308600D01*
X115121000Y-54300600D01*
X115122000Y-54293600D01*
X115123000Y-54285600D01*
X115125000Y-54277600D01*
X115127000Y-54270600D01*
X115130000Y-54262600D01*
X115133000Y-54255600D01*
X115136000Y-54248600D01*
X115140000Y-54241600D01*
X115144000Y-54234600D01*
X115149000Y-54228600D01*
X115153000Y-54222600D01*
X115159000Y-54216600D01*
X115164000Y-54210600D01*
X115170000Y-54205600D01*
X115176000Y-54199600D01*
X115182000Y-54195600D01*
X115188000Y-54190600D01*
X115195000Y-54186600D01*
X115202000Y-54182600D01*
X115209000Y-54179600D01*
X115216000Y-54176600D01*
X115224000Y-54173600D01*
X115231000Y-54171600D01*
X115239000Y-54169600D01*
X115247000Y-54168600D01*
X115254000Y-54167600D01*
X115262000Y-54166600D01*
X115270000Y-54166600D01*
X115278000Y-54166600D01*
X115286000Y-54167600D01*
G37*
X116645000Y-53391600D02*
X115845000Y-53391600D01*
X115837000Y-53391600D01*
X115829000Y-53390600D01*
X115822000Y-53389600D01*
X115814000Y-53388600D01*
X115806000Y-53386600D01*
X115799000Y-53384600D01*
X115791000Y-53381600D01*
X115784000Y-53378600D01*
X115777000Y-53375600D01*
X115770000Y-53371600D01*
X115763000Y-53367600D01*
X115757000Y-53362600D01*
X115751000Y-53358600D01*
X115745000Y-53352600D01*
X115739000Y-53347600D01*
X115734000Y-53341600D01*
X115728000Y-53335600D01*
X115724000Y-53329600D01*
X115719000Y-53323600D01*
X115715000Y-53316600D01*
X115711000Y-53309600D01*
X115708000Y-53302600D01*
X115705000Y-53295600D01*
X115702000Y-53287600D01*
X115700000Y-53280600D01*
X115698000Y-53272600D01*
X115697000Y-53264600D01*
X115696000Y-53257600D01*
X115695000Y-53249600D01*
X115695000Y-53241600D01*
X115695000Y-53233600D01*
X115696000Y-53225600D01*
X115697000Y-53218600D01*
X115698000Y-53210600D01*
X115700000Y-53202600D01*
X115702000Y-53195600D01*
X115705000Y-53187600D01*
X115708000Y-53180600D01*
X115711000Y-53173600D01*
X115715000Y-53166600D01*
X115719000Y-53159600D01*
X115724000Y-53153600D01*
X115728000Y-53147600D01*
X115734000Y-53141600D01*
X115739000Y-53135600D01*
X115745000Y-53130600D01*
X115751000Y-53124600D01*
X115757000Y-53120600D01*
X115763000Y-53115600D01*
X115770000Y-53111600D01*
X115777000Y-53107600D01*
X115784000Y-53104600D01*
X115791000Y-53101600D01*
X115799000Y-53098600D01*
X115806000Y-53096600D01*
X115814000Y-53094600D01*
X115822000Y-53093600D01*
X115829000Y-53092600D01*
X115837000Y-53091600D01*
X115845000Y-53091600D01*
X116645000Y-53091600D01*
X116645000Y-53391600D01*
G36*
X116645000Y-53391600D02*
G01*
X115845000Y-53391600D01*
X115837000Y-53391600D01*
X115829000Y-53390600D01*
X115822000Y-53389600D01*
X115814000Y-53388600D01*
X115806000Y-53386600D01*
X115799000Y-53384600D01*
X115791000Y-53381600D01*
X115784000Y-53378600D01*
X115777000Y-53375600D01*
X115770000Y-53371600D01*
X115763000Y-53367600D01*
X115757000Y-53362600D01*
X115751000Y-53358600D01*
X115745000Y-53352600D01*
X115739000Y-53347600D01*
X115734000Y-53341600D01*
X115728000Y-53335600D01*
X115724000Y-53329600D01*
X115719000Y-53323600D01*
X115715000Y-53316600D01*
X115711000Y-53309600D01*
X115708000Y-53302600D01*
X115705000Y-53295600D01*
X115702000Y-53287600D01*
X115700000Y-53280600D01*
X115698000Y-53272600D01*
X115697000Y-53264600D01*
X115696000Y-53257600D01*
X115695000Y-53249600D01*
X115695000Y-53241600D01*
X115695000Y-53233600D01*
X115696000Y-53225600D01*
X115697000Y-53218600D01*
X115698000Y-53210600D01*
X115700000Y-53202600D01*
X115702000Y-53195600D01*
X115705000Y-53187600D01*
X115708000Y-53180600D01*
X115711000Y-53173600D01*
X115715000Y-53166600D01*
X115719000Y-53159600D01*
X115724000Y-53153600D01*
X115728000Y-53147600D01*
X115734000Y-53141600D01*
X115739000Y-53135600D01*
X115745000Y-53130600D01*
X115751000Y-53124600D01*
X115757000Y-53120600D01*
X115763000Y-53115600D01*
X115770000Y-53111600D01*
X115777000Y-53107600D01*
X115784000Y-53104600D01*
X115791000Y-53101600D01*
X115799000Y-53098600D01*
X115806000Y-53096600D01*
X115814000Y-53094600D01*
X115822000Y-53093600D01*
X115829000Y-53092600D01*
X115837000Y-53091600D01*
X115845000Y-53091600D01*
X116645000Y-53091600D01*
X116645000Y-53391600D01*
G37*
X116645000Y-52891600D02*
X115845000Y-52891600D01*
X115837000Y-52891600D01*
X115829000Y-52890600D01*
X115822000Y-52889600D01*
X115814000Y-52888600D01*
X115806000Y-52886600D01*
X115799000Y-52884600D01*
X115791000Y-52881600D01*
X115784000Y-52878600D01*
X115777000Y-52875600D01*
X115770000Y-52871600D01*
X115763000Y-52867600D01*
X115757000Y-52862600D01*
X115751000Y-52858600D01*
X115745000Y-52852600D01*
X115739000Y-52847600D01*
X115734000Y-52841600D01*
X115728000Y-52835600D01*
X115724000Y-52829600D01*
X115719000Y-52823600D01*
X115715000Y-52816600D01*
X115711000Y-52809600D01*
X115708000Y-52802600D01*
X115705000Y-52795600D01*
X115702000Y-52787600D01*
X115700000Y-52780600D01*
X115698000Y-52772600D01*
X115697000Y-52764600D01*
X115696000Y-52757600D01*
X115695000Y-52749600D01*
X115695000Y-52741600D01*
X115695000Y-52733600D01*
X115696000Y-52725600D01*
X115697000Y-52718600D01*
X115698000Y-52710600D01*
X115700000Y-52702600D01*
X115702000Y-52695600D01*
X115705000Y-52687600D01*
X115708000Y-52680600D01*
X115711000Y-52673600D01*
X115715000Y-52666600D01*
X115719000Y-52659600D01*
X115724000Y-52653600D01*
X115728000Y-52647600D01*
X115734000Y-52641600D01*
X115739000Y-52635600D01*
X115745000Y-52630600D01*
X115751000Y-52624600D01*
X115757000Y-52620600D01*
X115763000Y-52615600D01*
X115770000Y-52611600D01*
X115777000Y-52607600D01*
X115784000Y-52604600D01*
X115791000Y-52601600D01*
X115799000Y-52598600D01*
X115806000Y-52596600D01*
X115814000Y-52594600D01*
X115822000Y-52593600D01*
X115829000Y-52592600D01*
X115837000Y-52591600D01*
X115845000Y-52591600D01*
X116645000Y-52591600D01*
X116645000Y-52891600D01*
G36*
X116645000Y-52891600D02*
G01*
X115845000Y-52891600D01*
X115837000Y-52891600D01*
X115829000Y-52890600D01*
X115822000Y-52889600D01*
X115814000Y-52888600D01*
X115806000Y-52886600D01*
X115799000Y-52884600D01*
X115791000Y-52881600D01*
X115784000Y-52878600D01*
X115777000Y-52875600D01*
X115770000Y-52871600D01*
X115763000Y-52867600D01*
X115757000Y-52862600D01*
X115751000Y-52858600D01*
X115745000Y-52852600D01*
X115739000Y-52847600D01*
X115734000Y-52841600D01*
X115728000Y-52835600D01*
X115724000Y-52829600D01*
X115719000Y-52823600D01*
X115715000Y-52816600D01*
X115711000Y-52809600D01*
X115708000Y-52802600D01*
X115705000Y-52795600D01*
X115702000Y-52787600D01*
X115700000Y-52780600D01*
X115698000Y-52772600D01*
X115697000Y-52764600D01*
X115696000Y-52757600D01*
X115695000Y-52749600D01*
X115695000Y-52741600D01*
X115695000Y-52733600D01*
X115696000Y-52725600D01*
X115697000Y-52718600D01*
X115698000Y-52710600D01*
X115700000Y-52702600D01*
X115702000Y-52695600D01*
X115705000Y-52687600D01*
X115708000Y-52680600D01*
X115711000Y-52673600D01*
X115715000Y-52666600D01*
X115719000Y-52659600D01*
X115724000Y-52653600D01*
X115728000Y-52647600D01*
X115734000Y-52641600D01*
X115739000Y-52635600D01*
X115745000Y-52630600D01*
X115751000Y-52624600D01*
X115757000Y-52620600D01*
X115763000Y-52615600D01*
X115770000Y-52611600D01*
X115777000Y-52607600D01*
X115784000Y-52604600D01*
X115791000Y-52601600D01*
X115799000Y-52598600D01*
X115806000Y-52596600D01*
X115814000Y-52594600D01*
X115822000Y-52593600D01*
X115829000Y-52592600D01*
X115837000Y-52591600D01*
X115845000Y-52591600D01*
X116645000Y-52591600D01*
X116645000Y-52891600D01*
G37*
X116645000Y-52391600D02*
X115845000Y-52391600D01*
X115837000Y-52391600D01*
X115829000Y-52390600D01*
X115822000Y-52389600D01*
X115814000Y-52388600D01*
X115806000Y-52386600D01*
X115799000Y-52384600D01*
X115791000Y-52381600D01*
X115784000Y-52378600D01*
X115777000Y-52375600D01*
X115770000Y-52371600D01*
X115763000Y-52367600D01*
X115757000Y-52362600D01*
X115751000Y-52358600D01*
X115745000Y-52352600D01*
X115739000Y-52347600D01*
X115734000Y-52341600D01*
X115728000Y-52335600D01*
X115724000Y-52329600D01*
X115719000Y-52323600D01*
X115715000Y-52316600D01*
X115711000Y-52309600D01*
X115708000Y-52302600D01*
X115705000Y-52295600D01*
X115702000Y-52287600D01*
X115700000Y-52280600D01*
X115698000Y-52272600D01*
X115697000Y-52264600D01*
X115696000Y-52257600D01*
X115695000Y-52249600D01*
X115695000Y-52241600D01*
X115695000Y-52233600D01*
X115696000Y-52225600D01*
X115697000Y-52218600D01*
X115698000Y-52210600D01*
X115700000Y-52202600D01*
X115702000Y-52195600D01*
X115705000Y-52187600D01*
X115708000Y-52180600D01*
X115711000Y-52173600D01*
X115715000Y-52166600D01*
X115719000Y-52159600D01*
X115724000Y-52153600D01*
X115728000Y-52147600D01*
X115734000Y-52141600D01*
X115739000Y-52135600D01*
X115745000Y-52130600D01*
X115751000Y-52124600D01*
X115757000Y-52120600D01*
X115763000Y-52115600D01*
X115770000Y-52111600D01*
X115777000Y-52107600D01*
X115784000Y-52104600D01*
X115791000Y-52101600D01*
X115799000Y-52098600D01*
X115806000Y-52096600D01*
X115814000Y-52094600D01*
X115822000Y-52093600D01*
X115829000Y-52092600D01*
X115837000Y-52091600D01*
X115845000Y-52091600D01*
X116645000Y-52091600D01*
X116645000Y-52391600D01*
G36*
X116645000Y-52391600D02*
G01*
X115845000Y-52391600D01*
X115837000Y-52391600D01*
X115829000Y-52390600D01*
X115822000Y-52389600D01*
X115814000Y-52388600D01*
X115806000Y-52386600D01*
X115799000Y-52384600D01*
X115791000Y-52381600D01*
X115784000Y-52378600D01*
X115777000Y-52375600D01*
X115770000Y-52371600D01*
X115763000Y-52367600D01*
X115757000Y-52362600D01*
X115751000Y-52358600D01*
X115745000Y-52352600D01*
X115739000Y-52347600D01*
X115734000Y-52341600D01*
X115728000Y-52335600D01*
X115724000Y-52329600D01*
X115719000Y-52323600D01*
X115715000Y-52316600D01*
X115711000Y-52309600D01*
X115708000Y-52302600D01*
X115705000Y-52295600D01*
X115702000Y-52287600D01*
X115700000Y-52280600D01*
X115698000Y-52272600D01*
X115697000Y-52264600D01*
X115696000Y-52257600D01*
X115695000Y-52249600D01*
X115695000Y-52241600D01*
X115695000Y-52233600D01*
X115696000Y-52225600D01*
X115697000Y-52218600D01*
X115698000Y-52210600D01*
X115700000Y-52202600D01*
X115702000Y-52195600D01*
X115705000Y-52187600D01*
X115708000Y-52180600D01*
X115711000Y-52173600D01*
X115715000Y-52166600D01*
X115719000Y-52159600D01*
X115724000Y-52153600D01*
X115728000Y-52147600D01*
X115734000Y-52141600D01*
X115739000Y-52135600D01*
X115745000Y-52130600D01*
X115751000Y-52124600D01*
X115757000Y-52120600D01*
X115763000Y-52115600D01*
X115770000Y-52111600D01*
X115777000Y-52107600D01*
X115784000Y-52104600D01*
X115791000Y-52101600D01*
X115799000Y-52098600D01*
X115806000Y-52096600D01*
X115814000Y-52094600D01*
X115822000Y-52093600D01*
X115829000Y-52092600D01*
X115837000Y-52091600D01*
X115845000Y-52091600D01*
X116645000Y-52091600D01*
X116645000Y-52391600D01*
G37*
X116645000Y-51891600D02*
X115845000Y-51891600D01*
X115837000Y-51891600D01*
X115829000Y-51890600D01*
X115822000Y-51889600D01*
X115814000Y-51888600D01*
X115806000Y-51886600D01*
X115799000Y-51884600D01*
X115791000Y-51881600D01*
X115784000Y-51878600D01*
X115777000Y-51875600D01*
X115770000Y-51871600D01*
X115763000Y-51867600D01*
X115757000Y-51862600D01*
X115751000Y-51858600D01*
X115745000Y-51852600D01*
X115739000Y-51847600D01*
X115734000Y-51841600D01*
X115728000Y-51835600D01*
X115724000Y-51829600D01*
X115719000Y-51823600D01*
X115715000Y-51816600D01*
X115711000Y-51809600D01*
X115708000Y-51802600D01*
X115705000Y-51795600D01*
X115702000Y-51787600D01*
X115700000Y-51780600D01*
X115698000Y-51772600D01*
X115697000Y-51764600D01*
X115696000Y-51757600D01*
X115695000Y-51749600D01*
X115695000Y-51741600D01*
X115695000Y-51733600D01*
X115696000Y-51725600D01*
X115697000Y-51718600D01*
X115698000Y-51710600D01*
X115700000Y-51702600D01*
X115702000Y-51695600D01*
X115705000Y-51687600D01*
X115708000Y-51680600D01*
X115711000Y-51673600D01*
X115715000Y-51666600D01*
X115719000Y-51659600D01*
X115724000Y-51653600D01*
X115728000Y-51647600D01*
X115734000Y-51641600D01*
X115739000Y-51635600D01*
X115745000Y-51630600D01*
X115751000Y-51624600D01*
X115757000Y-51620600D01*
X115763000Y-51615600D01*
X115770000Y-51611600D01*
X115777000Y-51607600D01*
X115784000Y-51604600D01*
X115791000Y-51601600D01*
X115799000Y-51598600D01*
X115806000Y-51596600D01*
X115814000Y-51594600D01*
X115822000Y-51593600D01*
X115829000Y-51592600D01*
X115837000Y-51591600D01*
X115845000Y-51591600D01*
X116645000Y-51591600D01*
X116645000Y-51891600D01*
G36*
X116645000Y-51891600D02*
G01*
X115845000Y-51891600D01*
X115837000Y-51891600D01*
X115829000Y-51890600D01*
X115822000Y-51889600D01*
X115814000Y-51888600D01*
X115806000Y-51886600D01*
X115799000Y-51884600D01*
X115791000Y-51881600D01*
X115784000Y-51878600D01*
X115777000Y-51875600D01*
X115770000Y-51871600D01*
X115763000Y-51867600D01*
X115757000Y-51862600D01*
X115751000Y-51858600D01*
X115745000Y-51852600D01*
X115739000Y-51847600D01*
X115734000Y-51841600D01*
X115728000Y-51835600D01*
X115724000Y-51829600D01*
X115719000Y-51823600D01*
X115715000Y-51816600D01*
X115711000Y-51809600D01*
X115708000Y-51802600D01*
X115705000Y-51795600D01*
X115702000Y-51787600D01*
X115700000Y-51780600D01*
X115698000Y-51772600D01*
X115697000Y-51764600D01*
X115696000Y-51757600D01*
X115695000Y-51749600D01*
X115695000Y-51741600D01*
X115695000Y-51733600D01*
X115696000Y-51725600D01*
X115697000Y-51718600D01*
X115698000Y-51710600D01*
X115700000Y-51702600D01*
X115702000Y-51695600D01*
X115705000Y-51687600D01*
X115708000Y-51680600D01*
X115711000Y-51673600D01*
X115715000Y-51666600D01*
X115719000Y-51659600D01*
X115724000Y-51653600D01*
X115728000Y-51647600D01*
X115734000Y-51641600D01*
X115739000Y-51635600D01*
X115745000Y-51630600D01*
X115751000Y-51624600D01*
X115757000Y-51620600D01*
X115763000Y-51615600D01*
X115770000Y-51611600D01*
X115777000Y-51607600D01*
X115784000Y-51604600D01*
X115791000Y-51601600D01*
X115799000Y-51598600D01*
X115806000Y-51596600D01*
X115814000Y-51594600D01*
X115822000Y-51593600D01*
X115829000Y-51592600D01*
X115837000Y-51591600D01*
X115845000Y-51591600D01*
X116645000Y-51591600D01*
X116645000Y-51891600D01*
G37*
X116645000Y-51391600D02*
X115845000Y-51391600D01*
X115837000Y-51391600D01*
X115829000Y-51390600D01*
X115822000Y-51389600D01*
X115814000Y-51388600D01*
X115806000Y-51386600D01*
X115799000Y-51384600D01*
X115791000Y-51381600D01*
X115784000Y-51378600D01*
X115777000Y-51375600D01*
X115770000Y-51371600D01*
X115763000Y-51367600D01*
X115757000Y-51362600D01*
X115751000Y-51358600D01*
X115745000Y-51352600D01*
X115739000Y-51347600D01*
X115734000Y-51341600D01*
X115728000Y-51335600D01*
X115724000Y-51329600D01*
X115719000Y-51323600D01*
X115715000Y-51316600D01*
X115711000Y-51309600D01*
X115708000Y-51302600D01*
X115705000Y-51295600D01*
X115702000Y-51287600D01*
X115700000Y-51280600D01*
X115698000Y-51272600D01*
X115697000Y-51264600D01*
X115696000Y-51257600D01*
X115695000Y-51249600D01*
X115695000Y-51241600D01*
X115695000Y-51233600D01*
X115696000Y-51225600D01*
X115697000Y-51218600D01*
X115698000Y-51210600D01*
X115700000Y-51202600D01*
X115702000Y-51195600D01*
X115705000Y-51187600D01*
X115708000Y-51180600D01*
X115711000Y-51173600D01*
X115715000Y-51166600D01*
X115719000Y-51159600D01*
X115724000Y-51153600D01*
X115728000Y-51147600D01*
X115734000Y-51141600D01*
X115739000Y-51135600D01*
X115745000Y-51130600D01*
X115751000Y-51124600D01*
X115757000Y-51120600D01*
X115763000Y-51115600D01*
X115770000Y-51111600D01*
X115777000Y-51107600D01*
X115784000Y-51104600D01*
X115791000Y-51101600D01*
X115799000Y-51098600D01*
X115806000Y-51096600D01*
X115814000Y-51094600D01*
X115822000Y-51093600D01*
X115829000Y-51092600D01*
X115837000Y-51091600D01*
X115845000Y-51091600D01*
X116645000Y-51091600D01*
X116645000Y-51391600D01*
G36*
X116645000Y-51391600D02*
G01*
X115845000Y-51391600D01*
X115837000Y-51391600D01*
X115829000Y-51390600D01*
X115822000Y-51389600D01*
X115814000Y-51388600D01*
X115806000Y-51386600D01*
X115799000Y-51384600D01*
X115791000Y-51381600D01*
X115784000Y-51378600D01*
X115777000Y-51375600D01*
X115770000Y-51371600D01*
X115763000Y-51367600D01*
X115757000Y-51362600D01*
X115751000Y-51358600D01*
X115745000Y-51352600D01*
X115739000Y-51347600D01*
X115734000Y-51341600D01*
X115728000Y-51335600D01*
X115724000Y-51329600D01*
X115719000Y-51323600D01*
X115715000Y-51316600D01*
X115711000Y-51309600D01*
X115708000Y-51302600D01*
X115705000Y-51295600D01*
X115702000Y-51287600D01*
X115700000Y-51280600D01*
X115698000Y-51272600D01*
X115697000Y-51264600D01*
X115696000Y-51257600D01*
X115695000Y-51249600D01*
X115695000Y-51241600D01*
X115695000Y-51233600D01*
X115696000Y-51225600D01*
X115697000Y-51218600D01*
X115698000Y-51210600D01*
X115700000Y-51202600D01*
X115702000Y-51195600D01*
X115705000Y-51187600D01*
X115708000Y-51180600D01*
X115711000Y-51173600D01*
X115715000Y-51166600D01*
X115719000Y-51159600D01*
X115724000Y-51153600D01*
X115728000Y-51147600D01*
X115734000Y-51141600D01*
X115739000Y-51135600D01*
X115745000Y-51130600D01*
X115751000Y-51124600D01*
X115757000Y-51120600D01*
X115763000Y-51115600D01*
X115770000Y-51111600D01*
X115777000Y-51107600D01*
X115784000Y-51104600D01*
X115791000Y-51101600D01*
X115799000Y-51098600D01*
X115806000Y-51096600D01*
X115814000Y-51094600D01*
X115822000Y-51093600D01*
X115829000Y-51092600D01*
X115837000Y-51091600D01*
X115845000Y-51091600D01*
X116645000Y-51091600D01*
X116645000Y-51391600D01*
G37*
X116645000Y-50891600D02*
X115845000Y-50891600D01*
X115837000Y-50891600D01*
X115829000Y-50890600D01*
X115822000Y-50889600D01*
X115814000Y-50888600D01*
X115806000Y-50886600D01*
X115799000Y-50884600D01*
X115791000Y-50881600D01*
X115784000Y-50878600D01*
X115777000Y-50875600D01*
X115770000Y-50871600D01*
X115763000Y-50867600D01*
X115757000Y-50862600D01*
X115751000Y-50858600D01*
X115745000Y-50852600D01*
X115739000Y-50847600D01*
X115734000Y-50841600D01*
X115728000Y-50835600D01*
X115724000Y-50829600D01*
X115719000Y-50823600D01*
X115715000Y-50816600D01*
X115711000Y-50809600D01*
X115708000Y-50802600D01*
X115705000Y-50795600D01*
X115702000Y-50787600D01*
X115700000Y-50780600D01*
X115698000Y-50772600D01*
X115697000Y-50764600D01*
X115696000Y-50757600D01*
X115695000Y-50749600D01*
X115695000Y-50741600D01*
X115695000Y-50733600D01*
X115696000Y-50725600D01*
X115697000Y-50718600D01*
X115698000Y-50710600D01*
X115700000Y-50702600D01*
X115702000Y-50695600D01*
X115705000Y-50687600D01*
X115708000Y-50680600D01*
X115711000Y-50673600D01*
X115715000Y-50666600D01*
X115719000Y-50659600D01*
X115724000Y-50653600D01*
X115728000Y-50647600D01*
X115734000Y-50641600D01*
X115739000Y-50635600D01*
X115745000Y-50630600D01*
X115751000Y-50624600D01*
X115757000Y-50620600D01*
X115763000Y-50615600D01*
X115770000Y-50611600D01*
X115777000Y-50607600D01*
X115784000Y-50604600D01*
X115791000Y-50601600D01*
X115799000Y-50598600D01*
X115806000Y-50596600D01*
X115814000Y-50594600D01*
X115822000Y-50593600D01*
X115829000Y-50592600D01*
X115837000Y-50591600D01*
X115845000Y-50591600D01*
X116645000Y-50591600D01*
X116645000Y-50891600D01*
G36*
X116645000Y-50891600D02*
G01*
X115845000Y-50891600D01*
X115837000Y-50891600D01*
X115829000Y-50890600D01*
X115822000Y-50889600D01*
X115814000Y-50888600D01*
X115806000Y-50886600D01*
X115799000Y-50884600D01*
X115791000Y-50881600D01*
X115784000Y-50878600D01*
X115777000Y-50875600D01*
X115770000Y-50871600D01*
X115763000Y-50867600D01*
X115757000Y-50862600D01*
X115751000Y-50858600D01*
X115745000Y-50852600D01*
X115739000Y-50847600D01*
X115734000Y-50841600D01*
X115728000Y-50835600D01*
X115724000Y-50829600D01*
X115719000Y-50823600D01*
X115715000Y-50816600D01*
X115711000Y-50809600D01*
X115708000Y-50802600D01*
X115705000Y-50795600D01*
X115702000Y-50787600D01*
X115700000Y-50780600D01*
X115698000Y-50772600D01*
X115697000Y-50764600D01*
X115696000Y-50757600D01*
X115695000Y-50749600D01*
X115695000Y-50741600D01*
X115695000Y-50733600D01*
X115696000Y-50725600D01*
X115697000Y-50718600D01*
X115698000Y-50710600D01*
X115700000Y-50702600D01*
X115702000Y-50695600D01*
X115705000Y-50687600D01*
X115708000Y-50680600D01*
X115711000Y-50673600D01*
X115715000Y-50666600D01*
X115719000Y-50659600D01*
X115724000Y-50653600D01*
X115728000Y-50647600D01*
X115734000Y-50641600D01*
X115739000Y-50635600D01*
X115745000Y-50630600D01*
X115751000Y-50624600D01*
X115757000Y-50620600D01*
X115763000Y-50615600D01*
X115770000Y-50611600D01*
X115777000Y-50607600D01*
X115784000Y-50604600D01*
X115791000Y-50601600D01*
X115799000Y-50598600D01*
X115806000Y-50596600D01*
X115814000Y-50594600D01*
X115822000Y-50593600D01*
X115829000Y-50592600D01*
X115837000Y-50591600D01*
X115845000Y-50591600D01*
X116645000Y-50591600D01*
X116645000Y-50891600D01*
G37*
X114920000Y-50166600D02*
X114920000Y-50174600D01*
X114919000Y-50182600D01*
X114918000Y-50189600D01*
X114917000Y-50197600D01*
X114915000Y-50205600D01*
X114913000Y-50212600D01*
X114910000Y-50220600D01*
X114907000Y-50227600D01*
X114904000Y-50234600D01*
X114900000Y-50241600D01*
X114896000Y-50248600D01*
X114891000Y-50254600D01*
X114887000Y-50260600D01*
X114881000Y-50266600D01*
X114876000Y-50272600D01*
X114870000Y-50277600D01*
X114864000Y-50283600D01*
X114858000Y-50287600D01*
X114852000Y-50292600D01*
X114845000Y-50296600D01*
X114838000Y-50300600D01*
X114831000Y-50303600D01*
X114824000Y-50306600D01*
X114816000Y-50309600D01*
X114809000Y-50311600D01*
X114801000Y-50313600D01*
X114793000Y-50314600D01*
X114786000Y-50315600D01*
X114778000Y-50316600D01*
X114770000Y-50316600D01*
X114762000Y-50316600D01*
X114754000Y-50315600D01*
X114747000Y-50314600D01*
X114739000Y-50313600D01*
X114731000Y-50311600D01*
X114724000Y-50309600D01*
X114716000Y-50306600D01*
X114709000Y-50303600D01*
X114702000Y-50300600D01*
X114695000Y-50296600D01*
X114688000Y-50292600D01*
X114682000Y-50287600D01*
X114676000Y-50283600D01*
X114670000Y-50277600D01*
X114664000Y-50272600D01*
X114659000Y-50266600D01*
X114653000Y-50260600D01*
X114649000Y-50254600D01*
X114644000Y-50248600D01*
X114640000Y-50241600D01*
X114636000Y-50234600D01*
X114633000Y-50227600D01*
X114630000Y-50220600D01*
X114627000Y-50212600D01*
X114625000Y-50205600D01*
X114623000Y-50197600D01*
X114622000Y-50189600D01*
X114621000Y-50182600D01*
X114620000Y-50174600D01*
X114620000Y-50166600D01*
X114620000Y-49366600D01*
X114920000Y-49366600D01*
X114920000Y-50166600D01*
G36*
X114920000Y-50166600D02*
G01*
X114920000Y-50174600D01*
X114919000Y-50182600D01*
X114918000Y-50189600D01*
X114917000Y-50197600D01*
X114915000Y-50205600D01*
X114913000Y-50212600D01*
X114910000Y-50220600D01*
X114907000Y-50227600D01*
X114904000Y-50234600D01*
X114900000Y-50241600D01*
X114896000Y-50248600D01*
X114891000Y-50254600D01*
X114887000Y-50260600D01*
X114881000Y-50266600D01*
X114876000Y-50272600D01*
X114870000Y-50277600D01*
X114864000Y-50283600D01*
X114858000Y-50287600D01*
X114852000Y-50292600D01*
X114845000Y-50296600D01*
X114838000Y-50300600D01*
X114831000Y-50303600D01*
X114824000Y-50306600D01*
X114816000Y-50309600D01*
X114809000Y-50311600D01*
X114801000Y-50313600D01*
X114793000Y-50314600D01*
X114786000Y-50315600D01*
X114778000Y-50316600D01*
X114770000Y-50316600D01*
X114762000Y-50316600D01*
X114754000Y-50315600D01*
X114747000Y-50314600D01*
X114739000Y-50313600D01*
X114731000Y-50311600D01*
X114724000Y-50309600D01*
X114716000Y-50306600D01*
X114709000Y-50303600D01*
X114702000Y-50300600D01*
X114695000Y-50296600D01*
X114688000Y-50292600D01*
X114682000Y-50287600D01*
X114676000Y-50283600D01*
X114670000Y-50277600D01*
X114664000Y-50272600D01*
X114659000Y-50266600D01*
X114653000Y-50260600D01*
X114649000Y-50254600D01*
X114644000Y-50248600D01*
X114640000Y-50241600D01*
X114636000Y-50234600D01*
X114633000Y-50227600D01*
X114630000Y-50220600D01*
X114627000Y-50212600D01*
X114625000Y-50205600D01*
X114623000Y-50197600D01*
X114622000Y-50189600D01*
X114621000Y-50182600D01*
X114620000Y-50174600D01*
X114620000Y-50166600D01*
X114620000Y-49366600D01*
X114920000Y-49366600D01*
X114920000Y-50166600D01*
G37*
X114420000Y-50166600D02*
X114420000Y-50174600D01*
X114419000Y-50182600D01*
X114418000Y-50189600D01*
X114417000Y-50197600D01*
X114415000Y-50205600D01*
X114413000Y-50212600D01*
X114410000Y-50220600D01*
X114407000Y-50227600D01*
X114404000Y-50234600D01*
X114400000Y-50241600D01*
X114396000Y-50248600D01*
X114391000Y-50254600D01*
X114387000Y-50260600D01*
X114381000Y-50266600D01*
X114376000Y-50272600D01*
X114370000Y-50277600D01*
X114364000Y-50283600D01*
X114358000Y-50287600D01*
X114352000Y-50292600D01*
X114345000Y-50296600D01*
X114338000Y-50300600D01*
X114331000Y-50303600D01*
X114324000Y-50306600D01*
X114316000Y-50309600D01*
X114309000Y-50311600D01*
X114301000Y-50313600D01*
X114293000Y-50314600D01*
X114286000Y-50315600D01*
X114278000Y-50316600D01*
X114270000Y-50316600D01*
X114262000Y-50316600D01*
X114254000Y-50315600D01*
X114247000Y-50314600D01*
X114239000Y-50313600D01*
X114231000Y-50311600D01*
X114224000Y-50309600D01*
X114216000Y-50306600D01*
X114209000Y-50303600D01*
X114202000Y-50300600D01*
X114195000Y-50296600D01*
X114188000Y-50292600D01*
X114182000Y-50287600D01*
X114176000Y-50283600D01*
X114170000Y-50277600D01*
X114164000Y-50272600D01*
X114159000Y-50266600D01*
X114153000Y-50260600D01*
X114149000Y-50254600D01*
X114144000Y-50248600D01*
X114140000Y-50241600D01*
X114136000Y-50234600D01*
X114133000Y-50227600D01*
X114130000Y-50220600D01*
X114127000Y-50212600D01*
X114125000Y-50205600D01*
X114123000Y-50197600D01*
X114122000Y-50189600D01*
X114121000Y-50182600D01*
X114120000Y-50174600D01*
X114120000Y-50166600D01*
X114120000Y-49366600D01*
X114420000Y-49366600D01*
X114420000Y-50166600D01*
G36*
X114420000Y-50166600D02*
G01*
X114420000Y-50174600D01*
X114419000Y-50182600D01*
X114418000Y-50189600D01*
X114417000Y-50197600D01*
X114415000Y-50205600D01*
X114413000Y-50212600D01*
X114410000Y-50220600D01*
X114407000Y-50227600D01*
X114404000Y-50234600D01*
X114400000Y-50241600D01*
X114396000Y-50248600D01*
X114391000Y-50254600D01*
X114387000Y-50260600D01*
X114381000Y-50266600D01*
X114376000Y-50272600D01*
X114370000Y-50277600D01*
X114364000Y-50283600D01*
X114358000Y-50287600D01*
X114352000Y-50292600D01*
X114345000Y-50296600D01*
X114338000Y-50300600D01*
X114331000Y-50303600D01*
X114324000Y-50306600D01*
X114316000Y-50309600D01*
X114309000Y-50311600D01*
X114301000Y-50313600D01*
X114293000Y-50314600D01*
X114286000Y-50315600D01*
X114278000Y-50316600D01*
X114270000Y-50316600D01*
X114262000Y-50316600D01*
X114254000Y-50315600D01*
X114247000Y-50314600D01*
X114239000Y-50313600D01*
X114231000Y-50311600D01*
X114224000Y-50309600D01*
X114216000Y-50306600D01*
X114209000Y-50303600D01*
X114202000Y-50300600D01*
X114195000Y-50296600D01*
X114188000Y-50292600D01*
X114182000Y-50287600D01*
X114176000Y-50283600D01*
X114170000Y-50277600D01*
X114164000Y-50272600D01*
X114159000Y-50266600D01*
X114153000Y-50260600D01*
X114149000Y-50254600D01*
X114144000Y-50248600D01*
X114140000Y-50241600D01*
X114136000Y-50234600D01*
X114133000Y-50227600D01*
X114130000Y-50220600D01*
X114127000Y-50212600D01*
X114125000Y-50205600D01*
X114123000Y-50197600D01*
X114122000Y-50189600D01*
X114121000Y-50182600D01*
X114120000Y-50174600D01*
X114120000Y-50166600D01*
X114120000Y-49366600D01*
X114420000Y-49366600D01*
X114420000Y-50166600D01*
G37*
X113920000Y-50166600D02*
X113920000Y-50174600D01*
X113919000Y-50182600D01*
X113918000Y-50189600D01*
X113917000Y-50197600D01*
X113915000Y-50205600D01*
X113913000Y-50212600D01*
X113910000Y-50220600D01*
X113907000Y-50227600D01*
X113904000Y-50234600D01*
X113900000Y-50241600D01*
X113896000Y-50248600D01*
X113891000Y-50254600D01*
X113887000Y-50260600D01*
X113881000Y-50266600D01*
X113876000Y-50272600D01*
X113870000Y-50277600D01*
X113864000Y-50283600D01*
X113858000Y-50287600D01*
X113852000Y-50292600D01*
X113845000Y-50296600D01*
X113838000Y-50300600D01*
X113831000Y-50303600D01*
X113824000Y-50306600D01*
X113816000Y-50309600D01*
X113809000Y-50311600D01*
X113801000Y-50313600D01*
X113793000Y-50314600D01*
X113786000Y-50315600D01*
X113778000Y-50316600D01*
X113770000Y-50316600D01*
X113762000Y-50316600D01*
X113754000Y-50315600D01*
X113747000Y-50314600D01*
X113739000Y-50313600D01*
X113731000Y-50311600D01*
X113724000Y-50309600D01*
X113716000Y-50306600D01*
X113709000Y-50303600D01*
X113702000Y-50300600D01*
X113695000Y-50296600D01*
X113688000Y-50292600D01*
X113682000Y-50287600D01*
X113676000Y-50283600D01*
X113670000Y-50277600D01*
X113664000Y-50272600D01*
X113659000Y-50266600D01*
X113653000Y-50260600D01*
X113649000Y-50254600D01*
X113644000Y-50248600D01*
X113640000Y-50241600D01*
X113636000Y-50234600D01*
X113633000Y-50227600D01*
X113630000Y-50220600D01*
X113627000Y-50212600D01*
X113625000Y-50205600D01*
X113623000Y-50197600D01*
X113622000Y-50189600D01*
X113621000Y-50182600D01*
X113620000Y-50174600D01*
X113620000Y-50166600D01*
X113620000Y-49366600D01*
X113920000Y-49366600D01*
X113920000Y-50166600D01*
G36*
X113920000Y-50166600D02*
G01*
X113920000Y-50174600D01*
X113919000Y-50182600D01*
X113918000Y-50189600D01*
X113917000Y-50197600D01*
X113915000Y-50205600D01*
X113913000Y-50212600D01*
X113910000Y-50220600D01*
X113907000Y-50227600D01*
X113904000Y-50234600D01*
X113900000Y-50241600D01*
X113896000Y-50248600D01*
X113891000Y-50254600D01*
X113887000Y-50260600D01*
X113881000Y-50266600D01*
X113876000Y-50272600D01*
X113870000Y-50277600D01*
X113864000Y-50283600D01*
X113858000Y-50287600D01*
X113852000Y-50292600D01*
X113845000Y-50296600D01*
X113838000Y-50300600D01*
X113831000Y-50303600D01*
X113824000Y-50306600D01*
X113816000Y-50309600D01*
X113809000Y-50311600D01*
X113801000Y-50313600D01*
X113793000Y-50314600D01*
X113786000Y-50315600D01*
X113778000Y-50316600D01*
X113770000Y-50316600D01*
X113762000Y-50316600D01*
X113754000Y-50315600D01*
X113747000Y-50314600D01*
X113739000Y-50313600D01*
X113731000Y-50311600D01*
X113724000Y-50309600D01*
X113716000Y-50306600D01*
X113709000Y-50303600D01*
X113702000Y-50300600D01*
X113695000Y-50296600D01*
X113688000Y-50292600D01*
X113682000Y-50287600D01*
X113676000Y-50283600D01*
X113670000Y-50277600D01*
X113664000Y-50272600D01*
X113659000Y-50266600D01*
X113653000Y-50260600D01*
X113649000Y-50254600D01*
X113644000Y-50248600D01*
X113640000Y-50241600D01*
X113636000Y-50234600D01*
X113633000Y-50227600D01*
X113630000Y-50220600D01*
X113627000Y-50212600D01*
X113625000Y-50205600D01*
X113623000Y-50197600D01*
X113622000Y-50189600D01*
X113621000Y-50182600D01*
X113620000Y-50174600D01*
X113620000Y-50166600D01*
X113620000Y-49366600D01*
X113920000Y-49366600D01*
X113920000Y-50166600D01*
G37*
X113420000Y-50166600D02*
X113420000Y-50174600D01*
X113419000Y-50182600D01*
X113418000Y-50189600D01*
X113417000Y-50197600D01*
X113415000Y-50205600D01*
X113413000Y-50212600D01*
X113410000Y-50220600D01*
X113407000Y-50227600D01*
X113404000Y-50234600D01*
X113400000Y-50241600D01*
X113396000Y-50248600D01*
X113391000Y-50254600D01*
X113387000Y-50260600D01*
X113381000Y-50266600D01*
X113376000Y-50272600D01*
X113370000Y-50277600D01*
X113364000Y-50283600D01*
X113358000Y-50287600D01*
X113352000Y-50292600D01*
X113345000Y-50296600D01*
X113338000Y-50300600D01*
X113331000Y-50303600D01*
X113324000Y-50306600D01*
X113316000Y-50309600D01*
X113309000Y-50311600D01*
X113301000Y-50313600D01*
X113293000Y-50314600D01*
X113286000Y-50315600D01*
X113278000Y-50316600D01*
X113270000Y-50316600D01*
X113262000Y-50316600D01*
X113254000Y-50315600D01*
X113247000Y-50314600D01*
X113239000Y-50313600D01*
X113231000Y-50311600D01*
X113224000Y-50309600D01*
X113216000Y-50306600D01*
X113209000Y-50303600D01*
X113202000Y-50300600D01*
X113195000Y-50296600D01*
X113188000Y-50292600D01*
X113182000Y-50287600D01*
X113176000Y-50283600D01*
X113170000Y-50277600D01*
X113164000Y-50272600D01*
X113159000Y-50266600D01*
X113153000Y-50260600D01*
X113149000Y-50254600D01*
X113144000Y-50248600D01*
X113140000Y-50241600D01*
X113136000Y-50234600D01*
X113133000Y-50227600D01*
X113130000Y-50220600D01*
X113127000Y-50212600D01*
X113125000Y-50205600D01*
X113123000Y-50197600D01*
X113122000Y-50189600D01*
X113121000Y-50182600D01*
X113120000Y-50174600D01*
X113120000Y-50166600D01*
X113120000Y-49366600D01*
X113420000Y-49366600D01*
X113420000Y-50166600D01*
G36*
X113420000Y-50166600D02*
G01*
X113420000Y-50174600D01*
X113419000Y-50182600D01*
X113418000Y-50189600D01*
X113417000Y-50197600D01*
X113415000Y-50205600D01*
X113413000Y-50212600D01*
X113410000Y-50220600D01*
X113407000Y-50227600D01*
X113404000Y-50234600D01*
X113400000Y-50241600D01*
X113396000Y-50248600D01*
X113391000Y-50254600D01*
X113387000Y-50260600D01*
X113381000Y-50266600D01*
X113376000Y-50272600D01*
X113370000Y-50277600D01*
X113364000Y-50283600D01*
X113358000Y-50287600D01*
X113352000Y-50292600D01*
X113345000Y-50296600D01*
X113338000Y-50300600D01*
X113331000Y-50303600D01*
X113324000Y-50306600D01*
X113316000Y-50309600D01*
X113309000Y-50311600D01*
X113301000Y-50313600D01*
X113293000Y-50314600D01*
X113286000Y-50315600D01*
X113278000Y-50316600D01*
X113270000Y-50316600D01*
X113262000Y-50316600D01*
X113254000Y-50315600D01*
X113247000Y-50314600D01*
X113239000Y-50313600D01*
X113231000Y-50311600D01*
X113224000Y-50309600D01*
X113216000Y-50306600D01*
X113209000Y-50303600D01*
X113202000Y-50300600D01*
X113195000Y-50296600D01*
X113188000Y-50292600D01*
X113182000Y-50287600D01*
X113176000Y-50283600D01*
X113170000Y-50277600D01*
X113164000Y-50272600D01*
X113159000Y-50266600D01*
X113153000Y-50260600D01*
X113149000Y-50254600D01*
X113144000Y-50248600D01*
X113140000Y-50241600D01*
X113136000Y-50234600D01*
X113133000Y-50227600D01*
X113130000Y-50220600D01*
X113127000Y-50212600D01*
X113125000Y-50205600D01*
X113123000Y-50197600D01*
X113122000Y-50189600D01*
X113121000Y-50182600D01*
X113120000Y-50174600D01*
X113120000Y-50166600D01*
X113120000Y-49366600D01*
X113420000Y-49366600D01*
X113420000Y-50166600D01*
G37*
X112920000Y-50166600D02*
X112920000Y-50174600D01*
X112919000Y-50182600D01*
X112918000Y-50189600D01*
X112917000Y-50197600D01*
X112915000Y-50205600D01*
X112913000Y-50212600D01*
X112910000Y-50220600D01*
X112907000Y-50227600D01*
X112904000Y-50234600D01*
X112900000Y-50241600D01*
X112896000Y-50248600D01*
X112891000Y-50254600D01*
X112887000Y-50260600D01*
X112881000Y-50266600D01*
X112876000Y-50272600D01*
X112870000Y-50277600D01*
X112864000Y-50283600D01*
X112858000Y-50287600D01*
X112852000Y-50292600D01*
X112845000Y-50296600D01*
X112838000Y-50300600D01*
X112831000Y-50303600D01*
X112824000Y-50306600D01*
X112816000Y-50309600D01*
X112809000Y-50311600D01*
X112801000Y-50313600D01*
X112793000Y-50314600D01*
X112786000Y-50315600D01*
X112778000Y-50316600D01*
X112770000Y-50316600D01*
X112762000Y-50316600D01*
X112754000Y-50315600D01*
X112747000Y-50314600D01*
X112739000Y-50313600D01*
X112731000Y-50311600D01*
X112724000Y-50309600D01*
X112716000Y-50306600D01*
X112709000Y-50303600D01*
X112702000Y-50300600D01*
X112695000Y-50296600D01*
X112688000Y-50292600D01*
X112682000Y-50287600D01*
X112676000Y-50283600D01*
X112670000Y-50277600D01*
X112664000Y-50272600D01*
X112659000Y-50266600D01*
X112653000Y-50260600D01*
X112649000Y-50254600D01*
X112644000Y-50248600D01*
X112640000Y-50241600D01*
X112636000Y-50234600D01*
X112633000Y-50227600D01*
X112630000Y-50220600D01*
X112627000Y-50212600D01*
X112625000Y-50205600D01*
X112623000Y-50197600D01*
X112622000Y-50189600D01*
X112621000Y-50182600D01*
X112620000Y-50174600D01*
X112620000Y-50166600D01*
X112620000Y-49366600D01*
X112920000Y-49366600D01*
X112920000Y-50166600D01*
G36*
X112920000Y-50166600D02*
G01*
X112920000Y-50174600D01*
X112919000Y-50182600D01*
X112918000Y-50189600D01*
X112917000Y-50197600D01*
X112915000Y-50205600D01*
X112913000Y-50212600D01*
X112910000Y-50220600D01*
X112907000Y-50227600D01*
X112904000Y-50234600D01*
X112900000Y-50241600D01*
X112896000Y-50248600D01*
X112891000Y-50254600D01*
X112887000Y-50260600D01*
X112881000Y-50266600D01*
X112876000Y-50272600D01*
X112870000Y-50277600D01*
X112864000Y-50283600D01*
X112858000Y-50287600D01*
X112852000Y-50292600D01*
X112845000Y-50296600D01*
X112838000Y-50300600D01*
X112831000Y-50303600D01*
X112824000Y-50306600D01*
X112816000Y-50309600D01*
X112809000Y-50311600D01*
X112801000Y-50313600D01*
X112793000Y-50314600D01*
X112786000Y-50315600D01*
X112778000Y-50316600D01*
X112770000Y-50316600D01*
X112762000Y-50316600D01*
X112754000Y-50315600D01*
X112747000Y-50314600D01*
X112739000Y-50313600D01*
X112731000Y-50311600D01*
X112724000Y-50309600D01*
X112716000Y-50306600D01*
X112709000Y-50303600D01*
X112702000Y-50300600D01*
X112695000Y-50296600D01*
X112688000Y-50292600D01*
X112682000Y-50287600D01*
X112676000Y-50283600D01*
X112670000Y-50277600D01*
X112664000Y-50272600D01*
X112659000Y-50266600D01*
X112653000Y-50260600D01*
X112649000Y-50254600D01*
X112644000Y-50248600D01*
X112640000Y-50241600D01*
X112636000Y-50234600D01*
X112633000Y-50227600D01*
X112630000Y-50220600D01*
X112627000Y-50212600D01*
X112625000Y-50205600D01*
X112623000Y-50197600D01*
X112622000Y-50189600D01*
X112621000Y-50182600D01*
X112620000Y-50174600D01*
X112620000Y-50166600D01*
X112620000Y-49366600D01*
X112920000Y-49366600D01*
X112920000Y-50166600D01*
G37*
X112420000Y-50166600D02*
X112420000Y-50174600D01*
X112419000Y-50182600D01*
X112418000Y-50189600D01*
X112417000Y-50197600D01*
X112415000Y-50205600D01*
X112413000Y-50212600D01*
X112410000Y-50220600D01*
X112407000Y-50227600D01*
X112404000Y-50234600D01*
X112400000Y-50241600D01*
X112396000Y-50248600D01*
X112391000Y-50254600D01*
X112387000Y-50260600D01*
X112381000Y-50266600D01*
X112376000Y-50272600D01*
X112370000Y-50277600D01*
X112364000Y-50283600D01*
X112358000Y-50287600D01*
X112352000Y-50292600D01*
X112345000Y-50296600D01*
X112338000Y-50300600D01*
X112331000Y-50303600D01*
X112324000Y-50306600D01*
X112316000Y-50309600D01*
X112309000Y-50311600D01*
X112301000Y-50313600D01*
X112293000Y-50314600D01*
X112286000Y-50315600D01*
X112278000Y-50316600D01*
X112270000Y-50316600D01*
X112262000Y-50316600D01*
X112254000Y-50315600D01*
X112247000Y-50314600D01*
X112239000Y-50313600D01*
X112231000Y-50311600D01*
X112224000Y-50309600D01*
X112216000Y-50306600D01*
X112209000Y-50303600D01*
X112202000Y-50300600D01*
X112195000Y-50296600D01*
X112188000Y-50292600D01*
X112182000Y-50287600D01*
X112176000Y-50283600D01*
X112170000Y-50277600D01*
X112164000Y-50272600D01*
X112159000Y-50266600D01*
X112153000Y-50260600D01*
X112149000Y-50254600D01*
X112144000Y-50248600D01*
X112140000Y-50241600D01*
X112136000Y-50234600D01*
X112133000Y-50227600D01*
X112130000Y-50220600D01*
X112127000Y-50212600D01*
X112125000Y-50205600D01*
X112123000Y-50197600D01*
X112122000Y-50189600D01*
X112121000Y-50182600D01*
X112120000Y-50174600D01*
X112120000Y-50166600D01*
X112120000Y-49366600D01*
X112420000Y-49366600D01*
X112420000Y-50166600D01*
G36*
X112420000Y-50166600D02*
G01*
X112420000Y-50174600D01*
X112419000Y-50182600D01*
X112418000Y-50189600D01*
X112417000Y-50197600D01*
X112415000Y-50205600D01*
X112413000Y-50212600D01*
X112410000Y-50220600D01*
X112407000Y-50227600D01*
X112404000Y-50234600D01*
X112400000Y-50241600D01*
X112396000Y-50248600D01*
X112391000Y-50254600D01*
X112387000Y-50260600D01*
X112381000Y-50266600D01*
X112376000Y-50272600D01*
X112370000Y-50277600D01*
X112364000Y-50283600D01*
X112358000Y-50287600D01*
X112352000Y-50292600D01*
X112345000Y-50296600D01*
X112338000Y-50300600D01*
X112331000Y-50303600D01*
X112324000Y-50306600D01*
X112316000Y-50309600D01*
X112309000Y-50311600D01*
X112301000Y-50313600D01*
X112293000Y-50314600D01*
X112286000Y-50315600D01*
X112278000Y-50316600D01*
X112270000Y-50316600D01*
X112262000Y-50316600D01*
X112254000Y-50315600D01*
X112247000Y-50314600D01*
X112239000Y-50313600D01*
X112231000Y-50311600D01*
X112224000Y-50309600D01*
X112216000Y-50306600D01*
X112209000Y-50303600D01*
X112202000Y-50300600D01*
X112195000Y-50296600D01*
X112188000Y-50292600D01*
X112182000Y-50287600D01*
X112176000Y-50283600D01*
X112170000Y-50277600D01*
X112164000Y-50272600D01*
X112159000Y-50266600D01*
X112153000Y-50260600D01*
X112149000Y-50254600D01*
X112144000Y-50248600D01*
X112140000Y-50241600D01*
X112136000Y-50234600D01*
X112133000Y-50227600D01*
X112130000Y-50220600D01*
X112127000Y-50212600D01*
X112125000Y-50205600D01*
X112123000Y-50197600D01*
X112122000Y-50189600D01*
X112121000Y-50182600D01*
X112120000Y-50174600D01*
X112120000Y-50166600D01*
X112120000Y-49366600D01*
X112420000Y-49366600D01*
X112420000Y-50166600D01*
G37*
X111711000Y-51092600D02*
X111718000Y-51093600D01*
X111726000Y-51094600D01*
X111734000Y-51096600D01*
X111741000Y-51098600D01*
X111749000Y-51101600D01*
X111756000Y-51104600D01*
X111763000Y-51107600D01*
X111770000Y-51111600D01*
X111777000Y-51115600D01*
X111783000Y-51120600D01*
X111789000Y-51124600D01*
X111795000Y-51130600D01*
X111801000Y-51135600D01*
X111806000Y-51141600D01*
X111812000Y-51147600D01*
X111816000Y-51153600D01*
X111821000Y-51159600D01*
X111825000Y-51166600D01*
X111829000Y-51173600D01*
X111832000Y-51180600D01*
X111835000Y-51187600D01*
X111838000Y-51195600D01*
X111840000Y-51202600D01*
X111842000Y-51210600D01*
X111843000Y-51218600D01*
X111844000Y-51225600D01*
X111845000Y-51233600D01*
X111845000Y-51241600D01*
X111845000Y-51249600D01*
X111844000Y-51257600D01*
X111843000Y-51264600D01*
X111842000Y-51272600D01*
X111840000Y-51280600D01*
X111838000Y-51287600D01*
X111835000Y-51295600D01*
X111832000Y-51302600D01*
X111829000Y-51309600D01*
X111825000Y-51316600D01*
X111821000Y-51323600D01*
X111816000Y-51329600D01*
X111812000Y-51335600D01*
X111806000Y-51341600D01*
X111801000Y-51347600D01*
X111795000Y-51352600D01*
X111789000Y-51358600D01*
X111783000Y-51362600D01*
X111777000Y-51367600D01*
X111770000Y-51371600D01*
X111763000Y-51375600D01*
X111756000Y-51378600D01*
X111749000Y-51381600D01*
X111741000Y-51384600D01*
X111734000Y-51386600D01*
X111726000Y-51388600D01*
X111718000Y-51389600D01*
X111711000Y-51390600D01*
X111703000Y-51391600D01*
X111695000Y-51391600D01*
X110895000Y-51391600D01*
X110895000Y-51091600D01*
X111695000Y-51091600D01*
X111703000Y-51091600D01*
X111711000Y-51092600D01*
G36*
X111711000Y-51092600D02*
G01*
X111718000Y-51093600D01*
X111726000Y-51094600D01*
X111734000Y-51096600D01*
X111741000Y-51098600D01*
X111749000Y-51101600D01*
X111756000Y-51104600D01*
X111763000Y-51107600D01*
X111770000Y-51111600D01*
X111777000Y-51115600D01*
X111783000Y-51120600D01*
X111789000Y-51124600D01*
X111795000Y-51130600D01*
X111801000Y-51135600D01*
X111806000Y-51141600D01*
X111812000Y-51147600D01*
X111816000Y-51153600D01*
X111821000Y-51159600D01*
X111825000Y-51166600D01*
X111829000Y-51173600D01*
X111832000Y-51180600D01*
X111835000Y-51187600D01*
X111838000Y-51195600D01*
X111840000Y-51202600D01*
X111842000Y-51210600D01*
X111843000Y-51218600D01*
X111844000Y-51225600D01*
X111845000Y-51233600D01*
X111845000Y-51241600D01*
X111845000Y-51249600D01*
X111844000Y-51257600D01*
X111843000Y-51264600D01*
X111842000Y-51272600D01*
X111840000Y-51280600D01*
X111838000Y-51287600D01*
X111835000Y-51295600D01*
X111832000Y-51302600D01*
X111829000Y-51309600D01*
X111825000Y-51316600D01*
X111821000Y-51323600D01*
X111816000Y-51329600D01*
X111812000Y-51335600D01*
X111806000Y-51341600D01*
X111801000Y-51347600D01*
X111795000Y-51352600D01*
X111789000Y-51358600D01*
X111783000Y-51362600D01*
X111777000Y-51367600D01*
X111770000Y-51371600D01*
X111763000Y-51375600D01*
X111756000Y-51378600D01*
X111749000Y-51381600D01*
X111741000Y-51384600D01*
X111734000Y-51386600D01*
X111726000Y-51388600D01*
X111718000Y-51389600D01*
X111711000Y-51390600D01*
X111703000Y-51391600D01*
X111695000Y-51391600D01*
X110895000Y-51391600D01*
X110895000Y-51091600D01*
X111695000Y-51091600D01*
X111703000Y-51091600D01*
X111711000Y-51092600D01*
G37*
X111711000Y-51592600D02*
X111718000Y-51593600D01*
X111726000Y-51594600D01*
X111734000Y-51596600D01*
X111741000Y-51598600D01*
X111749000Y-51601600D01*
X111756000Y-51604600D01*
X111763000Y-51607600D01*
X111770000Y-51611600D01*
X111777000Y-51615600D01*
X111783000Y-51620600D01*
X111789000Y-51624600D01*
X111795000Y-51630600D01*
X111801000Y-51635600D01*
X111806000Y-51641600D01*
X111812000Y-51647600D01*
X111816000Y-51653600D01*
X111821000Y-51659600D01*
X111825000Y-51666600D01*
X111829000Y-51673600D01*
X111832000Y-51680600D01*
X111835000Y-51687600D01*
X111838000Y-51695600D01*
X111840000Y-51702600D01*
X111842000Y-51710600D01*
X111843000Y-51718600D01*
X111844000Y-51725600D01*
X111845000Y-51733600D01*
X111845000Y-51741600D01*
X111845000Y-51749600D01*
X111844000Y-51757600D01*
X111843000Y-51764600D01*
X111842000Y-51772600D01*
X111840000Y-51780600D01*
X111838000Y-51787600D01*
X111835000Y-51795600D01*
X111832000Y-51802600D01*
X111829000Y-51809600D01*
X111825000Y-51816600D01*
X111821000Y-51823600D01*
X111816000Y-51829600D01*
X111812000Y-51835600D01*
X111806000Y-51841600D01*
X111801000Y-51847600D01*
X111795000Y-51852600D01*
X111789000Y-51858600D01*
X111783000Y-51862600D01*
X111777000Y-51867600D01*
X111770000Y-51871600D01*
X111763000Y-51875600D01*
X111756000Y-51878600D01*
X111749000Y-51881600D01*
X111741000Y-51884600D01*
X111734000Y-51886600D01*
X111726000Y-51888600D01*
X111718000Y-51889600D01*
X111711000Y-51890600D01*
X111703000Y-51891600D01*
X111695000Y-51891600D01*
X110895000Y-51891600D01*
X110895000Y-51591600D01*
X111695000Y-51591600D01*
X111703000Y-51591600D01*
X111711000Y-51592600D01*
G36*
X111711000Y-51592600D02*
G01*
X111718000Y-51593600D01*
X111726000Y-51594600D01*
X111734000Y-51596600D01*
X111741000Y-51598600D01*
X111749000Y-51601600D01*
X111756000Y-51604600D01*
X111763000Y-51607600D01*
X111770000Y-51611600D01*
X111777000Y-51615600D01*
X111783000Y-51620600D01*
X111789000Y-51624600D01*
X111795000Y-51630600D01*
X111801000Y-51635600D01*
X111806000Y-51641600D01*
X111812000Y-51647600D01*
X111816000Y-51653600D01*
X111821000Y-51659600D01*
X111825000Y-51666600D01*
X111829000Y-51673600D01*
X111832000Y-51680600D01*
X111835000Y-51687600D01*
X111838000Y-51695600D01*
X111840000Y-51702600D01*
X111842000Y-51710600D01*
X111843000Y-51718600D01*
X111844000Y-51725600D01*
X111845000Y-51733600D01*
X111845000Y-51741600D01*
X111845000Y-51749600D01*
X111844000Y-51757600D01*
X111843000Y-51764600D01*
X111842000Y-51772600D01*
X111840000Y-51780600D01*
X111838000Y-51787600D01*
X111835000Y-51795600D01*
X111832000Y-51802600D01*
X111829000Y-51809600D01*
X111825000Y-51816600D01*
X111821000Y-51823600D01*
X111816000Y-51829600D01*
X111812000Y-51835600D01*
X111806000Y-51841600D01*
X111801000Y-51847600D01*
X111795000Y-51852600D01*
X111789000Y-51858600D01*
X111783000Y-51862600D01*
X111777000Y-51867600D01*
X111770000Y-51871600D01*
X111763000Y-51875600D01*
X111756000Y-51878600D01*
X111749000Y-51881600D01*
X111741000Y-51884600D01*
X111734000Y-51886600D01*
X111726000Y-51888600D01*
X111718000Y-51889600D01*
X111711000Y-51890600D01*
X111703000Y-51891600D01*
X111695000Y-51891600D01*
X110895000Y-51891600D01*
X110895000Y-51591600D01*
X111695000Y-51591600D01*
X111703000Y-51591600D01*
X111711000Y-51592600D01*
G37*
X111711000Y-52092600D02*
X111718000Y-52093600D01*
X111726000Y-52094600D01*
X111734000Y-52096600D01*
X111741000Y-52098600D01*
X111749000Y-52101600D01*
X111756000Y-52104600D01*
X111763000Y-52107600D01*
X111770000Y-52111600D01*
X111777000Y-52115600D01*
X111783000Y-52120600D01*
X111789000Y-52124600D01*
X111795000Y-52130600D01*
X111801000Y-52135600D01*
X111806000Y-52141600D01*
X111812000Y-52147600D01*
X111816000Y-52153600D01*
X111821000Y-52159600D01*
X111825000Y-52166600D01*
X111829000Y-52173600D01*
X111832000Y-52180600D01*
X111835000Y-52187600D01*
X111838000Y-52195600D01*
X111840000Y-52202600D01*
X111842000Y-52210600D01*
X111843000Y-52218600D01*
X111844000Y-52225600D01*
X111845000Y-52233600D01*
X111845000Y-52241600D01*
X111845000Y-52249600D01*
X111844000Y-52257600D01*
X111843000Y-52264600D01*
X111842000Y-52272600D01*
X111840000Y-52280600D01*
X111838000Y-52287600D01*
X111835000Y-52295600D01*
X111832000Y-52302600D01*
X111829000Y-52309600D01*
X111825000Y-52316600D01*
X111821000Y-52323600D01*
X111816000Y-52329600D01*
X111812000Y-52335600D01*
X111806000Y-52341600D01*
X111801000Y-52347600D01*
X111795000Y-52352600D01*
X111789000Y-52358600D01*
X111783000Y-52362600D01*
X111777000Y-52367600D01*
X111770000Y-52371600D01*
X111763000Y-52375600D01*
X111756000Y-52378600D01*
X111749000Y-52381600D01*
X111741000Y-52384600D01*
X111734000Y-52386600D01*
X111726000Y-52388600D01*
X111718000Y-52389600D01*
X111711000Y-52390600D01*
X111703000Y-52391600D01*
X111695000Y-52391600D01*
X110895000Y-52391600D01*
X110895000Y-52091600D01*
X111695000Y-52091600D01*
X111703000Y-52091600D01*
X111711000Y-52092600D01*
G36*
X111711000Y-52092600D02*
G01*
X111718000Y-52093600D01*
X111726000Y-52094600D01*
X111734000Y-52096600D01*
X111741000Y-52098600D01*
X111749000Y-52101600D01*
X111756000Y-52104600D01*
X111763000Y-52107600D01*
X111770000Y-52111600D01*
X111777000Y-52115600D01*
X111783000Y-52120600D01*
X111789000Y-52124600D01*
X111795000Y-52130600D01*
X111801000Y-52135600D01*
X111806000Y-52141600D01*
X111812000Y-52147600D01*
X111816000Y-52153600D01*
X111821000Y-52159600D01*
X111825000Y-52166600D01*
X111829000Y-52173600D01*
X111832000Y-52180600D01*
X111835000Y-52187600D01*
X111838000Y-52195600D01*
X111840000Y-52202600D01*
X111842000Y-52210600D01*
X111843000Y-52218600D01*
X111844000Y-52225600D01*
X111845000Y-52233600D01*
X111845000Y-52241600D01*
X111845000Y-52249600D01*
X111844000Y-52257600D01*
X111843000Y-52264600D01*
X111842000Y-52272600D01*
X111840000Y-52280600D01*
X111838000Y-52287600D01*
X111835000Y-52295600D01*
X111832000Y-52302600D01*
X111829000Y-52309600D01*
X111825000Y-52316600D01*
X111821000Y-52323600D01*
X111816000Y-52329600D01*
X111812000Y-52335600D01*
X111806000Y-52341600D01*
X111801000Y-52347600D01*
X111795000Y-52352600D01*
X111789000Y-52358600D01*
X111783000Y-52362600D01*
X111777000Y-52367600D01*
X111770000Y-52371600D01*
X111763000Y-52375600D01*
X111756000Y-52378600D01*
X111749000Y-52381600D01*
X111741000Y-52384600D01*
X111734000Y-52386600D01*
X111726000Y-52388600D01*
X111718000Y-52389600D01*
X111711000Y-52390600D01*
X111703000Y-52391600D01*
X111695000Y-52391600D01*
X110895000Y-52391600D01*
X110895000Y-52091600D01*
X111695000Y-52091600D01*
X111703000Y-52091600D01*
X111711000Y-52092600D01*
G37*
X111711000Y-52592600D02*
X111718000Y-52593600D01*
X111726000Y-52594600D01*
X111734000Y-52596600D01*
X111741000Y-52598600D01*
X111749000Y-52601600D01*
X111756000Y-52604600D01*
X111763000Y-52607600D01*
X111770000Y-52611600D01*
X111777000Y-52615600D01*
X111783000Y-52620600D01*
X111789000Y-52624600D01*
X111795000Y-52630600D01*
X111801000Y-52635600D01*
X111806000Y-52641600D01*
X111812000Y-52647600D01*
X111816000Y-52653600D01*
X111821000Y-52659600D01*
X111825000Y-52666600D01*
X111829000Y-52673600D01*
X111832000Y-52680600D01*
X111835000Y-52687600D01*
X111838000Y-52695600D01*
X111840000Y-52702600D01*
X111842000Y-52710600D01*
X111843000Y-52718600D01*
X111844000Y-52725600D01*
X111845000Y-52733600D01*
X111845000Y-52741600D01*
X111845000Y-52749600D01*
X111844000Y-52757600D01*
X111843000Y-52764600D01*
X111842000Y-52772600D01*
X111840000Y-52780600D01*
X111838000Y-52787600D01*
X111835000Y-52795600D01*
X111832000Y-52802600D01*
X111829000Y-52809600D01*
X111825000Y-52816600D01*
X111821000Y-52823600D01*
X111816000Y-52829600D01*
X111812000Y-52835600D01*
X111806000Y-52841600D01*
X111801000Y-52847600D01*
X111795000Y-52852600D01*
X111789000Y-52858600D01*
X111783000Y-52862600D01*
X111777000Y-52867600D01*
X111770000Y-52871600D01*
X111763000Y-52875600D01*
X111756000Y-52878600D01*
X111749000Y-52881600D01*
X111741000Y-52884600D01*
X111734000Y-52886600D01*
X111726000Y-52888600D01*
X111718000Y-52889600D01*
X111711000Y-52890600D01*
X111703000Y-52891600D01*
X111695000Y-52891600D01*
X110895000Y-52891600D01*
X110895000Y-52591600D01*
X111695000Y-52591600D01*
X111703000Y-52591600D01*
X111711000Y-52592600D01*
G36*
X111711000Y-52592600D02*
G01*
X111718000Y-52593600D01*
X111726000Y-52594600D01*
X111734000Y-52596600D01*
X111741000Y-52598600D01*
X111749000Y-52601600D01*
X111756000Y-52604600D01*
X111763000Y-52607600D01*
X111770000Y-52611600D01*
X111777000Y-52615600D01*
X111783000Y-52620600D01*
X111789000Y-52624600D01*
X111795000Y-52630600D01*
X111801000Y-52635600D01*
X111806000Y-52641600D01*
X111812000Y-52647600D01*
X111816000Y-52653600D01*
X111821000Y-52659600D01*
X111825000Y-52666600D01*
X111829000Y-52673600D01*
X111832000Y-52680600D01*
X111835000Y-52687600D01*
X111838000Y-52695600D01*
X111840000Y-52702600D01*
X111842000Y-52710600D01*
X111843000Y-52718600D01*
X111844000Y-52725600D01*
X111845000Y-52733600D01*
X111845000Y-52741600D01*
X111845000Y-52749600D01*
X111844000Y-52757600D01*
X111843000Y-52764600D01*
X111842000Y-52772600D01*
X111840000Y-52780600D01*
X111838000Y-52787600D01*
X111835000Y-52795600D01*
X111832000Y-52802600D01*
X111829000Y-52809600D01*
X111825000Y-52816600D01*
X111821000Y-52823600D01*
X111816000Y-52829600D01*
X111812000Y-52835600D01*
X111806000Y-52841600D01*
X111801000Y-52847600D01*
X111795000Y-52852600D01*
X111789000Y-52858600D01*
X111783000Y-52862600D01*
X111777000Y-52867600D01*
X111770000Y-52871600D01*
X111763000Y-52875600D01*
X111756000Y-52878600D01*
X111749000Y-52881600D01*
X111741000Y-52884600D01*
X111734000Y-52886600D01*
X111726000Y-52888600D01*
X111718000Y-52889600D01*
X111711000Y-52890600D01*
X111703000Y-52891600D01*
X111695000Y-52891600D01*
X110895000Y-52891600D01*
X110895000Y-52591600D01*
X111695000Y-52591600D01*
X111703000Y-52591600D01*
X111711000Y-52592600D01*
G37*
X111711000Y-53092600D02*
X111718000Y-53093600D01*
X111726000Y-53094600D01*
X111734000Y-53096600D01*
X111741000Y-53098600D01*
X111749000Y-53101600D01*
X111756000Y-53104600D01*
X111763000Y-53107600D01*
X111770000Y-53111600D01*
X111777000Y-53115600D01*
X111783000Y-53120600D01*
X111789000Y-53124600D01*
X111795000Y-53130600D01*
X111801000Y-53135600D01*
X111806000Y-53141600D01*
X111812000Y-53147600D01*
X111816000Y-53153600D01*
X111821000Y-53159600D01*
X111825000Y-53166600D01*
X111829000Y-53173600D01*
X111832000Y-53180600D01*
X111835000Y-53187600D01*
X111838000Y-53195600D01*
X111840000Y-53202600D01*
X111842000Y-53210600D01*
X111843000Y-53218600D01*
X111844000Y-53225600D01*
X111845000Y-53233600D01*
X111845000Y-53241600D01*
X111845000Y-53249600D01*
X111844000Y-53257600D01*
X111843000Y-53264600D01*
X111842000Y-53272600D01*
X111840000Y-53280600D01*
X111838000Y-53287600D01*
X111835000Y-53295600D01*
X111832000Y-53302600D01*
X111829000Y-53309600D01*
X111825000Y-53316600D01*
X111821000Y-53323600D01*
X111816000Y-53329600D01*
X111812000Y-53335600D01*
X111806000Y-53341600D01*
X111801000Y-53347600D01*
X111795000Y-53352600D01*
X111789000Y-53358600D01*
X111783000Y-53362600D01*
X111777000Y-53367600D01*
X111770000Y-53371600D01*
X111763000Y-53375600D01*
X111756000Y-53378600D01*
X111749000Y-53381600D01*
X111741000Y-53384600D01*
X111734000Y-53386600D01*
X111726000Y-53388600D01*
X111718000Y-53389600D01*
X111711000Y-53390600D01*
X111703000Y-53391600D01*
X111695000Y-53391600D01*
X110895000Y-53391600D01*
X110895000Y-53091600D01*
X111695000Y-53091600D01*
X111703000Y-53091600D01*
X111711000Y-53092600D01*
G36*
X111711000Y-53092600D02*
G01*
X111718000Y-53093600D01*
X111726000Y-53094600D01*
X111734000Y-53096600D01*
X111741000Y-53098600D01*
X111749000Y-53101600D01*
X111756000Y-53104600D01*
X111763000Y-53107600D01*
X111770000Y-53111600D01*
X111777000Y-53115600D01*
X111783000Y-53120600D01*
X111789000Y-53124600D01*
X111795000Y-53130600D01*
X111801000Y-53135600D01*
X111806000Y-53141600D01*
X111812000Y-53147600D01*
X111816000Y-53153600D01*
X111821000Y-53159600D01*
X111825000Y-53166600D01*
X111829000Y-53173600D01*
X111832000Y-53180600D01*
X111835000Y-53187600D01*
X111838000Y-53195600D01*
X111840000Y-53202600D01*
X111842000Y-53210600D01*
X111843000Y-53218600D01*
X111844000Y-53225600D01*
X111845000Y-53233600D01*
X111845000Y-53241600D01*
X111845000Y-53249600D01*
X111844000Y-53257600D01*
X111843000Y-53264600D01*
X111842000Y-53272600D01*
X111840000Y-53280600D01*
X111838000Y-53287600D01*
X111835000Y-53295600D01*
X111832000Y-53302600D01*
X111829000Y-53309600D01*
X111825000Y-53316600D01*
X111821000Y-53323600D01*
X111816000Y-53329600D01*
X111812000Y-53335600D01*
X111806000Y-53341600D01*
X111801000Y-53347600D01*
X111795000Y-53352600D01*
X111789000Y-53358600D01*
X111783000Y-53362600D01*
X111777000Y-53367600D01*
X111770000Y-53371600D01*
X111763000Y-53375600D01*
X111756000Y-53378600D01*
X111749000Y-53381600D01*
X111741000Y-53384600D01*
X111734000Y-53386600D01*
X111726000Y-53388600D01*
X111718000Y-53389600D01*
X111711000Y-53390600D01*
X111703000Y-53391600D01*
X111695000Y-53391600D01*
X110895000Y-53391600D01*
X110895000Y-53091600D01*
X111695000Y-53091600D01*
X111703000Y-53091600D01*
X111711000Y-53092600D01*
G37*
X111711000Y-53592600D02*
X111718000Y-53593600D01*
X111726000Y-53594600D01*
X111734000Y-53596600D01*
X111741000Y-53598600D01*
X111749000Y-53601600D01*
X111756000Y-53604600D01*
X111763000Y-53607600D01*
X111770000Y-53611600D01*
X111777000Y-53615600D01*
X111783000Y-53620600D01*
X111789000Y-53624600D01*
X111795000Y-53630600D01*
X111801000Y-53635600D01*
X111806000Y-53641600D01*
X111812000Y-53647600D01*
X111816000Y-53653600D01*
X111821000Y-53659600D01*
X111825000Y-53666600D01*
X111829000Y-53673600D01*
X111832000Y-53680600D01*
X111835000Y-53687600D01*
X111838000Y-53695600D01*
X111840000Y-53702600D01*
X111842000Y-53710600D01*
X111843000Y-53718600D01*
X111844000Y-53725600D01*
X111845000Y-53733600D01*
X111845000Y-53741600D01*
X111845000Y-53749600D01*
X111844000Y-53757600D01*
X111843000Y-53764600D01*
X111842000Y-53772600D01*
X111840000Y-53780600D01*
X111838000Y-53787600D01*
X111835000Y-53795600D01*
X111832000Y-53802600D01*
X111829000Y-53809600D01*
X111825000Y-53816600D01*
X111821000Y-53823600D01*
X111816000Y-53829600D01*
X111812000Y-53835600D01*
X111806000Y-53841600D01*
X111801000Y-53847600D01*
X111795000Y-53852600D01*
X111789000Y-53858600D01*
X111783000Y-53862600D01*
X111777000Y-53867600D01*
X111770000Y-53871600D01*
X111763000Y-53875600D01*
X111756000Y-53878600D01*
X111749000Y-53881600D01*
X111741000Y-53884600D01*
X111734000Y-53886600D01*
X111726000Y-53888600D01*
X111718000Y-53889600D01*
X111711000Y-53890600D01*
X111703000Y-53891600D01*
X111695000Y-53891600D01*
X110895000Y-53891600D01*
X110895000Y-53591600D01*
X111695000Y-53591600D01*
X111703000Y-53591600D01*
X111711000Y-53592600D01*
G36*
X111711000Y-53592600D02*
G01*
X111718000Y-53593600D01*
X111726000Y-53594600D01*
X111734000Y-53596600D01*
X111741000Y-53598600D01*
X111749000Y-53601600D01*
X111756000Y-53604600D01*
X111763000Y-53607600D01*
X111770000Y-53611600D01*
X111777000Y-53615600D01*
X111783000Y-53620600D01*
X111789000Y-53624600D01*
X111795000Y-53630600D01*
X111801000Y-53635600D01*
X111806000Y-53641600D01*
X111812000Y-53647600D01*
X111816000Y-53653600D01*
X111821000Y-53659600D01*
X111825000Y-53666600D01*
X111829000Y-53673600D01*
X111832000Y-53680600D01*
X111835000Y-53687600D01*
X111838000Y-53695600D01*
X111840000Y-53702600D01*
X111842000Y-53710600D01*
X111843000Y-53718600D01*
X111844000Y-53725600D01*
X111845000Y-53733600D01*
X111845000Y-53741600D01*
X111845000Y-53749600D01*
X111844000Y-53757600D01*
X111843000Y-53764600D01*
X111842000Y-53772600D01*
X111840000Y-53780600D01*
X111838000Y-53787600D01*
X111835000Y-53795600D01*
X111832000Y-53802600D01*
X111829000Y-53809600D01*
X111825000Y-53816600D01*
X111821000Y-53823600D01*
X111816000Y-53829600D01*
X111812000Y-53835600D01*
X111806000Y-53841600D01*
X111801000Y-53847600D01*
X111795000Y-53852600D01*
X111789000Y-53858600D01*
X111783000Y-53862600D01*
X111777000Y-53867600D01*
X111770000Y-53871600D01*
X111763000Y-53875600D01*
X111756000Y-53878600D01*
X111749000Y-53881600D01*
X111741000Y-53884600D01*
X111734000Y-53886600D01*
X111726000Y-53888600D01*
X111718000Y-53889600D01*
X111711000Y-53890600D01*
X111703000Y-53891600D01*
X111695000Y-53891600D01*
X110895000Y-53891600D01*
X110895000Y-53591600D01*
X111695000Y-53591600D01*
X111703000Y-53591600D01*
X111711000Y-53592600D01*
G37*
X114829360Y-53300960D02*
X112710640Y-53300960D01*
X112710640Y-51182240D01*
X114829360Y-51182240D01*
X114829360Y-53300960D01*
G36*
X114829360Y-53300960D02*
G01*
X112710640Y-53300960D01*
X112710640Y-51182240D01*
X114829360Y-51182240D01*
X114829360Y-53300960D01*
G37*
%TD*%
D11*
%TO.C,D3*%
X105335800Y-65735200D03*
X108635800Y-65735200D03*
%TD*%
D12*
%TO.C,C10*%
X127213400Y-64846200D03*
X125313400Y-64846200D03*
%TD*%
%TO.C,C9*%
X107299800Y-62306200D03*
X105399800Y-62306200D03*
%TD*%
%TO.C,C2*%
X112583000Y-60985400D03*
X110683000Y-60985400D03*
%TD*%
D13*
%TO.C,C1*%
X117332800Y-61010800D03*
X115432800Y-61010800D03*
%TD*%
%TO.C,C3*%
X117308000Y-58869600D03*
X115408000Y-58869600D03*
%TD*%
D14*
%TO.C,C4*%
X119218000Y-55943600D03*
X119218000Y-54043600D03*
%TD*%
D15*
%TO.C,C6*%
X103295000Y-48458600D03*
X103295000Y-46558600D03*
%TD*%
D12*
%TO.C,C7*%
X105070000Y-42633600D03*
X106970000Y-42633600D03*
%TD*%
D15*
%TO.C,C8*%
X123596400Y-44391600D03*
X123596400Y-42491600D03*
%TD*%
D14*
%TO.C,C11*%
X107470000Y-46558600D03*
X107470000Y-48458600D03*
%TD*%
D12*
%TO.C,C12*%
X103028000Y-50283600D03*
X104928000Y-50283600D03*
%TD*%
D15*
%TO.C,C13*%
X105370000Y-48458600D03*
X105370000Y-46558600D03*
%TD*%
D12*
%TO.C,C14*%
X105057500Y-44677350D03*
X106957500Y-44677350D03*
%TD*%
D16*
%TO.C,J1*%
X110463900Y-68281500D03*
X116863900Y-68281500D03*
X111263900Y-68281500D03*
X116063900Y-68281500D03*
D17*
X113913900Y-68281500D03*
X113413900Y-68281500D03*
X114413900Y-68281500D03*
X114913900Y-68281500D03*
X115413900Y-68281500D03*
X112913900Y-68281500D03*
X112413900Y-68281500D03*
X111913900Y-68281500D03*
%TD*%
D18*
%TO.C,R1*%
X117602000Y-63324100D03*
X117602000Y-65149100D03*
%TD*%
%TO.C,R2*%
X110464600Y-63298700D03*
X110464600Y-65123700D03*
%TD*%
D19*
%TO.C,R10*%
X121349700Y-51097200D03*
X119524700Y-51097200D03*
%TD*%
D18*
%TO.C,R12*%
X119218000Y-57957100D03*
X119218000Y-59782100D03*
%TD*%
D20*
%TO.C,SW1*%
X107238800Y-68529200D03*
X103538800Y-74729200D03*
X103538800Y-68529200D03*
X107238800Y-74729200D03*
%TD*%
%TO.C,SW2*%
X127935600Y-68197800D03*
X124235600Y-74397800D03*
X124235600Y-68197800D03*
X127935600Y-74397800D03*
%TD*%
D21*
%TO.C,U1*%
X105410000Y-27533600D03*
X105410000Y-29033600D03*
X105410000Y-30533600D03*
X105410000Y-32033600D03*
X105410000Y-33533600D03*
X105410000Y-35033600D03*
X105410000Y-36533600D03*
X105410000Y-38033600D03*
X105410000Y-39533600D03*
X122910000Y-39533600D03*
X122910000Y-38033600D03*
X122910000Y-36533600D03*
X122910000Y-35033600D03*
X122910000Y-33533600D03*
X122910000Y-32033600D03*
X122910000Y-30533600D03*
X122910000Y-29033600D03*
X122910000Y-27533600D03*
D22*
X115120000Y-33733600D03*
X116220000Y-33733600D03*
X114020000Y-33733600D03*
X114020000Y-32633600D03*
X115120000Y-32633600D03*
X116220000Y-32633600D03*
X116220000Y-34833600D03*
X115120000Y-34833600D03*
X114020000Y-34833600D03*
%TD*%
D23*
%TO.C,U3*%
X110175000Y-42843600D03*
X110175000Y-45133600D03*
X110175000Y-47423600D03*
D24*
X116865000Y-45133600D03*
%TD*%
D19*
%TO.C,R16*%
X121182500Y-42608600D03*
X119357500Y-42608600D03*
%TD*%
D25*
%TO.C,R15*%
X119425000Y-44645600D03*
X121250000Y-44645600D03*
%TD*%
D19*
%TO.C,R14*%
X121400500Y-48963600D03*
X119575500Y-48963600D03*
%TD*%
%TO.C,R13*%
X121400500Y-46931600D03*
X119575500Y-46931600D03*
%TD*%
D26*
%TO.C,R11*%
X121504000Y-54081100D03*
X121504000Y-55906100D03*
%TD*%
%TO.C,R9*%
X123790000Y-54096300D03*
X123790000Y-55921300D03*
%TD*%
D18*
%TO.C,R8*%
X115468400Y-65149100D03*
X115468400Y-63324100D03*
%TD*%
%TO.C,R7*%
X112572800Y-65125600D03*
X112572800Y-63300600D03*
%TD*%
D27*
%TO.C,Q2*%
X103724000Y-54805600D03*
X102835000Y-52773600D03*
X104613000Y-52773600D03*
%TD*%
%TO.C,Q1*%
X107026000Y-54805600D03*
X106137000Y-52773600D03*
X107915000Y-52773600D03*
%TD*%
D28*
%TO.C,D10*%
X147015200Y-53340000D03*
X147015200Y-50040000D03*
%TD*%
%TO.C,D9*%
X127660400Y-56692800D03*
X127660400Y-53392800D03*
%TD*%
%TO.C,D8*%
X146812000Y-35560000D03*
X146812000Y-32260000D03*
%TD*%
%TO.C,D6*%
X128219200Y-35509200D03*
X128219200Y-32209200D03*
%TD*%
D12*
%TO.C,C5*%
X117308000Y-56583600D03*
X115408000Y-56583600D03*
%TD*%
M02*
