%TF.GenerationSoftware,KiCad,Pcbnew,9.0.6*%
%TF.CreationDate,2026-08-04T16:10:33-04:00*%
%TF.ProjectId,PCB_Related,5043425f-5265-46c6-9174-65642e6b6963,rev?*%
%TF.SameCoordinates,Original*%
%TF.FileFunction,Copper,L3,Inr*%
%TF.FilePolarity,Positive*%
%FSLAX46Y46*%
G04 Gerber Fmt 4.6, Leading zero omitted, Abs format (unit mm)*
G04 Created by KiCad (PCBNEW 9.0.6) date 2026-08-04 16:10:33*
%MOMM*%
%LPD*%
G01*
G04 APERTURE LIST*
%TA.AperFunction,ComponentPad*%
%ADD10O,1.000000X1.800000*%
%TD*%
%TA.AperFunction,ComponentPad*%
%ADD11O,1.000000X2.100000*%
%TD*%
%TA.AperFunction,ComponentPad*%
%ADD12C,2.324100*%
%TD*%
%TA.AperFunction,ComponentPad*%
%ADD13C,0.350000*%
%TD*%
%TA.AperFunction,ViaPad*%
%ADD14C,0.600000*%
%TD*%
G04 APERTURE END LIST*
D10*
%TO.N,GND*%
%TO.C,J1*%
X109343900Y-73036500D03*
X117983900Y-73036500D03*
D11*
X109343900Y-68856500D03*
X117983900Y-68856500D03*
%TD*%
D12*
%TO.N,Net-(D6-A)*%
%TO.C,S1*%
X133646800Y-30043400D03*
%TO.N,COL0*%
X139996800Y-27503400D03*
%TD*%
%TO.N,Net-(D8-A)*%
%TO.C,S2*%
X152603200Y-29972400D03*
%TO.N,COL1*%
X158953200Y-27432400D03*
%TD*%
%TO.N,Net-(D9-A)*%
%TO.C,S3*%
X133553200Y-47067200D03*
%TO.N,COL0*%
X139903200Y-44527200D03*
%TD*%
%TO.N,Net-(D10-A)*%
%TO.C,S4*%
X152603200Y-47118000D03*
%TO.N,COL1*%
X158953200Y-44578000D03*
%TD*%
D13*
%TO.N,N/C*%
%TO.C,U1*%
X115670000Y-32633600D03*
X116220000Y-33183600D03*
X116220000Y-34283600D03*
X114570000Y-32633600D03*
%TO.N,GND*%
X115670000Y-33733600D03*
%TO.N,N/C*%
X115120000Y-33183600D03*
X114020000Y-33183600D03*
%TO.N,GND*%
X114570000Y-33733600D03*
%TO.N,N/C*%
X115670000Y-34833600D03*
X114570000Y-34833600D03*
%TO.N,GND*%
X115120000Y-34283600D03*
%TO.N,N/C*%
X114020000Y-34283600D03*
%TD*%
D14*
%TO.N,GND*%
X113770000Y-52241600D03*
X113665000Y-47117000D03*
%TO.N,+3V3*%
X106107500Y-49821100D03*
X106737800Y-40647000D03*
X107772200Y-28067000D03*
%TO.N,GPIO8*%
X122351800Y-42418000D03*
X107365800Y-36423600D03*
%TO.N,GPIO9*%
X104063800Y-38049200D03*
X103835200Y-62001400D03*
X127025400Y-62763400D03*
%TO.N,VBUS*%
X117505871Y-66782071D03*
X110667800Y-67005200D03*
%TO.N,DN1*%
X113913900Y-66703600D03*
X112655000Y-67106800D03*
%TO.N,+3V3*%
X122619700Y-57091600D03*
X115560400Y-57802800D03*
%TO.N,Net-(U2-TXD)*%
X109811667Y-52995088D03*
X110575147Y-49471600D03*
%TO.N,Net-(U2-RXD)*%
X109839000Y-52268600D03*
X109839000Y-48963600D03*
%TO.N,CHIP_PU*%
X109820000Y-41597600D03*
X108042000Y-53789600D03*
%TO.N,RTS*%
X108550000Y-51757600D03*
X107015954Y-52030600D03*
%TD*%
M02*
