%TF.GenerationSoftware,KiCad,Pcbnew,9.0.6*%
%TF.CreationDate,2026-08-04T16:10:33-04:00*%
%TF.ProjectId,PCB_Related,5043425f-5265-46c6-9174-65642e6b6963,rev?*%
%TF.SameCoordinates,Original*%
%TF.FileFunction,Soldermask,Bot*%
%TF.FilePolarity,Negative*%
%FSLAX46Y46*%
G04 Gerber Fmt 4.6, Leading zero omitted, Abs format (unit mm)*
G04 Created by KiCad (PCBNEW 9.0.6) date 2026-08-04 16:10:33*
%MOMM*%
%LPD*%
G01*
G04 APERTURE LIST*
G04 APERTURE END LIST*
G36*
X109412743Y-72039650D02*
G01*
X109422477Y-72039650D01*
X109450514Y-72047162D01*
X109518564Y-72060698D01*
X109550690Y-72074005D01*
X109574275Y-72080325D01*
X109595421Y-72092533D01*
X109627545Y-72105840D01*
X109685235Y-72144387D01*
X109710374Y-72158901D01*
X109717255Y-72165782D01*
X109725618Y-72171370D01*
X109809029Y-72254781D01*
X109814616Y-72263143D01*
X109821499Y-72270026D01*
X109836014Y-72295167D01*
X109874559Y-72352854D01*
X109887864Y-72384974D01*
X109900075Y-72406125D01*
X109906395Y-72429713D01*
X109919701Y-72461835D01*
X109933235Y-72529880D01*
X109940750Y-72557923D01*
X109941701Y-72572440D01*
X109943001Y-72578974D01*
X109945609Y-72632074D01*
X109945900Y-72636500D01*
X109945900Y-73436500D01*
X109945609Y-73440928D01*
X109943001Y-73494025D01*
X109941701Y-73500557D01*
X109940750Y-73515077D01*
X109933235Y-73543122D01*
X109919701Y-73611164D01*
X109906396Y-73643283D01*
X109900075Y-73666875D01*
X109887862Y-73688027D01*
X109874559Y-73720145D01*
X109836018Y-73777824D01*
X109821499Y-73802974D01*
X109814614Y-73809858D01*
X109809029Y-73818218D01*
X109725618Y-73901629D01*
X109717258Y-73907214D01*
X109710374Y-73914099D01*
X109685224Y-73928618D01*
X109627545Y-73967159D01*
X109595427Y-73980462D01*
X109574275Y-73992675D01*
X109550683Y-73998996D01*
X109518564Y-74012301D01*
X109450520Y-74025835D01*
X109422477Y-74033350D01*
X109412743Y-74033350D01*
X109402879Y-74035312D01*
X109284921Y-74035312D01*
X109275057Y-74033350D01*
X109265323Y-74033350D01*
X109237280Y-74025835D01*
X109169235Y-74012301D01*
X109137113Y-73998995D01*
X109113525Y-73992675D01*
X109092374Y-73980464D01*
X109060254Y-73967159D01*
X109002567Y-73928614D01*
X108977426Y-73914099D01*
X108970543Y-73907216D01*
X108962181Y-73901629D01*
X108878770Y-73818218D01*
X108873182Y-73809855D01*
X108866301Y-73802974D01*
X108851787Y-73777835D01*
X108813240Y-73720145D01*
X108799933Y-73688021D01*
X108787725Y-73666875D01*
X108781405Y-73643290D01*
X108768098Y-73611164D01*
X108754561Y-73543108D01*
X108747050Y-73515077D01*
X108746098Y-73500565D01*
X108744798Y-73494025D01*
X108742189Y-73440922D01*
X108741900Y-73436500D01*
X108741900Y-72636500D01*
X108742189Y-72632080D01*
X108744798Y-72578974D01*
X108746098Y-72572433D01*
X108747050Y-72557923D01*
X108754560Y-72529894D01*
X108768098Y-72461835D01*
X108781406Y-72429706D01*
X108787725Y-72406125D01*
X108799932Y-72384980D01*
X108813240Y-72352854D01*
X108851791Y-72295156D01*
X108866301Y-72270026D01*
X108873180Y-72263146D01*
X108878770Y-72254781D01*
X108962181Y-72171370D01*
X108970546Y-72165780D01*
X108977426Y-72158901D01*
X109002556Y-72144391D01*
X109060254Y-72105840D01*
X109092380Y-72092532D01*
X109113525Y-72080325D01*
X109137106Y-72074006D01*
X109169235Y-72060698D01*
X109237286Y-72047162D01*
X109265323Y-72039650D01*
X109275057Y-72039650D01*
X109284921Y-72037688D01*
X109402879Y-72037688D01*
X109412743Y-72039650D01*
G37*
G36*
X118052743Y-72039650D02*
G01*
X118062477Y-72039650D01*
X118090514Y-72047162D01*
X118158564Y-72060698D01*
X118190690Y-72074005D01*
X118214275Y-72080325D01*
X118235421Y-72092533D01*
X118267545Y-72105840D01*
X118325235Y-72144387D01*
X118350374Y-72158901D01*
X118357255Y-72165782D01*
X118365618Y-72171370D01*
X118449029Y-72254781D01*
X118454616Y-72263143D01*
X118461499Y-72270026D01*
X118476014Y-72295167D01*
X118514559Y-72352854D01*
X118527864Y-72384974D01*
X118540075Y-72406125D01*
X118546395Y-72429713D01*
X118559701Y-72461835D01*
X118573235Y-72529880D01*
X118580750Y-72557923D01*
X118581701Y-72572440D01*
X118583001Y-72578974D01*
X118585609Y-72632074D01*
X118585900Y-72636500D01*
X118585900Y-73436500D01*
X118585609Y-73440928D01*
X118583001Y-73494025D01*
X118581701Y-73500557D01*
X118580750Y-73515077D01*
X118573235Y-73543122D01*
X118559701Y-73611164D01*
X118546396Y-73643283D01*
X118540075Y-73666875D01*
X118527862Y-73688027D01*
X118514559Y-73720145D01*
X118476018Y-73777824D01*
X118461499Y-73802974D01*
X118454614Y-73809858D01*
X118449029Y-73818218D01*
X118365618Y-73901629D01*
X118357258Y-73907214D01*
X118350374Y-73914099D01*
X118325224Y-73928618D01*
X118267545Y-73967159D01*
X118235427Y-73980462D01*
X118214275Y-73992675D01*
X118190683Y-73998996D01*
X118158564Y-74012301D01*
X118090520Y-74025835D01*
X118062477Y-74033350D01*
X118052743Y-74033350D01*
X118042879Y-74035312D01*
X117924921Y-74035312D01*
X117915057Y-74033350D01*
X117905323Y-74033350D01*
X117877280Y-74025835D01*
X117809235Y-74012301D01*
X117777113Y-73998995D01*
X117753525Y-73992675D01*
X117732374Y-73980464D01*
X117700254Y-73967159D01*
X117642567Y-73928614D01*
X117617426Y-73914099D01*
X117610543Y-73907216D01*
X117602181Y-73901629D01*
X117518770Y-73818218D01*
X117513182Y-73809855D01*
X117506301Y-73802974D01*
X117491787Y-73777835D01*
X117453240Y-73720145D01*
X117439933Y-73688021D01*
X117427725Y-73666875D01*
X117421405Y-73643290D01*
X117408098Y-73611164D01*
X117394561Y-73543108D01*
X117387050Y-73515077D01*
X117386098Y-73500565D01*
X117384798Y-73494025D01*
X117382189Y-73440922D01*
X117381900Y-73436500D01*
X117381900Y-72636500D01*
X117382189Y-72632080D01*
X117384798Y-72578974D01*
X117386098Y-72572433D01*
X117387050Y-72557923D01*
X117394560Y-72529894D01*
X117408098Y-72461835D01*
X117421406Y-72429706D01*
X117427725Y-72406125D01*
X117439932Y-72384980D01*
X117453240Y-72352854D01*
X117491791Y-72295156D01*
X117506301Y-72270026D01*
X117513180Y-72263146D01*
X117518770Y-72254781D01*
X117602181Y-72171370D01*
X117610546Y-72165780D01*
X117617426Y-72158901D01*
X117642556Y-72144391D01*
X117700254Y-72105840D01*
X117732380Y-72092532D01*
X117753525Y-72080325D01*
X117777106Y-72074006D01*
X117809235Y-72060698D01*
X117877286Y-72047162D01*
X117905323Y-72039650D01*
X117915057Y-72039650D01*
X117924921Y-72037688D01*
X118042879Y-72037688D01*
X118052743Y-72039650D01*
G37*
G36*
X159123513Y-70377008D02*
G01*
X159362293Y-70454593D01*
X159585998Y-70568576D01*
X159789117Y-70716150D01*
X159966650Y-70893683D01*
X160114224Y-71096802D01*
X160228207Y-71320507D01*
X160305792Y-71559287D01*
X160345068Y-71807265D01*
X160345068Y-72058335D01*
X160305792Y-72306313D01*
X160228207Y-72545093D01*
X160114224Y-72768798D01*
X159966650Y-72971917D01*
X159789117Y-73149450D01*
X159585998Y-73297024D01*
X159362293Y-73411007D01*
X159123513Y-73488592D01*
X158875535Y-73527868D01*
X158624465Y-73527868D01*
X158376487Y-73488592D01*
X158137707Y-73411007D01*
X157914002Y-73297024D01*
X157710883Y-73149450D01*
X157533350Y-72971917D01*
X157385776Y-72768798D01*
X157271793Y-72545093D01*
X157194208Y-72306313D01*
X157154932Y-72058335D01*
X157154932Y-71807265D01*
X157194208Y-71559287D01*
X157271793Y-71320507D01*
X157385776Y-71096802D01*
X157533350Y-70893683D01*
X157710883Y-70716150D01*
X157914002Y-70568576D01*
X158137707Y-70454593D01*
X158376487Y-70377008D01*
X158624465Y-70337732D01*
X158875535Y-70337732D01*
X159123513Y-70377008D01*
G37*
G36*
X109412743Y-67709650D02*
G01*
X109422477Y-67709650D01*
X109450514Y-67717162D01*
X109518564Y-67730698D01*
X109550690Y-67744005D01*
X109574275Y-67750325D01*
X109595421Y-67762533D01*
X109627545Y-67775840D01*
X109685235Y-67814387D01*
X109710374Y-67828901D01*
X109717255Y-67835782D01*
X109725618Y-67841370D01*
X109809029Y-67924781D01*
X109814616Y-67933143D01*
X109821499Y-67940026D01*
X109836014Y-67965167D01*
X109874559Y-68022854D01*
X109887864Y-68054974D01*
X109900075Y-68076125D01*
X109906395Y-68099713D01*
X109919701Y-68131835D01*
X109933235Y-68199880D01*
X109940750Y-68227923D01*
X109941701Y-68242440D01*
X109943001Y-68248974D01*
X109945609Y-68302074D01*
X109945900Y-68306500D01*
X109945900Y-69406500D01*
X109945609Y-69410928D01*
X109943001Y-69464025D01*
X109941701Y-69470557D01*
X109940750Y-69485077D01*
X109933235Y-69513122D01*
X109919701Y-69581164D01*
X109906396Y-69613283D01*
X109900075Y-69636875D01*
X109887862Y-69658027D01*
X109874559Y-69690145D01*
X109836018Y-69747824D01*
X109821499Y-69772974D01*
X109814614Y-69779858D01*
X109809029Y-69788218D01*
X109725618Y-69871629D01*
X109717258Y-69877214D01*
X109710374Y-69884099D01*
X109685224Y-69898618D01*
X109627545Y-69937159D01*
X109595427Y-69950462D01*
X109574275Y-69962675D01*
X109550683Y-69968996D01*
X109518564Y-69982301D01*
X109450520Y-69995835D01*
X109422477Y-70003350D01*
X109412743Y-70003350D01*
X109402879Y-70005312D01*
X109284921Y-70005312D01*
X109275057Y-70003350D01*
X109265323Y-70003350D01*
X109237280Y-69995835D01*
X109169235Y-69982301D01*
X109137113Y-69968995D01*
X109113525Y-69962675D01*
X109092374Y-69950464D01*
X109060254Y-69937159D01*
X109002567Y-69898614D01*
X108977426Y-69884099D01*
X108970543Y-69877216D01*
X108962181Y-69871629D01*
X108878770Y-69788218D01*
X108873182Y-69779855D01*
X108866301Y-69772974D01*
X108851787Y-69747835D01*
X108813240Y-69690145D01*
X108799933Y-69658021D01*
X108787725Y-69636875D01*
X108781405Y-69613290D01*
X108768098Y-69581164D01*
X108754561Y-69513108D01*
X108747050Y-69485077D01*
X108746098Y-69470565D01*
X108744798Y-69464025D01*
X108742189Y-69410922D01*
X108741900Y-69406500D01*
X108741900Y-68306500D01*
X108742189Y-68302080D01*
X108744798Y-68248974D01*
X108746098Y-68242433D01*
X108747050Y-68227923D01*
X108754560Y-68199894D01*
X108768098Y-68131835D01*
X108781406Y-68099706D01*
X108787725Y-68076125D01*
X108799932Y-68054980D01*
X108813240Y-68022854D01*
X108851791Y-67965156D01*
X108866301Y-67940026D01*
X108873180Y-67933146D01*
X108878770Y-67924781D01*
X108962181Y-67841370D01*
X108970546Y-67835780D01*
X108977426Y-67828901D01*
X109002556Y-67814391D01*
X109060254Y-67775840D01*
X109092380Y-67762532D01*
X109113525Y-67750325D01*
X109137106Y-67744006D01*
X109169235Y-67730698D01*
X109237286Y-67717162D01*
X109265323Y-67709650D01*
X109275057Y-67709650D01*
X109284921Y-67707688D01*
X109402879Y-67707688D01*
X109412743Y-67709650D01*
G37*
G36*
X118052743Y-67709650D02*
G01*
X118062477Y-67709650D01*
X118090514Y-67717162D01*
X118158564Y-67730698D01*
X118190690Y-67744005D01*
X118214275Y-67750325D01*
X118235421Y-67762533D01*
X118267545Y-67775840D01*
X118325235Y-67814387D01*
X118350374Y-67828901D01*
X118357255Y-67835782D01*
X118365618Y-67841370D01*
X118449029Y-67924781D01*
X118454616Y-67933143D01*
X118461499Y-67940026D01*
X118476014Y-67965167D01*
X118514559Y-68022854D01*
X118527864Y-68054974D01*
X118540075Y-68076125D01*
X118546395Y-68099713D01*
X118559701Y-68131835D01*
X118573235Y-68199880D01*
X118580750Y-68227923D01*
X118581701Y-68242440D01*
X118583001Y-68248974D01*
X118585609Y-68302074D01*
X118585900Y-68306500D01*
X118585900Y-69406500D01*
X118585609Y-69410928D01*
X118583001Y-69464025D01*
X118581701Y-69470557D01*
X118580750Y-69485077D01*
X118573235Y-69513122D01*
X118559701Y-69581164D01*
X118546396Y-69613283D01*
X118540075Y-69636875D01*
X118527862Y-69658027D01*
X118514559Y-69690145D01*
X118476018Y-69747824D01*
X118461499Y-69772974D01*
X118454614Y-69779858D01*
X118449029Y-69788218D01*
X118365618Y-69871629D01*
X118357258Y-69877214D01*
X118350374Y-69884099D01*
X118325224Y-69898618D01*
X118267545Y-69937159D01*
X118235427Y-69950462D01*
X118214275Y-69962675D01*
X118190683Y-69968996D01*
X118158564Y-69982301D01*
X118090520Y-69995835D01*
X118062477Y-70003350D01*
X118052743Y-70003350D01*
X118042879Y-70005312D01*
X117924921Y-70005312D01*
X117915057Y-70003350D01*
X117905323Y-70003350D01*
X117877280Y-69995835D01*
X117809235Y-69982301D01*
X117777113Y-69968995D01*
X117753525Y-69962675D01*
X117732374Y-69950464D01*
X117700254Y-69937159D01*
X117642567Y-69898614D01*
X117617426Y-69884099D01*
X117610543Y-69877216D01*
X117602181Y-69871629D01*
X117518770Y-69788218D01*
X117513182Y-69779855D01*
X117506301Y-69772974D01*
X117491787Y-69747835D01*
X117453240Y-69690145D01*
X117439933Y-69658021D01*
X117427725Y-69636875D01*
X117421405Y-69613290D01*
X117408098Y-69581164D01*
X117394561Y-69513108D01*
X117387050Y-69485077D01*
X117386098Y-69470565D01*
X117384798Y-69464025D01*
X117382189Y-69410922D01*
X117381900Y-69406500D01*
X117381900Y-68306500D01*
X117382189Y-68302080D01*
X117384798Y-68248974D01*
X117386098Y-68242433D01*
X117387050Y-68227923D01*
X117394560Y-68199894D01*
X117408098Y-68131835D01*
X117421406Y-68099706D01*
X117427725Y-68076125D01*
X117439932Y-68054980D01*
X117453240Y-68022854D01*
X117491791Y-67965156D01*
X117506301Y-67940026D01*
X117513180Y-67933146D01*
X117518770Y-67924781D01*
X117602181Y-67841370D01*
X117610546Y-67835780D01*
X117617426Y-67828901D01*
X117642556Y-67814391D01*
X117700254Y-67775840D01*
X117732380Y-67762532D01*
X117753525Y-67750325D01*
X117777106Y-67744006D01*
X117809235Y-67730698D01*
X117877286Y-67717162D01*
X117905323Y-67709650D01*
X117915057Y-67709650D01*
X117924921Y-67707688D01*
X118042879Y-67707688D01*
X118052743Y-67709650D01*
G37*
G36*
X110898272Y-69056239D02*
G01*
X110971747Y-69098660D01*
X111031740Y-69158653D01*
X111074161Y-69232128D01*
X111096120Y-69314079D01*
X111096120Y-69398921D01*
X111074161Y-69480872D01*
X111031740Y-69554347D01*
X110971747Y-69614340D01*
X110898272Y-69656761D01*
X110816321Y-69678720D01*
X110731479Y-69678720D01*
X110649528Y-69656761D01*
X110576053Y-69614340D01*
X110516060Y-69554347D01*
X110473639Y-69480872D01*
X110451680Y-69398921D01*
X110451680Y-69314079D01*
X110473639Y-69232128D01*
X110516060Y-69158653D01*
X110576053Y-69098660D01*
X110649528Y-69056239D01*
X110731479Y-69034280D01*
X110816321Y-69034280D01*
X110898272Y-69056239D01*
G37*
G36*
X116678272Y-69056239D02*
G01*
X116751747Y-69098660D01*
X116811740Y-69158653D01*
X116854161Y-69232128D01*
X116876120Y-69314079D01*
X116876120Y-69398921D01*
X116854161Y-69480872D01*
X116811740Y-69554347D01*
X116751747Y-69614340D01*
X116678272Y-69656761D01*
X116596321Y-69678720D01*
X116511479Y-69678720D01*
X116429528Y-69656761D01*
X116356053Y-69614340D01*
X116296060Y-69554347D01*
X116253639Y-69480872D01*
X116231680Y-69398921D01*
X116231680Y-69314079D01*
X116253639Y-69232128D01*
X116296060Y-69158653D01*
X116356053Y-69098660D01*
X116429528Y-69056239D01*
X116511479Y-69034280D01*
X116596321Y-69034280D01*
X116678272Y-69056239D01*
G37*
G36*
X98417513Y-63188808D02*
G01*
X98656293Y-63266393D01*
X98879998Y-63380376D01*
X99083117Y-63527950D01*
X99260650Y-63705483D01*
X99408224Y-63908602D01*
X99522207Y-64132307D01*
X99599792Y-64371087D01*
X99639068Y-64619065D01*
X99639068Y-64870135D01*
X99599792Y-65118113D01*
X99522207Y-65356893D01*
X99408224Y-65580598D01*
X99260650Y-65783717D01*
X99083117Y-65961250D01*
X98879998Y-66108824D01*
X98656293Y-66222807D01*
X98417513Y-66300392D01*
X98169535Y-66339668D01*
X97918465Y-66339668D01*
X97670487Y-66300392D01*
X97431707Y-66222807D01*
X97208002Y-66108824D01*
X97004883Y-65961250D01*
X96827350Y-65783717D01*
X96679776Y-65580598D01*
X96565793Y-65356893D01*
X96488208Y-65118113D01*
X96448932Y-64870135D01*
X96448932Y-64619065D01*
X96488208Y-64371087D01*
X96565793Y-64132307D01*
X96679776Y-63908602D01*
X96827350Y-63705483D01*
X97004883Y-63527950D01*
X97208002Y-63380376D01*
X97431707Y-63266393D01*
X97670487Y-63188808D01*
X97918465Y-63149532D01*
X98169535Y-63149532D01*
X98417513Y-63188808D01*
G37*
G36*
X156812101Y-47652588D02*
G01*
X157070447Y-47721812D01*
X157317548Y-47824164D01*
X157549174Y-47957894D01*
X157761364Y-48120713D01*
X157950487Y-48309836D01*
X158113306Y-48522026D01*
X158247036Y-48753652D01*
X158349388Y-49000753D01*
X158418612Y-49259099D01*
X158453522Y-49524270D01*
X158453522Y-49791730D01*
X158418612Y-50056901D01*
X158349388Y-50315247D01*
X158247036Y-50562348D01*
X158113306Y-50793974D01*
X157950487Y-51006164D01*
X157761364Y-51195287D01*
X157549174Y-51358106D01*
X157317548Y-51491836D01*
X157070447Y-51594188D01*
X156812101Y-51663412D01*
X156546930Y-51698322D01*
X156279470Y-51698322D01*
X156014299Y-51663412D01*
X155755953Y-51594188D01*
X155508852Y-51491836D01*
X155277226Y-51358106D01*
X155065036Y-51195287D01*
X154875913Y-51006164D01*
X154713094Y-50793974D01*
X154579364Y-50562348D01*
X154477012Y-50315247D01*
X154407788Y-50056901D01*
X154372878Y-49791730D01*
X154372878Y-49524270D01*
X154407788Y-49259099D01*
X154477012Y-49000753D01*
X154579364Y-48753652D01*
X154713094Y-48522026D01*
X154875913Y-48309836D01*
X155065036Y-48120713D01*
X155277226Y-47957894D01*
X155508852Y-47824164D01*
X155755953Y-47721812D01*
X156014299Y-47652588D01*
X156279470Y-47617678D01*
X156546930Y-47617678D01*
X156812101Y-47652588D01*
G37*
G36*
X137762101Y-47601788D02*
G01*
X138020447Y-47671012D01*
X138267548Y-47773364D01*
X138499174Y-47907094D01*
X138711364Y-48069913D01*
X138900487Y-48259036D01*
X139063306Y-48471226D01*
X139197036Y-48702852D01*
X139299388Y-48949953D01*
X139368612Y-49208299D01*
X139403522Y-49473470D01*
X139403522Y-49740930D01*
X139368612Y-50006101D01*
X139299388Y-50264447D01*
X139197036Y-50511548D01*
X139063306Y-50743174D01*
X138900487Y-50955364D01*
X138711364Y-51144487D01*
X138499174Y-51307306D01*
X138267548Y-51441036D01*
X138020447Y-51543388D01*
X137762101Y-51612612D01*
X137496930Y-51647522D01*
X137229470Y-51647522D01*
X136964299Y-51612612D01*
X136705953Y-51543388D01*
X136458852Y-51441036D01*
X136227226Y-51307306D01*
X136015036Y-51144487D01*
X135825913Y-50955364D01*
X135663094Y-50743174D01*
X135529364Y-50511548D01*
X135427012Y-50264447D01*
X135357788Y-50006101D01*
X135322878Y-49740930D01*
X135322878Y-49473470D01*
X135357788Y-49208299D01*
X135427012Y-48949953D01*
X135529364Y-48702852D01*
X135663094Y-48471226D01*
X135825913Y-48259036D01*
X136015036Y-48069913D01*
X136227226Y-47907094D01*
X136458852Y-47773364D01*
X136705953Y-47671012D01*
X136964299Y-47601788D01*
X137229470Y-47566878D01*
X137496930Y-47566878D01*
X137762101Y-47601788D01*
G37*
G36*
X152898287Y-45888876D02*
G01*
X153086931Y-45950170D01*
X153263664Y-46040220D01*
X153424135Y-46156809D01*
X153564391Y-46297065D01*
X153680980Y-46457536D01*
X153771030Y-46634269D01*
X153832324Y-46822913D01*
X153863353Y-47018824D01*
X153863353Y-47217176D01*
X153832324Y-47413087D01*
X153771030Y-47601731D01*
X153680980Y-47778464D01*
X153564391Y-47938935D01*
X153424135Y-48079191D01*
X153263664Y-48195780D01*
X153086931Y-48285830D01*
X152898287Y-48347124D01*
X152702376Y-48378153D01*
X152504024Y-48378153D01*
X152308113Y-48347124D01*
X152119469Y-48285830D01*
X151942736Y-48195780D01*
X151782265Y-48079191D01*
X151642009Y-47938935D01*
X151525420Y-47778464D01*
X151435370Y-47601731D01*
X151374076Y-47413087D01*
X151343047Y-47217176D01*
X151343047Y-47018824D01*
X151374076Y-46822913D01*
X151435370Y-46634269D01*
X151525420Y-46457536D01*
X151642009Y-46297065D01*
X151782265Y-46156809D01*
X151942736Y-46040220D01*
X152119469Y-45950170D01*
X152308113Y-45888876D01*
X152504024Y-45857847D01*
X152702376Y-45857847D01*
X152898287Y-45888876D01*
G37*
G36*
X133848287Y-45838076D02*
G01*
X134036931Y-45899370D01*
X134213664Y-45989420D01*
X134374135Y-46106009D01*
X134514391Y-46246265D01*
X134630980Y-46406736D01*
X134721030Y-46583469D01*
X134782324Y-46772113D01*
X134813353Y-46968024D01*
X134813353Y-47166376D01*
X134782324Y-47362287D01*
X134721030Y-47550931D01*
X134630980Y-47727664D01*
X134514391Y-47888135D01*
X134374135Y-48028391D01*
X134213664Y-48144980D01*
X134036931Y-48235030D01*
X133848287Y-48296324D01*
X133652376Y-48327353D01*
X133454024Y-48327353D01*
X133258113Y-48296324D01*
X133069469Y-48235030D01*
X132892736Y-48144980D01*
X132732265Y-48028391D01*
X132592009Y-47888135D01*
X132475420Y-47727664D01*
X132385370Y-47550931D01*
X132324076Y-47362287D01*
X132293047Y-47166376D01*
X132293047Y-46968024D01*
X132324076Y-46772113D01*
X132385370Y-46583469D01*
X132475420Y-46406736D01*
X132592009Y-46246265D01*
X132732265Y-46106009D01*
X132892736Y-45989420D01*
X133069469Y-45899370D01*
X133258113Y-45838076D01*
X133454024Y-45807047D01*
X133652376Y-45807047D01*
X133848287Y-45838076D01*
G37*
G36*
X159248287Y-43348876D02*
G01*
X159436931Y-43410170D01*
X159613664Y-43500220D01*
X159774135Y-43616809D01*
X159914391Y-43757065D01*
X160030980Y-43917536D01*
X160121030Y-44094269D01*
X160182324Y-44282913D01*
X160213353Y-44478824D01*
X160213353Y-44677176D01*
X160182324Y-44873087D01*
X160121030Y-45061731D01*
X160030980Y-45238464D01*
X159914391Y-45398935D01*
X159774135Y-45539191D01*
X159613664Y-45655780D01*
X159436931Y-45745830D01*
X159248287Y-45807124D01*
X159052376Y-45838153D01*
X158854024Y-45838153D01*
X158658113Y-45807124D01*
X158469469Y-45745830D01*
X158292736Y-45655780D01*
X158132265Y-45539191D01*
X157992009Y-45398935D01*
X157875420Y-45238464D01*
X157785370Y-45061731D01*
X157724076Y-44873087D01*
X157693047Y-44677176D01*
X157693047Y-44478824D01*
X157724076Y-44282913D01*
X157785370Y-44094269D01*
X157875420Y-43917536D01*
X157992009Y-43757065D01*
X158132265Y-43616809D01*
X158292736Y-43500220D01*
X158469469Y-43410170D01*
X158658113Y-43348876D01*
X158854024Y-43317847D01*
X159052376Y-43317847D01*
X159248287Y-43348876D01*
G37*
G36*
X140198287Y-43298076D02*
G01*
X140386931Y-43359370D01*
X140563664Y-43449420D01*
X140724135Y-43566009D01*
X140864391Y-43706265D01*
X140980980Y-43866736D01*
X141071030Y-44043469D01*
X141132324Y-44232113D01*
X141163353Y-44428024D01*
X141163353Y-44626376D01*
X141132324Y-44822287D01*
X141071030Y-45010931D01*
X140980980Y-45187664D01*
X140864391Y-45348135D01*
X140724135Y-45488391D01*
X140563664Y-45604980D01*
X140386931Y-45695030D01*
X140198287Y-45756324D01*
X140002376Y-45787353D01*
X139804024Y-45787353D01*
X139608113Y-45756324D01*
X139419469Y-45695030D01*
X139242736Y-45604980D01*
X139082265Y-45488391D01*
X138942009Y-45348135D01*
X138825420Y-45187664D01*
X138735370Y-45010931D01*
X138674076Y-44822287D01*
X138643047Y-44626376D01*
X138643047Y-44428024D01*
X138674076Y-44232113D01*
X138735370Y-44043469D01*
X138825420Y-43866736D01*
X138942009Y-43706265D01*
X139082265Y-43566009D01*
X139242736Y-43449420D01*
X139419469Y-43359370D01*
X139608113Y-43298076D01*
X139804024Y-43267047D01*
X140002376Y-43267047D01*
X140198287Y-43298076D01*
G37*
G36*
X137855701Y-30577988D02*
G01*
X138114047Y-30647212D01*
X138361148Y-30749564D01*
X138592774Y-30883294D01*
X138804964Y-31046113D01*
X138994087Y-31235236D01*
X139156906Y-31447426D01*
X139290636Y-31679052D01*
X139392988Y-31926153D01*
X139462212Y-32184499D01*
X139497122Y-32449670D01*
X139497122Y-32717130D01*
X139462212Y-32982301D01*
X139392988Y-33240647D01*
X139290636Y-33487748D01*
X139156906Y-33719374D01*
X138994087Y-33931564D01*
X138804964Y-34120687D01*
X138592774Y-34283506D01*
X138361148Y-34417236D01*
X138114047Y-34519588D01*
X137855701Y-34588812D01*
X137590530Y-34623722D01*
X137323070Y-34623722D01*
X137057899Y-34588812D01*
X136799553Y-34519588D01*
X136552452Y-34417236D01*
X136320826Y-34283506D01*
X136108636Y-34120687D01*
X135919513Y-33931564D01*
X135756694Y-33719374D01*
X135622964Y-33487748D01*
X135520612Y-33240647D01*
X135451388Y-32982301D01*
X135416478Y-32717130D01*
X135416478Y-32449670D01*
X135451388Y-32184499D01*
X135520612Y-31926153D01*
X135622964Y-31679052D01*
X135756694Y-31447426D01*
X135919513Y-31235236D01*
X136108636Y-31046113D01*
X136320826Y-30883294D01*
X136552452Y-30749564D01*
X136799553Y-30647212D01*
X137057899Y-30577988D01*
X137323070Y-30543078D01*
X137590530Y-30543078D01*
X137855701Y-30577988D01*
G37*
G36*
X156812101Y-30506988D02*
G01*
X157070447Y-30576212D01*
X157317548Y-30678564D01*
X157549174Y-30812294D01*
X157761364Y-30975113D01*
X157950487Y-31164236D01*
X158113306Y-31376426D01*
X158247036Y-31608052D01*
X158349388Y-31855153D01*
X158418612Y-32113499D01*
X158453522Y-32378670D01*
X158453522Y-32646130D01*
X158418612Y-32911301D01*
X158349388Y-33169647D01*
X158247036Y-33416748D01*
X158113306Y-33648374D01*
X157950487Y-33860564D01*
X157761364Y-34049687D01*
X157549174Y-34212506D01*
X157317548Y-34346236D01*
X157070447Y-34448588D01*
X156812101Y-34517812D01*
X156546930Y-34552722D01*
X156279470Y-34552722D01*
X156014299Y-34517812D01*
X155755953Y-34448588D01*
X155508852Y-34346236D01*
X155277226Y-34212506D01*
X155065036Y-34049687D01*
X154875913Y-33860564D01*
X154713094Y-33648374D01*
X154579364Y-33416748D01*
X154477012Y-33169647D01*
X154407788Y-32911301D01*
X154372878Y-32646130D01*
X154372878Y-32378670D01*
X154407788Y-32113499D01*
X154477012Y-31855153D01*
X154579364Y-31608052D01*
X154713094Y-31376426D01*
X154875913Y-31164236D01*
X155065036Y-30975113D01*
X155277226Y-30812294D01*
X155508852Y-30678564D01*
X155755953Y-30576212D01*
X156014299Y-30506988D01*
X156279470Y-30472078D01*
X156546930Y-30472078D01*
X156812101Y-30506988D01*
G37*
G36*
X133941887Y-28814276D02*
G01*
X134130531Y-28875570D01*
X134307264Y-28965620D01*
X134467735Y-29082209D01*
X134607991Y-29222465D01*
X134724580Y-29382936D01*
X134814630Y-29559669D01*
X134875924Y-29748313D01*
X134906953Y-29944224D01*
X134906953Y-30142576D01*
X134875924Y-30338487D01*
X134814630Y-30527131D01*
X134724580Y-30703864D01*
X134607991Y-30864335D01*
X134467735Y-31004591D01*
X134307264Y-31121180D01*
X134130531Y-31211230D01*
X133941887Y-31272524D01*
X133745976Y-31303553D01*
X133547624Y-31303553D01*
X133351713Y-31272524D01*
X133163069Y-31211230D01*
X132986336Y-31121180D01*
X132825865Y-31004591D01*
X132685609Y-30864335D01*
X132569020Y-30703864D01*
X132478970Y-30527131D01*
X132417676Y-30338487D01*
X132386647Y-30142576D01*
X132386647Y-29944224D01*
X132417676Y-29748313D01*
X132478970Y-29559669D01*
X132569020Y-29382936D01*
X132685609Y-29222465D01*
X132825865Y-29082209D01*
X132986336Y-28965620D01*
X133163069Y-28875570D01*
X133351713Y-28814276D01*
X133547624Y-28783247D01*
X133745976Y-28783247D01*
X133941887Y-28814276D01*
G37*
G36*
X152898287Y-28743276D02*
G01*
X153086931Y-28804570D01*
X153263664Y-28894620D01*
X153424135Y-29011209D01*
X153564391Y-29151465D01*
X153680980Y-29311936D01*
X153771030Y-29488669D01*
X153832324Y-29677313D01*
X153863353Y-29873224D01*
X153863353Y-30071576D01*
X153832324Y-30267487D01*
X153771030Y-30456131D01*
X153680980Y-30632864D01*
X153564391Y-30793335D01*
X153424135Y-30933591D01*
X153263664Y-31050180D01*
X153086931Y-31140230D01*
X152898287Y-31201524D01*
X152702376Y-31232553D01*
X152504024Y-31232553D01*
X152308113Y-31201524D01*
X152119469Y-31140230D01*
X151942736Y-31050180D01*
X151782265Y-30933591D01*
X151642009Y-30793335D01*
X151525420Y-30632864D01*
X151435370Y-30456131D01*
X151374076Y-30267487D01*
X151343047Y-30071576D01*
X151343047Y-29873224D01*
X151374076Y-29677313D01*
X151435370Y-29488669D01*
X151525420Y-29311936D01*
X151642009Y-29151465D01*
X151782265Y-29011209D01*
X151942736Y-28894620D01*
X152119469Y-28804570D01*
X152308113Y-28743276D01*
X152504024Y-28712247D01*
X152702376Y-28712247D01*
X152898287Y-28743276D01*
G37*
G36*
X99662113Y-28060608D02*
G01*
X99900893Y-28138193D01*
X100124598Y-28252176D01*
X100327717Y-28399750D01*
X100505250Y-28577283D01*
X100652824Y-28780402D01*
X100766807Y-29004107D01*
X100844392Y-29242887D01*
X100883668Y-29490865D01*
X100883668Y-29741935D01*
X100844392Y-29989913D01*
X100766807Y-30228693D01*
X100652824Y-30452398D01*
X100505250Y-30655517D01*
X100327717Y-30833050D01*
X100124598Y-30980624D01*
X99900893Y-31094607D01*
X99662113Y-31172192D01*
X99414135Y-31211468D01*
X99163065Y-31211468D01*
X98915087Y-31172192D01*
X98676307Y-31094607D01*
X98452602Y-30980624D01*
X98249483Y-30833050D01*
X98071950Y-30655517D01*
X97924376Y-30452398D01*
X97810393Y-30228693D01*
X97732808Y-29989913D01*
X97693532Y-29741935D01*
X97693532Y-29490865D01*
X97732808Y-29242887D01*
X97810393Y-29004107D01*
X97924376Y-28780402D01*
X98071950Y-28577283D01*
X98249483Y-28399750D01*
X98452602Y-28252176D01*
X98676307Y-28138193D01*
X98915087Y-28060608D01*
X99163065Y-28021332D01*
X99414135Y-28021332D01*
X99662113Y-28060608D01*
G37*
G36*
X169461313Y-27095408D02*
G01*
X169700093Y-27172993D01*
X169923798Y-27286976D01*
X170126917Y-27434550D01*
X170304450Y-27612083D01*
X170452024Y-27815202D01*
X170566007Y-28038907D01*
X170643592Y-28277687D01*
X170682868Y-28525665D01*
X170682868Y-28776735D01*
X170643592Y-29024713D01*
X170566007Y-29263493D01*
X170452024Y-29487198D01*
X170304450Y-29690317D01*
X170126917Y-29867850D01*
X169923798Y-30015424D01*
X169700093Y-30129407D01*
X169461313Y-30206992D01*
X169213335Y-30246268D01*
X168962265Y-30246268D01*
X168714287Y-30206992D01*
X168475507Y-30129407D01*
X168251802Y-30015424D01*
X168048683Y-29867850D01*
X167871150Y-29690317D01*
X167723576Y-29487198D01*
X167609593Y-29263493D01*
X167532008Y-29024713D01*
X167492732Y-28776735D01*
X167492732Y-28525665D01*
X167532008Y-28277687D01*
X167609593Y-28038907D01*
X167723576Y-27815202D01*
X167871150Y-27612083D01*
X168048683Y-27434550D01*
X168251802Y-27286976D01*
X168475507Y-27172993D01*
X168714287Y-27095408D01*
X168962265Y-27056132D01*
X169213335Y-27056132D01*
X169461313Y-27095408D01*
G37*
G36*
X140291887Y-26274276D02*
G01*
X140480531Y-26335570D01*
X140657264Y-26425620D01*
X140817735Y-26542209D01*
X140957991Y-26682465D01*
X141074580Y-26842936D01*
X141164630Y-27019669D01*
X141225924Y-27208313D01*
X141256953Y-27404224D01*
X141256953Y-27602576D01*
X141225924Y-27798487D01*
X141164630Y-27987131D01*
X141074580Y-28163864D01*
X140957991Y-28324335D01*
X140817735Y-28464591D01*
X140657264Y-28581180D01*
X140480531Y-28671230D01*
X140291887Y-28732524D01*
X140095976Y-28763553D01*
X139897624Y-28763553D01*
X139701713Y-28732524D01*
X139513069Y-28671230D01*
X139336336Y-28581180D01*
X139175865Y-28464591D01*
X139035609Y-28324335D01*
X138919020Y-28163864D01*
X138828970Y-27987131D01*
X138767676Y-27798487D01*
X138736647Y-27602576D01*
X138736647Y-27404224D01*
X138767676Y-27208313D01*
X138828970Y-27019669D01*
X138919020Y-26842936D01*
X139035609Y-26682465D01*
X139175865Y-26542209D01*
X139336336Y-26425620D01*
X139513069Y-26335570D01*
X139701713Y-26274276D01*
X139897624Y-26243247D01*
X140095976Y-26243247D01*
X140291887Y-26274276D01*
G37*
G36*
X159248287Y-26203276D02*
G01*
X159436931Y-26264570D01*
X159613664Y-26354620D01*
X159774135Y-26471209D01*
X159914391Y-26611465D01*
X160030980Y-26771936D01*
X160121030Y-26948669D01*
X160182324Y-27137313D01*
X160213353Y-27333224D01*
X160213353Y-27531576D01*
X160182324Y-27727487D01*
X160121030Y-27916131D01*
X160030980Y-28092864D01*
X159914391Y-28253335D01*
X159774135Y-28393591D01*
X159613664Y-28510180D01*
X159436931Y-28600230D01*
X159248287Y-28661524D01*
X159052376Y-28692553D01*
X158854024Y-28692553D01*
X158658113Y-28661524D01*
X158469469Y-28600230D01*
X158292736Y-28510180D01*
X158132265Y-28393591D01*
X157992009Y-28253335D01*
X157875420Y-28092864D01*
X157785370Y-27916131D01*
X157724076Y-27727487D01*
X157693047Y-27531576D01*
X157693047Y-27333224D01*
X157724076Y-27137313D01*
X157785370Y-26948669D01*
X157875420Y-26771936D01*
X157992009Y-26611465D01*
X158132265Y-26471209D01*
X158292736Y-26354620D01*
X158469469Y-26264570D01*
X158658113Y-26203276D01*
X158854024Y-26172247D01*
X159052376Y-26172247D01*
X159248287Y-26203276D01*
G37*
M02*
