%TF.GenerationSoftware,KiCad,Pcbnew,9.0.6*%
%TF.CreationDate,2026-08-04T16:10:33-04:00*%
%TF.ProjectId,PCB_Related,5043425f-5265-46c6-9174-65642e6b6963,rev?*%
%TF.SameCoordinates,Original*%
%TF.FileFunction,Legend,Top*%
%TF.FilePolarity,Positive*%
%FSLAX46Y46*%
G04 Gerber Fmt 4.6, Leading zero omitted, Abs format (unit mm)*
G04 Created by KiCad (PCBNEW 9.0.6) date 2026-08-04 16:10:33*
%MOMM*%
%LPD*%
G01*
G04 APERTURE LIST*
%ADD10C,0.150000*%
%ADD11C,0.120000*%
%ADD12C,0.200000*%
%ADD13C,0.127000*%
G04 APERTURE END LIST*
D10*
X97282095Y-61049419D02*
X97282095Y-60049419D01*
X97282095Y-60525609D02*
X97853523Y-60525609D01*
X97853523Y-61049419D02*
X97853523Y-60049419D01*
X98758285Y-60382752D02*
X98758285Y-61049419D01*
X98520190Y-60001800D02*
X98282095Y-60716085D01*
X98282095Y-60716085D02*
X98901142Y-60716085D01*
X98526695Y-25921219D02*
X98526695Y-24921219D01*
X98526695Y-25397409D02*
X99098123Y-25397409D01*
X99098123Y-25921219D02*
X99098123Y-24921219D01*
X99479076Y-24921219D02*
X100098123Y-24921219D01*
X100098123Y-24921219D02*
X99764790Y-25302171D01*
X99764790Y-25302171D02*
X99907647Y-25302171D01*
X99907647Y-25302171D02*
X100002885Y-25349790D01*
X100002885Y-25349790D02*
X100050504Y-25397409D01*
X100050504Y-25397409D02*
X100098123Y-25492647D01*
X100098123Y-25492647D02*
X100098123Y-25730742D01*
X100098123Y-25730742D02*
X100050504Y-25825980D01*
X100050504Y-25825980D02*
X100002885Y-25873600D01*
X100002885Y-25873600D02*
X99907647Y-25921219D01*
X99907647Y-25921219D02*
X99621933Y-25921219D01*
X99621933Y-25921219D02*
X99526695Y-25873600D01*
X99526695Y-25873600D02*
X99479076Y-25825980D01*
X168325895Y-24956019D02*
X168325895Y-23956019D01*
X168325895Y-24432209D02*
X168897323Y-24432209D01*
X168897323Y-24956019D02*
X168897323Y-23956019D01*
X169325895Y-24051257D02*
X169373514Y-24003638D01*
X169373514Y-24003638D02*
X169468752Y-23956019D01*
X169468752Y-23956019D02*
X169706847Y-23956019D01*
X169706847Y-23956019D02*
X169802085Y-24003638D01*
X169802085Y-24003638D02*
X169849704Y-24051257D01*
X169849704Y-24051257D02*
X169897323Y-24146495D01*
X169897323Y-24146495D02*
X169897323Y-24241733D01*
X169897323Y-24241733D02*
X169849704Y-24384590D01*
X169849704Y-24384590D02*
X169278276Y-24956019D01*
X169278276Y-24956019D02*
X169897323Y-24956019D01*
X157988095Y-68237619D02*
X157988095Y-67237619D01*
X157988095Y-67713809D02*
X158559523Y-67713809D01*
X158559523Y-68237619D02*
X158559523Y-67237619D01*
X159559523Y-68237619D02*
X158988095Y-68237619D01*
X159273809Y-68237619D02*
X159273809Y-67237619D01*
X159273809Y-67237619D02*
X159178571Y-67380476D01*
X159178571Y-67380476D02*
X159083333Y-67475714D01*
X159083333Y-67475714D02*
X158988095Y-67523333D01*
X125620542Y-66885780D02*
X125572923Y-66933400D01*
X125572923Y-66933400D02*
X125430066Y-66981019D01*
X125430066Y-66981019D02*
X125334828Y-66981019D01*
X125334828Y-66981019D02*
X125191971Y-66933400D01*
X125191971Y-66933400D02*
X125096733Y-66838161D01*
X125096733Y-66838161D02*
X125049114Y-66742923D01*
X125049114Y-66742923D02*
X125001495Y-66552447D01*
X125001495Y-66552447D02*
X125001495Y-66409590D01*
X125001495Y-66409590D02*
X125049114Y-66219114D01*
X125049114Y-66219114D02*
X125096733Y-66123876D01*
X125096733Y-66123876D02*
X125191971Y-66028638D01*
X125191971Y-66028638D02*
X125334828Y-65981019D01*
X125334828Y-65981019D02*
X125430066Y-65981019D01*
X125430066Y-65981019D02*
X125572923Y-66028638D01*
X125572923Y-66028638D02*
X125620542Y-66076257D01*
X126572923Y-66981019D02*
X126001495Y-66981019D01*
X126287209Y-66981019D02*
X126287209Y-65981019D01*
X126287209Y-65981019D02*
X126191971Y-66123876D01*
X126191971Y-66123876D02*
X126096733Y-66219114D01*
X126096733Y-66219114D02*
X126001495Y-66266733D01*
X127191971Y-65981019D02*
X127287209Y-65981019D01*
X127287209Y-65981019D02*
X127382447Y-66028638D01*
X127382447Y-66028638D02*
X127430066Y-66076257D01*
X127430066Y-66076257D02*
X127477685Y-66171495D01*
X127477685Y-66171495D02*
X127525304Y-66361971D01*
X127525304Y-66361971D02*
X127525304Y-66600066D01*
X127525304Y-66600066D02*
X127477685Y-66790542D01*
X127477685Y-66790542D02*
X127430066Y-66885780D01*
X127430066Y-66885780D02*
X127382447Y-66933400D01*
X127382447Y-66933400D02*
X127287209Y-66981019D01*
X127287209Y-66981019D02*
X127191971Y-66981019D01*
X127191971Y-66981019D02*
X127096733Y-66933400D01*
X127096733Y-66933400D02*
X127049114Y-66885780D01*
X127049114Y-66885780D02*
X127001495Y-66790542D01*
X127001495Y-66790542D02*
X126953876Y-66600066D01*
X126953876Y-66600066D02*
X126953876Y-66361971D01*
X126953876Y-66361971D02*
X127001495Y-66171495D01*
X127001495Y-66171495D02*
X127049114Y-66076257D01*
X127049114Y-66076257D02*
X127096733Y-66028638D01*
X127096733Y-66028638D02*
X127191971Y-65981019D01*
X131872895Y-23358600D02*
X132015752Y-23406219D01*
X132015752Y-23406219D02*
X132253847Y-23406219D01*
X132253847Y-23406219D02*
X132349085Y-23358600D01*
X132349085Y-23358600D02*
X132396704Y-23310980D01*
X132396704Y-23310980D02*
X132444323Y-23215742D01*
X132444323Y-23215742D02*
X132444323Y-23120504D01*
X132444323Y-23120504D02*
X132396704Y-23025266D01*
X132396704Y-23025266D02*
X132349085Y-22977647D01*
X132349085Y-22977647D02*
X132253847Y-22930028D01*
X132253847Y-22930028D02*
X132063371Y-22882409D01*
X132063371Y-22882409D02*
X131968133Y-22834790D01*
X131968133Y-22834790D02*
X131920514Y-22787171D01*
X131920514Y-22787171D02*
X131872895Y-22691933D01*
X131872895Y-22691933D02*
X131872895Y-22596695D01*
X131872895Y-22596695D02*
X131920514Y-22501457D01*
X131920514Y-22501457D02*
X131968133Y-22453838D01*
X131968133Y-22453838D02*
X132063371Y-22406219D01*
X132063371Y-22406219D02*
X132301466Y-22406219D01*
X132301466Y-22406219D02*
X132444323Y-22453838D01*
X133396704Y-23406219D02*
X132825276Y-23406219D01*
X133110990Y-23406219D02*
X133110990Y-22406219D01*
X133110990Y-22406219D02*
X133015752Y-22549076D01*
X133015752Y-22549076D02*
X132920514Y-22644314D01*
X132920514Y-22644314D02*
X132825276Y-22691933D01*
X150829295Y-23287600D02*
X150972152Y-23335219D01*
X150972152Y-23335219D02*
X151210247Y-23335219D01*
X151210247Y-23335219D02*
X151305485Y-23287600D01*
X151305485Y-23287600D02*
X151353104Y-23239980D01*
X151353104Y-23239980D02*
X151400723Y-23144742D01*
X151400723Y-23144742D02*
X151400723Y-23049504D01*
X151400723Y-23049504D02*
X151353104Y-22954266D01*
X151353104Y-22954266D02*
X151305485Y-22906647D01*
X151305485Y-22906647D02*
X151210247Y-22859028D01*
X151210247Y-22859028D02*
X151019771Y-22811409D01*
X151019771Y-22811409D02*
X150924533Y-22763790D01*
X150924533Y-22763790D02*
X150876914Y-22716171D01*
X150876914Y-22716171D02*
X150829295Y-22620933D01*
X150829295Y-22620933D02*
X150829295Y-22525695D01*
X150829295Y-22525695D02*
X150876914Y-22430457D01*
X150876914Y-22430457D02*
X150924533Y-22382838D01*
X150924533Y-22382838D02*
X151019771Y-22335219D01*
X151019771Y-22335219D02*
X151257866Y-22335219D01*
X151257866Y-22335219D02*
X151400723Y-22382838D01*
X151781676Y-22430457D02*
X151829295Y-22382838D01*
X151829295Y-22382838D02*
X151924533Y-22335219D01*
X151924533Y-22335219D02*
X152162628Y-22335219D01*
X152162628Y-22335219D02*
X152257866Y-22382838D01*
X152257866Y-22382838D02*
X152305485Y-22430457D01*
X152305485Y-22430457D02*
X152353104Y-22525695D01*
X152353104Y-22525695D02*
X152353104Y-22620933D01*
X152353104Y-22620933D02*
X152305485Y-22763790D01*
X152305485Y-22763790D02*
X151734057Y-23335219D01*
X151734057Y-23335219D02*
X152353104Y-23335219D01*
X130556800Y-72631132D02*
X130604419Y-72488275D01*
X130604419Y-72488275D02*
X130604419Y-72250180D01*
X130604419Y-72250180D02*
X130556800Y-72154942D01*
X130556800Y-72154942D02*
X130509180Y-72107323D01*
X130509180Y-72107323D02*
X130413942Y-72059704D01*
X130413942Y-72059704D02*
X130318704Y-72059704D01*
X130318704Y-72059704D02*
X130223466Y-72107323D01*
X130223466Y-72107323D02*
X130175847Y-72154942D01*
X130175847Y-72154942D02*
X130128228Y-72250180D01*
X130128228Y-72250180D02*
X130080609Y-72440656D01*
X130080609Y-72440656D02*
X130032990Y-72535894D01*
X130032990Y-72535894D02*
X129985371Y-72583513D01*
X129985371Y-72583513D02*
X129890133Y-72631132D01*
X129890133Y-72631132D02*
X129794895Y-72631132D01*
X129794895Y-72631132D02*
X129699657Y-72583513D01*
X129699657Y-72583513D02*
X129652038Y-72535894D01*
X129652038Y-72535894D02*
X129604419Y-72440656D01*
X129604419Y-72440656D02*
X129604419Y-72202561D01*
X129604419Y-72202561D02*
X129652038Y-72059704D01*
X129604419Y-71726370D02*
X130604419Y-71488275D01*
X130604419Y-71488275D02*
X129890133Y-71297799D01*
X129890133Y-71297799D02*
X130604419Y-71107323D01*
X130604419Y-71107323D02*
X129604419Y-70869228D01*
X129699657Y-70535894D02*
X129652038Y-70488275D01*
X129652038Y-70488275D02*
X129604419Y-70393037D01*
X129604419Y-70393037D02*
X129604419Y-70154942D01*
X129604419Y-70154942D02*
X129652038Y-70059704D01*
X129652038Y-70059704D02*
X129699657Y-70012085D01*
X129699657Y-70012085D02*
X129794895Y-69964466D01*
X129794895Y-69964466D02*
X129890133Y-69964466D01*
X129890133Y-69964466D02*
X130032990Y-70012085D01*
X130032990Y-70012085D02*
X130604419Y-70583513D01*
X130604419Y-70583513D02*
X130604419Y-69964466D01*
X107573095Y-24603419D02*
X107573095Y-25412942D01*
X107573095Y-25412942D02*
X107620714Y-25508180D01*
X107620714Y-25508180D02*
X107668333Y-25555800D01*
X107668333Y-25555800D02*
X107763571Y-25603419D01*
X107763571Y-25603419D02*
X107954047Y-25603419D01*
X107954047Y-25603419D02*
X108049285Y-25555800D01*
X108049285Y-25555800D02*
X108096904Y-25508180D01*
X108096904Y-25508180D02*
X108144523Y-25412942D01*
X108144523Y-25412942D02*
X108144523Y-24603419D01*
X109144523Y-25603419D02*
X108573095Y-25603419D01*
X108858809Y-25603419D02*
X108858809Y-24603419D01*
X108858809Y-24603419D02*
X108763571Y-24746276D01*
X108763571Y-24746276D02*
X108668333Y-24841514D01*
X108668333Y-24841514D02*
X108573095Y-24889133D01*
X109390819Y-53143504D02*
X110200342Y-53143504D01*
X110200342Y-53143504D02*
X110295580Y-53095885D01*
X110295580Y-53095885D02*
X110343200Y-53048266D01*
X110343200Y-53048266D02*
X110390819Y-52953028D01*
X110390819Y-52953028D02*
X110390819Y-52762552D01*
X110390819Y-52762552D02*
X110343200Y-52667314D01*
X110343200Y-52667314D02*
X110295580Y-52619695D01*
X110295580Y-52619695D02*
X110200342Y-52572076D01*
X110200342Y-52572076D02*
X109390819Y-52572076D01*
X109486057Y-52143504D02*
X109438438Y-52095885D01*
X109438438Y-52095885D02*
X109390819Y-52000647D01*
X109390819Y-52000647D02*
X109390819Y-51762552D01*
X109390819Y-51762552D02*
X109438438Y-51667314D01*
X109438438Y-51667314D02*
X109486057Y-51619695D01*
X109486057Y-51619695D02*
X109581295Y-51572076D01*
X109581295Y-51572076D02*
X109676533Y-51572076D01*
X109676533Y-51572076D02*
X109819390Y-51619695D01*
X109819390Y-51619695D02*
X110390819Y-52191123D01*
X110390819Y-52191123D02*
X110390819Y-51572076D01*
X112430595Y-38703419D02*
X112430595Y-39512942D01*
X112430595Y-39512942D02*
X112478214Y-39608180D01*
X112478214Y-39608180D02*
X112525833Y-39655800D01*
X112525833Y-39655800D02*
X112621071Y-39703419D01*
X112621071Y-39703419D02*
X112811547Y-39703419D01*
X112811547Y-39703419D02*
X112906785Y-39655800D01*
X112906785Y-39655800D02*
X112954404Y-39608180D01*
X112954404Y-39608180D02*
X113002023Y-39512942D01*
X113002023Y-39512942D02*
X113002023Y-38703419D01*
X113382976Y-38703419D02*
X114002023Y-38703419D01*
X114002023Y-38703419D02*
X113668690Y-39084371D01*
X113668690Y-39084371D02*
X113811547Y-39084371D01*
X113811547Y-39084371D02*
X113906785Y-39131990D01*
X113906785Y-39131990D02*
X113954404Y-39179609D01*
X113954404Y-39179609D02*
X114002023Y-39274847D01*
X114002023Y-39274847D02*
X114002023Y-39512942D01*
X114002023Y-39512942D02*
X113954404Y-39608180D01*
X113954404Y-39608180D02*
X113906785Y-39655800D01*
X113906785Y-39655800D02*
X113811547Y-39703419D01*
X113811547Y-39703419D02*
X113525833Y-39703419D01*
X113525833Y-39703419D02*
X113430595Y-39655800D01*
X113430595Y-39655800D02*
X113382976Y-39608180D01*
X126115219Y-55780894D02*
X125115219Y-55780894D01*
X125115219Y-55780894D02*
X125115219Y-55542799D01*
X125115219Y-55542799D02*
X125162838Y-55399942D01*
X125162838Y-55399942D02*
X125258076Y-55304704D01*
X125258076Y-55304704D02*
X125353314Y-55257085D01*
X125353314Y-55257085D02*
X125543790Y-55209466D01*
X125543790Y-55209466D02*
X125686647Y-55209466D01*
X125686647Y-55209466D02*
X125877123Y-55257085D01*
X125877123Y-55257085D02*
X125972361Y-55304704D01*
X125972361Y-55304704D02*
X126067600Y-55399942D01*
X126067600Y-55399942D02*
X126115219Y-55542799D01*
X126115219Y-55542799D02*
X126115219Y-55780894D01*
X126115219Y-54733275D02*
X126115219Y-54542799D01*
X126115219Y-54542799D02*
X126067600Y-54447561D01*
X126067600Y-54447561D02*
X126019980Y-54399942D01*
X126019980Y-54399942D02*
X125877123Y-54304704D01*
X125877123Y-54304704D02*
X125686647Y-54257085D01*
X125686647Y-54257085D02*
X125305695Y-54257085D01*
X125305695Y-54257085D02*
X125210457Y-54304704D01*
X125210457Y-54304704D02*
X125162838Y-54352323D01*
X125162838Y-54352323D02*
X125115219Y-54447561D01*
X125115219Y-54447561D02*
X125115219Y-54638037D01*
X125115219Y-54638037D02*
X125162838Y-54733275D01*
X125162838Y-54733275D02*
X125210457Y-54780894D01*
X125210457Y-54780894D02*
X125305695Y-54828513D01*
X125305695Y-54828513D02*
X125543790Y-54828513D01*
X125543790Y-54828513D02*
X125639028Y-54780894D01*
X125639028Y-54780894D02*
X125686647Y-54733275D01*
X125686647Y-54733275D02*
X125734266Y-54638037D01*
X125734266Y-54638037D02*
X125734266Y-54447561D01*
X125734266Y-54447561D02*
X125686647Y-54352323D01*
X125686647Y-54352323D02*
X125639028Y-54304704D01*
X125639028Y-54304704D02*
X125543790Y-54257085D01*
X147114419Y-38762894D02*
X146114419Y-38762894D01*
X146114419Y-38762894D02*
X146114419Y-38524799D01*
X146114419Y-38524799D02*
X146162038Y-38381942D01*
X146162038Y-38381942D02*
X146257276Y-38286704D01*
X146257276Y-38286704D02*
X146352514Y-38239085D01*
X146352514Y-38239085D02*
X146542990Y-38191466D01*
X146542990Y-38191466D02*
X146685847Y-38191466D01*
X146685847Y-38191466D02*
X146876323Y-38239085D01*
X146876323Y-38239085D02*
X146971561Y-38286704D01*
X146971561Y-38286704D02*
X147066800Y-38381942D01*
X147066800Y-38381942D02*
X147114419Y-38524799D01*
X147114419Y-38524799D02*
X147114419Y-38762894D01*
X146542990Y-37620037D02*
X146495371Y-37715275D01*
X146495371Y-37715275D02*
X146447752Y-37762894D01*
X146447752Y-37762894D02*
X146352514Y-37810513D01*
X146352514Y-37810513D02*
X146304895Y-37810513D01*
X146304895Y-37810513D02*
X146209657Y-37762894D01*
X146209657Y-37762894D02*
X146162038Y-37715275D01*
X146162038Y-37715275D02*
X146114419Y-37620037D01*
X146114419Y-37620037D02*
X146114419Y-37429561D01*
X146114419Y-37429561D02*
X146162038Y-37334323D01*
X146162038Y-37334323D02*
X146209657Y-37286704D01*
X146209657Y-37286704D02*
X146304895Y-37239085D01*
X146304895Y-37239085D02*
X146352514Y-37239085D01*
X146352514Y-37239085D02*
X146447752Y-37286704D01*
X146447752Y-37286704D02*
X146495371Y-37334323D01*
X146495371Y-37334323D02*
X146542990Y-37429561D01*
X146542990Y-37429561D02*
X146542990Y-37620037D01*
X146542990Y-37620037D02*
X146590609Y-37715275D01*
X146590609Y-37715275D02*
X146638228Y-37762894D01*
X146638228Y-37762894D02*
X146733466Y-37810513D01*
X146733466Y-37810513D02*
X146923942Y-37810513D01*
X146923942Y-37810513D02*
X147019180Y-37762894D01*
X147019180Y-37762894D02*
X147066800Y-37715275D01*
X147066800Y-37715275D02*
X147114419Y-37620037D01*
X147114419Y-37620037D02*
X147114419Y-37429561D01*
X147114419Y-37429561D02*
X147066800Y-37334323D01*
X147066800Y-37334323D02*
X147019180Y-37286704D01*
X147019180Y-37286704D02*
X146923942Y-37239085D01*
X146923942Y-37239085D02*
X146733466Y-37239085D01*
X146733466Y-37239085D02*
X146638228Y-37286704D01*
X146638228Y-37286704D02*
X146590609Y-37334323D01*
X146590609Y-37334323D02*
X146542990Y-37429561D01*
X126674019Y-34597294D02*
X125674019Y-34597294D01*
X125674019Y-34597294D02*
X125674019Y-34359199D01*
X125674019Y-34359199D02*
X125721638Y-34216342D01*
X125721638Y-34216342D02*
X125816876Y-34121104D01*
X125816876Y-34121104D02*
X125912114Y-34073485D01*
X125912114Y-34073485D02*
X126102590Y-34025866D01*
X126102590Y-34025866D02*
X126245447Y-34025866D01*
X126245447Y-34025866D02*
X126435923Y-34073485D01*
X126435923Y-34073485D02*
X126531161Y-34121104D01*
X126531161Y-34121104D02*
X126626400Y-34216342D01*
X126626400Y-34216342D02*
X126674019Y-34359199D01*
X126674019Y-34359199D02*
X126674019Y-34597294D01*
X125674019Y-33168723D02*
X125674019Y-33359199D01*
X125674019Y-33359199D02*
X125721638Y-33454437D01*
X125721638Y-33454437D02*
X125769257Y-33502056D01*
X125769257Y-33502056D02*
X125912114Y-33597294D01*
X125912114Y-33597294D02*
X126102590Y-33644913D01*
X126102590Y-33644913D02*
X126483542Y-33644913D01*
X126483542Y-33644913D02*
X126578780Y-33597294D01*
X126578780Y-33597294D02*
X126626400Y-33549675D01*
X126626400Y-33549675D02*
X126674019Y-33454437D01*
X126674019Y-33454437D02*
X126674019Y-33263961D01*
X126674019Y-33263961D02*
X126626400Y-33168723D01*
X126626400Y-33168723D02*
X126578780Y-33121104D01*
X126578780Y-33121104D02*
X126483542Y-33073485D01*
X126483542Y-33073485D02*
X126245447Y-33073485D01*
X126245447Y-33073485D02*
X126150209Y-33121104D01*
X126150209Y-33121104D02*
X126102590Y-33168723D01*
X126102590Y-33168723D02*
X126054971Y-33263961D01*
X126054971Y-33263961D02*
X126054971Y-33454437D01*
X126054971Y-33454437D02*
X126102590Y-33549675D01*
X126102590Y-33549675D02*
X126150209Y-33597294D01*
X126150209Y-33597294D02*
X126245447Y-33644913D01*
D11*
%TO.C,D3*%
X104625800Y-64735200D02*
X104625800Y-66735200D01*
X104625800Y-64735200D02*
X108635800Y-64735200D01*
X104625800Y-66735200D02*
X108635800Y-66735200D01*
%TO.C,C10*%
X126524652Y-65581200D02*
X126002148Y-65581200D01*
X126524652Y-64111200D02*
X126002148Y-64111200D01*
%TO.C,C9*%
X106611052Y-63041200D02*
X106088548Y-63041200D01*
X106611052Y-61571200D02*
X106088548Y-61571200D01*
%TO.C,C2*%
X111894252Y-61720400D02*
X111371748Y-61720400D01*
X111894252Y-60250400D02*
X111371748Y-60250400D01*
%TO.C,C1*%
X116121548Y-61745800D02*
X116644052Y-61745800D01*
X116121548Y-60275800D02*
X116644052Y-60275800D01*
%TO.C,C3*%
X116096748Y-59604600D02*
X116619252Y-59604600D01*
X116096748Y-58134600D02*
X116619252Y-58134600D01*
%TO.C,C4*%
X118483000Y-55254852D02*
X118483000Y-54732348D01*
X119953000Y-55254852D02*
X119953000Y-54732348D01*
%TO.C,C6*%
X102560000Y-47247348D02*
X102560000Y-47769852D01*
X104030000Y-47247348D02*
X104030000Y-47769852D01*
%TO.C,C7*%
X106281252Y-41898600D02*
X105758748Y-41898600D01*
X106281252Y-43368600D02*
X105758748Y-43368600D01*
%TO.C,C8*%
X122861400Y-43180348D02*
X122861400Y-43702852D01*
X124331400Y-43180348D02*
X124331400Y-43702852D01*
%TO.C,C11*%
X108205000Y-47769852D02*
X108205000Y-47247348D01*
X106735000Y-47769852D02*
X106735000Y-47247348D01*
%TO.C,C12*%
X104239252Y-49548600D02*
X103716748Y-49548600D01*
X104239252Y-51018600D02*
X103716748Y-51018600D01*
%TO.C,C13*%
X104635000Y-47247348D02*
X104635000Y-47769852D01*
X106105000Y-47247348D02*
X106105000Y-47769852D01*
%TO.C,C14*%
X106268752Y-43942350D02*
X105746248Y-43942350D01*
X106268752Y-45412350D02*
X105746248Y-45412350D01*
D12*
%TO.C,J1*%
X109193900Y-74356500D02*
X109193900Y-75636500D01*
X118133900Y-75636500D02*
X118133900Y-74356500D01*
X109193900Y-70386500D02*
X109193900Y-71636500D01*
X118133900Y-70386500D02*
X118133900Y-71636500D01*
X110513900Y-67036500D02*
G75*
G02*
X110313900Y-67036500I-100000J0D01*
G01*
X110313900Y-67036500D02*
G75*
G02*
X110513900Y-67036500I100000J0D01*
G01*
D11*
%TO.C,R1*%
X118337000Y-64463664D02*
X118337000Y-64009536D01*
X116867000Y-64463664D02*
X116867000Y-64009536D01*
%TO.C,R2*%
X111199600Y-64438264D02*
X111199600Y-63984136D01*
X109729600Y-64438264D02*
X109729600Y-63984136D01*
%TO.C,R10*%
X120664264Y-51832200D02*
X120210136Y-51832200D01*
X120664264Y-50362200D02*
X120210136Y-50362200D01*
%TO.C,R12*%
X119953000Y-59096664D02*
X119953000Y-58642536D01*
X118483000Y-59096664D02*
X118483000Y-58642536D01*
D13*
%TO.C,S1*%
X129709800Y-24836400D02*
X129709800Y-40330400D01*
X129709800Y-40330400D02*
X145203800Y-40330400D01*
X145203800Y-40330400D02*
X145203800Y-24836400D01*
X145203800Y-24836400D02*
X129709800Y-24836400D01*
%TO.C,S2*%
X148666200Y-24765400D02*
X148666200Y-40259400D01*
X148666200Y-40259400D02*
X164160200Y-40259400D01*
X164160200Y-40259400D02*
X164160200Y-24765400D01*
X164160200Y-24765400D02*
X148666200Y-24765400D01*
%TO.C,S3*%
X129616200Y-41860200D02*
X129616200Y-57354200D01*
X129616200Y-57354200D02*
X145110200Y-57354200D01*
X145110200Y-57354200D02*
X145110200Y-41860200D01*
X145110200Y-41860200D02*
X129616200Y-41860200D01*
%TO.C,S4*%
X148666200Y-41911000D02*
X148666200Y-57405000D01*
X148666200Y-57405000D02*
X164160200Y-57405000D01*
X164160200Y-57405000D02*
X164160200Y-41911000D01*
X164160200Y-41911000D02*
X148666200Y-41911000D01*
D10*
%TO.C,SW1*%
X106388800Y-71629200D02*
G75*
G02*
X104388800Y-71629200I-1000000J0D01*
G01*
X104388800Y-71629200D02*
G75*
G02*
X106388800Y-71629200I1000000J0D01*
G01*
X107988800Y-74229200D02*
X102788800Y-74229200D01*
X107988800Y-69029200D02*
X107988800Y-74229200D01*
X102788800Y-69029200D02*
X107988800Y-69029200D01*
X102788800Y-74229200D02*
X102788800Y-69029200D01*
%TO.C,SW2*%
X127085600Y-71297800D02*
G75*
G02*
X125085600Y-71297800I-1000000J0D01*
G01*
X125085600Y-71297800D02*
G75*
G02*
X127085600Y-71297800I1000000J0D01*
G01*
X128685600Y-73897800D02*
X123485600Y-73897800D01*
X128685600Y-68697800D02*
X128685600Y-73897800D01*
X123485600Y-68697800D02*
X128685600Y-68697800D01*
X123485600Y-73897800D02*
X123485600Y-68697800D01*
D13*
%TO.C,U1*%
X105160000Y-40433600D02*
X105160000Y-40303600D01*
X123160000Y-40433600D02*
X123160000Y-40303600D01*
X105160000Y-26133600D02*
X105160000Y-26763600D01*
X105160000Y-40433600D02*
X123160000Y-40433600D01*
X123160000Y-26763600D02*
X123160000Y-26133600D01*
X123160000Y-26133600D02*
X105160000Y-26133600D01*
D12*
X104260000Y-27533600D02*
G75*
G02*
X104060000Y-27533600I-100000J0D01*
G01*
X104060000Y-27533600D02*
G75*
G02*
X104260000Y-27533600I100000J0D01*
G01*
%TO.C,U2*%
X112370000Y-55741600D02*
G75*
G02*
X112170000Y-55741600I-100000J0D01*
G01*
X112170000Y-55741600D02*
G75*
G02*
X112370000Y-55741600I100000J0D01*
G01*
D13*
X111270000Y-54741600D02*
X111270000Y-54241600D01*
X111270000Y-54741600D02*
X111770000Y-54741600D01*
X111270000Y-50241600D02*
X111270000Y-49741600D01*
X111270000Y-49741600D02*
X111770000Y-49741600D01*
X115770000Y-54741600D02*
X116270000Y-54741600D01*
X116270000Y-54741600D02*
X116270000Y-54241600D01*
X116270000Y-49741600D02*
X116270000Y-50241600D01*
X116270000Y-49741600D02*
X115770000Y-49741600D01*
%TO.C,U3*%
X111767500Y-41881100D02*
X115272500Y-41881100D01*
X115272500Y-41881100D02*
X115272500Y-48386100D01*
X115272500Y-48386100D02*
X111767500Y-48386100D01*
X111767500Y-48386100D02*
X111767500Y-41881100D01*
D12*
X108620000Y-42843600D02*
G75*
G02*
X108420000Y-42843600I-100000J0D01*
G01*
X108420000Y-42843600D02*
G75*
G02*
X108620000Y-42843600I100000J0D01*
G01*
D11*
%TO.C,R16*%
X120497064Y-43343600D02*
X120042936Y-43343600D01*
X120497064Y-41873600D02*
X120042936Y-41873600D01*
%TO.C,R15*%
X120110436Y-43910600D02*
X120564564Y-43910600D01*
X120110436Y-45380600D02*
X120564564Y-45380600D01*
%TO.C,R14*%
X120715064Y-49698600D02*
X120260936Y-49698600D01*
X120715064Y-48228600D02*
X120260936Y-48228600D01*
%TO.C,R13*%
X120715064Y-47666600D02*
X120260936Y-47666600D01*
X120715064Y-46196600D02*
X120260936Y-46196600D01*
%TO.C,R11*%
X122239000Y-54766536D02*
X122239000Y-55220664D01*
X120769000Y-54766536D02*
X120769000Y-55220664D01*
%TO.C,R9*%
X124525000Y-54781736D02*
X124525000Y-55235864D01*
X123055000Y-54781736D02*
X123055000Y-55235864D01*
%TO.C,R8*%
X114733400Y-64463664D02*
X114733400Y-64009536D01*
X116203400Y-64463664D02*
X116203400Y-64009536D01*
%TO.C,R7*%
X111837800Y-64440164D02*
X111837800Y-63986036D01*
X113307800Y-64440164D02*
X113307800Y-63986036D01*
D13*
%TO.C,Q2*%
X102263500Y-53535600D02*
X102263500Y-54424600D01*
X102263500Y-54424600D02*
X103025500Y-54424600D01*
X104422500Y-54424600D02*
X105184500Y-54424600D01*
X105184500Y-54424600D02*
X105184500Y-53535600D01*
%TO.C,Q1*%
X105565500Y-53535600D02*
X105565500Y-54424600D01*
X105565500Y-54424600D02*
X106327500Y-54424600D01*
X107724500Y-54424600D02*
X108486500Y-54424600D01*
X108486500Y-54424600D02*
X108486500Y-53535600D01*
D11*
%TO.C,D10*%
X146015200Y-54050000D02*
X148015200Y-54050000D01*
X146015200Y-54050000D02*
X146015200Y-50040000D01*
X148015200Y-54050000D02*
X148015200Y-50040000D01*
%TO.C,D9*%
X126660400Y-57402800D02*
X128660400Y-57402800D01*
X126660400Y-57402800D02*
X126660400Y-53392800D01*
X128660400Y-57402800D02*
X128660400Y-53392800D01*
%TO.C,D8*%
X145812000Y-36270000D02*
X147812000Y-36270000D01*
X145812000Y-36270000D02*
X145812000Y-32260000D01*
X147812000Y-36270000D02*
X147812000Y-32260000D01*
%TO.C,D6*%
X127219200Y-36219200D02*
X129219200Y-36219200D01*
X127219200Y-36219200D02*
X127219200Y-32209200D01*
X129219200Y-36219200D02*
X129219200Y-32209200D01*
%TO.C,C5*%
X116619252Y-57318600D02*
X116096748Y-57318600D01*
X116619252Y-55848600D02*
X116096748Y-55848600D01*
%TD*%
M02*
