%TF.GenerationSoftware,KiCad,Pcbnew,9.0.6*%
%TF.CreationDate,2026-07-31T17:23:16-04:00*%
%TF.ProjectId,PCB_Related,5043425f-5265-46c6-9174-65642e6b6963,rev?*%
%TF.SameCoordinates,Original*%
%TF.FileFunction,Legend,Top*%
%TF.FilePolarity,Positive*%
%FSLAX46Y46*%
G04 Gerber Fmt 4.6, Leading zero omitted, Abs format (unit mm)*
G04 Created by KiCad (PCBNEW 9.0.6) date 2026-07-31 17:23:16*
%MOMM*%
%LPD*%
G01*
G04 APERTURE LIST*
%ADD10C,0.150000*%
%ADD11C,0.120000*%
G04 APERTURE END LIST*
D10*
X73359580Y-68166666D02*
X73407200Y-68214285D01*
X73407200Y-68214285D02*
X73454819Y-68357142D01*
X73454819Y-68357142D02*
X73454819Y-68452380D01*
X73454819Y-68452380D02*
X73407200Y-68595237D01*
X73407200Y-68595237D02*
X73311961Y-68690475D01*
X73311961Y-68690475D02*
X73216723Y-68738094D01*
X73216723Y-68738094D02*
X73026247Y-68785713D01*
X73026247Y-68785713D02*
X72883390Y-68785713D01*
X72883390Y-68785713D02*
X72692914Y-68738094D01*
X72692914Y-68738094D02*
X72597676Y-68690475D01*
X72597676Y-68690475D02*
X72502438Y-68595237D01*
X72502438Y-68595237D02*
X72454819Y-68452380D01*
X72454819Y-68452380D02*
X72454819Y-68357142D01*
X72454819Y-68357142D02*
X72502438Y-68214285D01*
X72502438Y-68214285D02*
X72550057Y-68166666D01*
X73454819Y-67690475D02*
X73454819Y-67499999D01*
X73454819Y-67499999D02*
X73407200Y-67404761D01*
X73407200Y-67404761D02*
X73359580Y-67357142D01*
X73359580Y-67357142D02*
X73216723Y-67261904D01*
X73216723Y-67261904D02*
X73026247Y-67214285D01*
X73026247Y-67214285D02*
X72645295Y-67214285D01*
X72645295Y-67214285D02*
X72550057Y-67261904D01*
X72550057Y-67261904D02*
X72502438Y-67309523D01*
X72502438Y-67309523D02*
X72454819Y-67404761D01*
X72454819Y-67404761D02*
X72454819Y-67595237D01*
X72454819Y-67595237D02*
X72502438Y-67690475D01*
X72502438Y-67690475D02*
X72550057Y-67738094D01*
X72550057Y-67738094D02*
X72645295Y-67785713D01*
X72645295Y-67785713D02*
X72883390Y-67785713D01*
X72883390Y-67785713D02*
X72978628Y-67738094D01*
X72978628Y-67738094D02*
X73026247Y-67690475D01*
X73026247Y-67690475D02*
X73073866Y-67595237D01*
X73073866Y-67595237D02*
X73073866Y-67404761D01*
X73073866Y-67404761D02*
X73026247Y-67309523D01*
X73026247Y-67309523D02*
X72978628Y-67261904D01*
X72978628Y-67261904D02*
X72883390Y-67214285D01*
X82833333Y-83679580D02*
X82785714Y-83727200D01*
X82785714Y-83727200D02*
X82642857Y-83774819D01*
X82642857Y-83774819D02*
X82547619Y-83774819D01*
X82547619Y-83774819D02*
X82404762Y-83727200D01*
X82404762Y-83727200D02*
X82309524Y-83631961D01*
X82309524Y-83631961D02*
X82261905Y-83536723D01*
X82261905Y-83536723D02*
X82214286Y-83346247D01*
X82214286Y-83346247D02*
X82214286Y-83203390D01*
X82214286Y-83203390D02*
X82261905Y-83012914D01*
X82261905Y-83012914D02*
X82309524Y-82917676D01*
X82309524Y-82917676D02*
X82404762Y-82822438D01*
X82404762Y-82822438D02*
X82547619Y-82774819D01*
X82547619Y-82774819D02*
X82642857Y-82774819D01*
X82642857Y-82774819D02*
X82785714Y-82822438D01*
X82785714Y-82822438D02*
X82833333Y-82870057D01*
X83404762Y-83203390D02*
X83309524Y-83155771D01*
X83309524Y-83155771D02*
X83261905Y-83108152D01*
X83261905Y-83108152D02*
X83214286Y-83012914D01*
X83214286Y-83012914D02*
X83214286Y-82965295D01*
X83214286Y-82965295D02*
X83261905Y-82870057D01*
X83261905Y-82870057D02*
X83309524Y-82822438D01*
X83309524Y-82822438D02*
X83404762Y-82774819D01*
X83404762Y-82774819D02*
X83595238Y-82774819D01*
X83595238Y-82774819D02*
X83690476Y-82822438D01*
X83690476Y-82822438D02*
X83738095Y-82870057D01*
X83738095Y-82870057D02*
X83785714Y-82965295D01*
X83785714Y-82965295D02*
X83785714Y-83012914D01*
X83785714Y-83012914D02*
X83738095Y-83108152D01*
X83738095Y-83108152D02*
X83690476Y-83155771D01*
X83690476Y-83155771D02*
X83595238Y-83203390D01*
X83595238Y-83203390D02*
X83404762Y-83203390D01*
X83404762Y-83203390D02*
X83309524Y-83251009D01*
X83309524Y-83251009D02*
X83261905Y-83298628D01*
X83261905Y-83298628D02*
X83214286Y-83393866D01*
X83214286Y-83393866D02*
X83214286Y-83584342D01*
X83214286Y-83584342D02*
X83261905Y-83679580D01*
X83261905Y-83679580D02*
X83309524Y-83727200D01*
X83309524Y-83727200D02*
X83404762Y-83774819D01*
X83404762Y-83774819D02*
X83595238Y-83774819D01*
X83595238Y-83774819D02*
X83690476Y-83727200D01*
X83690476Y-83727200D02*
X83738095Y-83679580D01*
X83738095Y-83679580D02*
X83785714Y-83584342D01*
X83785714Y-83584342D02*
X83785714Y-83393866D01*
X83785714Y-83393866D02*
X83738095Y-83298628D01*
X83738095Y-83298628D02*
X83690476Y-83251009D01*
X83690476Y-83251009D02*
X83595238Y-83203390D01*
X64649905Y-63280819D02*
X64649905Y-64090342D01*
X64649905Y-64090342D02*
X64697524Y-64185580D01*
X64697524Y-64185580D02*
X64745143Y-64233200D01*
X64745143Y-64233200D02*
X64840381Y-64280819D01*
X64840381Y-64280819D02*
X65030857Y-64280819D01*
X65030857Y-64280819D02*
X65126095Y-64233200D01*
X65126095Y-64233200D02*
X65173714Y-64185580D01*
X65173714Y-64185580D02*
X65221333Y-64090342D01*
X65221333Y-64090342D02*
X65221333Y-63280819D01*
X65649905Y-64233200D02*
X65792762Y-64280819D01*
X65792762Y-64280819D02*
X66030857Y-64280819D01*
X66030857Y-64280819D02*
X66126095Y-64233200D01*
X66126095Y-64233200D02*
X66173714Y-64185580D01*
X66173714Y-64185580D02*
X66221333Y-64090342D01*
X66221333Y-64090342D02*
X66221333Y-63995104D01*
X66221333Y-63995104D02*
X66173714Y-63899866D01*
X66173714Y-63899866D02*
X66126095Y-63852247D01*
X66126095Y-63852247D02*
X66030857Y-63804628D01*
X66030857Y-63804628D02*
X65840381Y-63757009D01*
X65840381Y-63757009D02*
X65745143Y-63709390D01*
X65745143Y-63709390D02*
X65697524Y-63661771D01*
X65697524Y-63661771D02*
X65649905Y-63566533D01*
X65649905Y-63566533D02*
X65649905Y-63471295D01*
X65649905Y-63471295D02*
X65697524Y-63376057D01*
X65697524Y-63376057D02*
X65745143Y-63328438D01*
X65745143Y-63328438D02*
X65840381Y-63280819D01*
X65840381Y-63280819D02*
X66078476Y-63280819D01*
X66078476Y-63280819D02*
X66221333Y-63328438D01*
X66983238Y-63757009D02*
X67126095Y-63804628D01*
X67126095Y-63804628D02*
X67173714Y-63852247D01*
X67173714Y-63852247D02*
X67221333Y-63947485D01*
X67221333Y-63947485D02*
X67221333Y-64090342D01*
X67221333Y-64090342D02*
X67173714Y-64185580D01*
X67173714Y-64185580D02*
X67126095Y-64233200D01*
X67126095Y-64233200D02*
X67030857Y-64280819D01*
X67030857Y-64280819D02*
X66649905Y-64280819D01*
X66649905Y-64280819D02*
X66649905Y-63280819D01*
X66649905Y-63280819D02*
X66983238Y-63280819D01*
X66983238Y-63280819D02*
X67078476Y-63328438D01*
X67078476Y-63328438D02*
X67126095Y-63376057D01*
X67126095Y-63376057D02*
X67173714Y-63471295D01*
X67173714Y-63471295D02*
X67173714Y-63566533D01*
X67173714Y-63566533D02*
X67126095Y-63661771D01*
X67126095Y-63661771D02*
X67078476Y-63709390D01*
X67078476Y-63709390D02*
X66983238Y-63757009D01*
X66983238Y-63757009D02*
X66649905Y-63757009D01*
X68173714Y-64280819D02*
X67602286Y-64280819D01*
X67888000Y-64280819D02*
X67888000Y-63280819D01*
X67888000Y-63280819D02*
X67792762Y-63423676D01*
X67792762Y-63423676D02*
X67697524Y-63518914D01*
X67697524Y-63518914D02*
X67602286Y-63566533D01*
X96523809Y-86478628D02*
X96523809Y-86954819D01*
X96190476Y-85954819D02*
X96523809Y-86478628D01*
X96523809Y-86478628D02*
X96857142Y-85954819D01*
X97714285Y-86954819D02*
X97142857Y-86954819D01*
X97428571Y-86954819D02*
X97428571Y-85954819D01*
X97428571Y-85954819D02*
X97333333Y-86097676D01*
X97333333Y-86097676D02*
X97238095Y-86192914D01*
X97238095Y-86192914D02*
X97142857Y-86240533D01*
X85125595Y-67604819D02*
X85125595Y-68414342D01*
X85125595Y-68414342D02*
X85173214Y-68509580D01*
X85173214Y-68509580D02*
X85220833Y-68557200D01*
X85220833Y-68557200D02*
X85316071Y-68604819D01*
X85316071Y-68604819D02*
X85506547Y-68604819D01*
X85506547Y-68604819D02*
X85601785Y-68557200D01*
X85601785Y-68557200D02*
X85649404Y-68509580D01*
X85649404Y-68509580D02*
X85697023Y-68414342D01*
X85697023Y-68414342D02*
X85697023Y-67604819D01*
X86697023Y-68604819D02*
X86125595Y-68604819D01*
X86411309Y-68604819D02*
X86411309Y-67604819D01*
X86411309Y-67604819D02*
X86316071Y-67747676D01*
X86316071Y-67747676D02*
X86220833Y-67842914D01*
X86220833Y-67842914D02*
X86125595Y-67890533D01*
X61843200Y-93833332D02*
X61890819Y-93690475D01*
X61890819Y-93690475D02*
X61890819Y-93452380D01*
X61890819Y-93452380D02*
X61843200Y-93357142D01*
X61843200Y-93357142D02*
X61795580Y-93309523D01*
X61795580Y-93309523D02*
X61700342Y-93261904D01*
X61700342Y-93261904D02*
X61605104Y-93261904D01*
X61605104Y-93261904D02*
X61509866Y-93309523D01*
X61509866Y-93309523D02*
X61462247Y-93357142D01*
X61462247Y-93357142D02*
X61414628Y-93452380D01*
X61414628Y-93452380D02*
X61367009Y-93642856D01*
X61367009Y-93642856D02*
X61319390Y-93738094D01*
X61319390Y-93738094D02*
X61271771Y-93785713D01*
X61271771Y-93785713D02*
X61176533Y-93833332D01*
X61176533Y-93833332D02*
X61081295Y-93833332D01*
X61081295Y-93833332D02*
X60986057Y-93785713D01*
X60986057Y-93785713D02*
X60938438Y-93738094D01*
X60938438Y-93738094D02*
X60890819Y-93642856D01*
X60890819Y-93642856D02*
X60890819Y-93404761D01*
X60890819Y-93404761D02*
X60938438Y-93261904D01*
X60890819Y-92928570D02*
X61890819Y-92690475D01*
X61890819Y-92690475D02*
X61176533Y-92499999D01*
X61176533Y-92499999D02*
X61890819Y-92309523D01*
X61890819Y-92309523D02*
X60890819Y-92071428D01*
X61890819Y-91166666D02*
X61890819Y-91738094D01*
X61890819Y-91452380D02*
X60890819Y-91452380D01*
X60890819Y-91452380D02*
X61033676Y-91547618D01*
X61033676Y-91547618D02*
X61128914Y-91642856D01*
X61128914Y-91642856D02*
X61176533Y-91738094D01*
X77833333Y-87104819D02*
X77500000Y-86628628D01*
X77261905Y-87104819D02*
X77261905Y-86104819D01*
X77261905Y-86104819D02*
X77642857Y-86104819D01*
X77642857Y-86104819D02*
X77738095Y-86152438D01*
X77738095Y-86152438D02*
X77785714Y-86200057D01*
X77785714Y-86200057D02*
X77833333Y-86295295D01*
X77833333Y-86295295D02*
X77833333Y-86438152D01*
X77833333Y-86438152D02*
X77785714Y-86533390D01*
X77785714Y-86533390D02*
X77738095Y-86581009D01*
X77738095Y-86581009D02*
X77642857Y-86628628D01*
X77642857Y-86628628D02*
X77261905Y-86628628D01*
X78690476Y-86438152D02*
X78690476Y-87104819D01*
X78452381Y-86057200D02*
X78214286Y-86771485D01*
X78214286Y-86771485D02*
X78833333Y-86771485D01*
X98604819Y-72166666D02*
X98128628Y-72499999D01*
X98604819Y-72738094D02*
X97604819Y-72738094D01*
X97604819Y-72738094D02*
X97604819Y-72357142D01*
X97604819Y-72357142D02*
X97652438Y-72261904D01*
X97652438Y-72261904D02*
X97700057Y-72214285D01*
X97700057Y-72214285D02*
X97795295Y-72166666D01*
X97795295Y-72166666D02*
X97938152Y-72166666D01*
X97938152Y-72166666D02*
X98033390Y-72214285D01*
X98033390Y-72214285D02*
X98081009Y-72261904D01*
X98081009Y-72261904D02*
X98128628Y-72357142D01*
X98128628Y-72357142D02*
X98128628Y-72738094D01*
X97604819Y-71833332D02*
X97604819Y-71214285D01*
X97604819Y-71214285D02*
X97985771Y-71547618D01*
X97985771Y-71547618D02*
X97985771Y-71404761D01*
X97985771Y-71404761D02*
X98033390Y-71309523D01*
X98033390Y-71309523D02*
X98081009Y-71261904D01*
X98081009Y-71261904D02*
X98176247Y-71214285D01*
X98176247Y-71214285D02*
X98414342Y-71214285D01*
X98414342Y-71214285D02*
X98509580Y-71261904D01*
X98509580Y-71261904D02*
X98557200Y-71309523D01*
X98557200Y-71309523D02*
X98604819Y-71404761D01*
X98604819Y-71404761D02*
X98604819Y-71690475D01*
X98604819Y-71690475D02*
X98557200Y-71785713D01*
X98557200Y-71785713D02*
X98509580Y-71833332D01*
X71166666Y-69101009D02*
X70833333Y-69101009D01*
X70833333Y-69624819D02*
X70833333Y-68624819D01*
X70833333Y-68624819D02*
X71309523Y-68624819D01*
X72214285Y-69624819D02*
X71642857Y-69624819D01*
X71928571Y-69624819D02*
X71928571Y-68624819D01*
X71928571Y-68624819D02*
X71833333Y-68767676D01*
X71833333Y-68767676D02*
X71738095Y-68862914D01*
X71738095Y-68862914D02*
X71642857Y-68910533D01*
X127786905Y-78718819D02*
X127786905Y-77718819D01*
X127786905Y-77718819D02*
X128025000Y-77718819D01*
X128025000Y-77718819D02*
X128167857Y-77766438D01*
X128167857Y-77766438D02*
X128263095Y-77861676D01*
X128263095Y-77861676D02*
X128310714Y-77956914D01*
X128310714Y-77956914D02*
X128358333Y-78147390D01*
X128358333Y-78147390D02*
X128358333Y-78290247D01*
X128358333Y-78290247D02*
X128310714Y-78480723D01*
X128310714Y-78480723D02*
X128263095Y-78575961D01*
X128263095Y-78575961D02*
X128167857Y-78671200D01*
X128167857Y-78671200D02*
X128025000Y-78718819D01*
X128025000Y-78718819D02*
X127786905Y-78718819D01*
X129215476Y-78052152D02*
X129215476Y-78718819D01*
X128977381Y-77671200D02*
X128739286Y-78385485D01*
X128739286Y-78385485D02*
X129358333Y-78385485D01*
X108355905Y-78845819D02*
X108355905Y-77845819D01*
X108355905Y-77845819D02*
X108594000Y-77845819D01*
X108594000Y-77845819D02*
X108736857Y-77893438D01*
X108736857Y-77893438D02*
X108832095Y-77988676D01*
X108832095Y-77988676D02*
X108879714Y-78083914D01*
X108879714Y-78083914D02*
X108927333Y-78274390D01*
X108927333Y-78274390D02*
X108927333Y-78417247D01*
X108927333Y-78417247D02*
X108879714Y-78607723D01*
X108879714Y-78607723D02*
X108832095Y-78702961D01*
X108832095Y-78702961D02*
X108736857Y-78798200D01*
X108736857Y-78798200D02*
X108594000Y-78845819D01*
X108594000Y-78845819D02*
X108355905Y-78845819D01*
X109260667Y-77845819D02*
X109879714Y-77845819D01*
X109879714Y-77845819D02*
X109546381Y-78226771D01*
X109546381Y-78226771D02*
X109689238Y-78226771D01*
X109689238Y-78226771D02*
X109784476Y-78274390D01*
X109784476Y-78274390D02*
X109832095Y-78322009D01*
X109832095Y-78322009D02*
X109879714Y-78417247D01*
X109879714Y-78417247D02*
X109879714Y-78655342D01*
X109879714Y-78655342D02*
X109832095Y-78750580D01*
X109832095Y-78750580D02*
X109784476Y-78798200D01*
X109784476Y-78798200D02*
X109689238Y-78845819D01*
X109689238Y-78845819D02*
X109403524Y-78845819D01*
X109403524Y-78845819D02*
X109308286Y-78798200D01*
X109308286Y-78798200D02*
X109260667Y-78750580D01*
X127761905Y-61954819D02*
X127761905Y-60954819D01*
X127761905Y-60954819D02*
X128000000Y-60954819D01*
X128000000Y-60954819D02*
X128142857Y-61002438D01*
X128142857Y-61002438D02*
X128238095Y-61097676D01*
X128238095Y-61097676D02*
X128285714Y-61192914D01*
X128285714Y-61192914D02*
X128333333Y-61383390D01*
X128333333Y-61383390D02*
X128333333Y-61526247D01*
X128333333Y-61526247D02*
X128285714Y-61716723D01*
X128285714Y-61716723D02*
X128238095Y-61811961D01*
X128238095Y-61811961D02*
X128142857Y-61907200D01*
X128142857Y-61907200D02*
X128000000Y-61954819D01*
X128000000Y-61954819D02*
X127761905Y-61954819D01*
X128714286Y-61050057D02*
X128761905Y-61002438D01*
X128761905Y-61002438D02*
X128857143Y-60954819D01*
X128857143Y-60954819D02*
X129095238Y-60954819D01*
X129095238Y-60954819D02*
X129190476Y-61002438D01*
X129190476Y-61002438D02*
X129238095Y-61050057D01*
X129238095Y-61050057D02*
X129285714Y-61145295D01*
X129285714Y-61145295D02*
X129285714Y-61240533D01*
X129285714Y-61240533D02*
X129238095Y-61383390D01*
X129238095Y-61383390D02*
X128666667Y-61954819D01*
X128666667Y-61954819D02*
X129285714Y-61954819D01*
X90883333Y-93359580D02*
X90835714Y-93407200D01*
X90835714Y-93407200D02*
X90692857Y-93454819D01*
X90692857Y-93454819D02*
X90597619Y-93454819D01*
X90597619Y-93454819D02*
X90454762Y-93407200D01*
X90454762Y-93407200D02*
X90359524Y-93311961D01*
X90359524Y-93311961D02*
X90311905Y-93216723D01*
X90311905Y-93216723D02*
X90264286Y-93026247D01*
X90264286Y-93026247D02*
X90264286Y-92883390D01*
X90264286Y-92883390D02*
X90311905Y-92692914D01*
X90311905Y-92692914D02*
X90359524Y-92597676D01*
X90359524Y-92597676D02*
X90454762Y-92502438D01*
X90454762Y-92502438D02*
X90597619Y-92454819D01*
X90597619Y-92454819D02*
X90692857Y-92454819D01*
X90692857Y-92454819D02*
X90835714Y-92502438D01*
X90835714Y-92502438D02*
X90883333Y-92550057D01*
X91740476Y-92454819D02*
X91550000Y-92454819D01*
X91550000Y-92454819D02*
X91454762Y-92502438D01*
X91454762Y-92502438D02*
X91407143Y-92550057D01*
X91407143Y-92550057D02*
X91311905Y-92692914D01*
X91311905Y-92692914D02*
X91264286Y-92883390D01*
X91264286Y-92883390D02*
X91264286Y-93264342D01*
X91264286Y-93264342D02*
X91311905Y-93359580D01*
X91311905Y-93359580D02*
X91359524Y-93407200D01*
X91359524Y-93407200D02*
X91454762Y-93454819D01*
X91454762Y-93454819D02*
X91645238Y-93454819D01*
X91645238Y-93454819D02*
X91740476Y-93407200D01*
X91740476Y-93407200D02*
X91788095Y-93359580D01*
X91788095Y-93359580D02*
X91835714Y-93264342D01*
X91835714Y-93264342D02*
X91835714Y-93026247D01*
X91835714Y-93026247D02*
X91788095Y-92931009D01*
X91788095Y-92931009D02*
X91740476Y-92883390D01*
X91740476Y-92883390D02*
X91645238Y-92835771D01*
X91645238Y-92835771D02*
X91454762Y-92835771D01*
X91454762Y-92835771D02*
X91359524Y-92883390D01*
X91359524Y-92883390D02*
X91311905Y-92931009D01*
X91311905Y-92931009D02*
X91264286Y-93026247D01*
X96383333Y-77679580D02*
X96335714Y-77727200D01*
X96335714Y-77727200D02*
X96192857Y-77774819D01*
X96192857Y-77774819D02*
X96097619Y-77774819D01*
X96097619Y-77774819D02*
X95954762Y-77727200D01*
X95954762Y-77727200D02*
X95859524Y-77631961D01*
X95859524Y-77631961D02*
X95811905Y-77536723D01*
X95811905Y-77536723D02*
X95764286Y-77346247D01*
X95764286Y-77346247D02*
X95764286Y-77203390D01*
X95764286Y-77203390D02*
X95811905Y-77012914D01*
X95811905Y-77012914D02*
X95859524Y-76917676D01*
X95859524Y-76917676D02*
X95954762Y-76822438D01*
X95954762Y-76822438D02*
X96097619Y-76774819D01*
X96097619Y-76774819D02*
X96192857Y-76774819D01*
X96192857Y-76774819D02*
X96335714Y-76822438D01*
X96335714Y-76822438D02*
X96383333Y-76870057D01*
X97288095Y-76774819D02*
X96811905Y-76774819D01*
X96811905Y-76774819D02*
X96764286Y-77251009D01*
X96764286Y-77251009D02*
X96811905Y-77203390D01*
X96811905Y-77203390D02*
X96907143Y-77155771D01*
X96907143Y-77155771D02*
X97145238Y-77155771D01*
X97145238Y-77155771D02*
X97240476Y-77203390D01*
X97240476Y-77203390D02*
X97288095Y-77251009D01*
X97288095Y-77251009D02*
X97335714Y-77346247D01*
X97335714Y-77346247D02*
X97335714Y-77584342D01*
X97335714Y-77584342D02*
X97288095Y-77679580D01*
X97288095Y-77679580D02*
X97240476Y-77727200D01*
X97240476Y-77727200D02*
X97145238Y-77774819D01*
X97145238Y-77774819D02*
X96907143Y-77774819D01*
X96907143Y-77774819D02*
X96811905Y-77727200D01*
X96811905Y-77727200D02*
X96764286Y-77679580D01*
X73322080Y-80166666D02*
X73369700Y-80214285D01*
X73369700Y-80214285D02*
X73417319Y-80357142D01*
X73417319Y-80357142D02*
X73417319Y-80452380D01*
X73417319Y-80452380D02*
X73369700Y-80595237D01*
X73369700Y-80595237D02*
X73274461Y-80690475D01*
X73274461Y-80690475D02*
X73179223Y-80738094D01*
X73179223Y-80738094D02*
X72988747Y-80785713D01*
X72988747Y-80785713D02*
X72845890Y-80785713D01*
X72845890Y-80785713D02*
X72655414Y-80738094D01*
X72655414Y-80738094D02*
X72560176Y-80690475D01*
X72560176Y-80690475D02*
X72464938Y-80595237D01*
X72464938Y-80595237D02*
X72417319Y-80452380D01*
X72417319Y-80452380D02*
X72417319Y-80357142D01*
X72417319Y-80357142D02*
X72464938Y-80214285D01*
X72464938Y-80214285D02*
X72512557Y-80166666D01*
X72750652Y-79309523D02*
X73417319Y-79309523D01*
X72369700Y-79547618D02*
X73083985Y-79785713D01*
X73083985Y-79785713D02*
X73083985Y-79166666D01*
X80883333Y-64679580D02*
X80835714Y-64727200D01*
X80835714Y-64727200D02*
X80692857Y-64774819D01*
X80692857Y-64774819D02*
X80597619Y-64774819D01*
X80597619Y-64774819D02*
X80454762Y-64727200D01*
X80454762Y-64727200D02*
X80359524Y-64631961D01*
X80359524Y-64631961D02*
X80311905Y-64536723D01*
X80311905Y-64536723D02*
X80264286Y-64346247D01*
X80264286Y-64346247D02*
X80264286Y-64203390D01*
X80264286Y-64203390D02*
X80311905Y-64012914D01*
X80311905Y-64012914D02*
X80359524Y-63917676D01*
X80359524Y-63917676D02*
X80454762Y-63822438D01*
X80454762Y-63822438D02*
X80597619Y-63774819D01*
X80597619Y-63774819D02*
X80692857Y-63774819D01*
X80692857Y-63774819D02*
X80835714Y-63822438D01*
X80835714Y-63822438D02*
X80883333Y-63870057D01*
X81264286Y-63870057D02*
X81311905Y-63822438D01*
X81311905Y-63822438D02*
X81407143Y-63774819D01*
X81407143Y-63774819D02*
X81645238Y-63774819D01*
X81645238Y-63774819D02*
X81740476Y-63822438D01*
X81740476Y-63822438D02*
X81788095Y-63870057D01*
X81788095Y-63870057D02*
X81835714Y-63965295D01*
X81835714Y-63965295D02*
X81835714Y-64060533D01*
X81835714Y-64060533D02*
X81788095Y-64203390D01*
X81788095Y-64203390D02*
X81216667Y-64774819D01*
X81216667Y-64774819D02*
X81835714Y-64774819D01*
X73322080Y-77166666D02*
X73369700Y-77214285D01*
X73369700Y-77214285D02*
X73417319Y-77357142D01*
X73417319Y-77357142D02*
X73417319Y-77452380D01*
X73417319Y-77452380D02*
X73369700Y-77595237D01*
X73369700Y-77595237D02*
X73274461Y-77690475D01*
X73274461Y-77690475D02*
X73179223Y-77738094D01*
X73179223Y-77738094D02*
X72988747Y-77785713D01*
X72988747Y-77785713D02*
X72845890Y-77785713D01*
X72845890Y-77785713D02*
X72655414Y-77738094D01*
X72655414Y-77738094D02*
X72560176Y-77690475D01*
X72560176Y-77690475D02*
X72464938Y-77595237D01*
X72464938Y-77595237D02*
X72417319Y-77452380D01*
X72417319Y-77452380D02*
X72417319Y-77357142D01*
X72417319Y-77357142D02*
X72464938Y-77214285D01*
X72464938Y-77214285D02*
X72512557Y-77166666D01*
X73417319Y-76214285D02*
X73417319Y-76785713D01*
X73417319Y-76499999D02*
X72417319Y-76499999D01*
X72417319Y-76499999D02*
X72560176Y-76595237D01*
X72560176Y-76595237D02*
X72655414Y-76690475D01*
X72655414Y-76690475D02*
X72703033Y-76785713D01*
D11*
%TO.C,R2*%
X67265000Y-71272936D02*
X67265000Y-71727064D01*
X68735000Y-71272936D02*
X68735000Y-71727064D01*
%TO.C,C9*%
X75811252Y-68235000D02*
X75288748Y-68235000D01*
X75811252Y-66765000D02*
X75288748Y-66765000D01*
%TO.C,C8*%
X82738748Y-84265000D02*
X83261252Y-84265000D01*
X82738748Y-85735000D02*
X83261252Y-85735000D01*
D10*
%TO.C,USB1*%
X70238000Y-67244000D02*
X62538000Y-67244000D01*
X62538000Y-61794000D02*
X62538000Y-67244000D01*
X70238000Y-61794000D02*
X70238000Y-67244000D01*
D11*
%TO.C,C7*%
X93288748Y-86735000D02*
X93811252Y-86735000D01*
X93288748Y-85265000D02*
X93811252Y-85265000D01*
%TO.C,Y1*%
X91090000Y-87640000D02*
X91090000Y-91060000D01*
X91090000Y-91060000D02*
X95210000Y-91060000D01*
%TO.C,U1*%
X80777500Y-70390000D02*
X81352500Y-70390000D01*
X80777500Y-70965000D02*
X80777500Y-70390000D01*
X80777500Y-80610000D02*
X80777500Y-80035000D01*
X81352500Y-80610000D02*
X80777500Y-80610000D01*
X90422500Y-70390000D02*
X90997500Y-70390000D01*
X90997500Y-70390000D02*
X90997500Y-70965000D01*
X90997500Y-80035000D02*
X90997500Y-80610000D01*
X90997500Y-80610000D02*
X90422500Y-80610000D01*
X80137500Y-70960000D02*
X79797500Y-70490000D01*
X80477500Y-70490000D01*
X80137500Y-70960000D01*
G36*
X80137500Y-70960000D02*
G01*
X79797500Y-70490000D01*
X80477500Y-70490000D01*
X80137500Y-70960000D01*
G37*
D10*
%TO.C,SW1*%
X66500000Y-92500000D02*
G75*
G02*
X64500000Y-92500000I-1000000J0D01*
G01*
X64500000Y-92500000D02*
G75*
G02*
X66500000Y-92500000I1000000J0D01*
G01*
X62900000Y-89900000D02*
X68100000Y-89900000D01*
X62900000Y-95100000D02*
X62900000Y-89900000D01*
X68100000Y-95100000D02*
X62900000Y-95100000D01*
X68100000Y-89900000D02*
X68100000Y-95100000D01*
D11*
%TO.C,R4*%
X78227064Y-85735000D02*
X77772936Y-85735000D01*
X78227064Y-84265000D02*
X77772936Y-84265000D01*
%TO.C,R3*%
X97235000Y-71772936D02*
X97235000Y-72227064D01*
X95765000Y-71772936D02*
X95765000Y-72227064D01*
%TO.C,R1*%
X66235000Y-71272936D02*
X66235000Y-71727064D01*
X64765000Y-71272936D02*
X64765000Y-71727064D01*
%TO.C,F1*%
X70897936Y-71910000D02*
X72102064Y-71910000D01*
X70897936Y-70090000D02*
X72102064Y-70090000D01*
%TO.C,D4*%
X126165000Y-79264000D02*
X126165000Y-81264000D01*
X126165000Y-79264000D02*
X130175000Y-79264000D01*
X126165000Y-81264000D02*
X130175000Y-81264000D01*
%TO.C,D3*%
X106734000Y-79391000D02*
X106734000Y-81391000D01*
X106734000Y-79391000D02*
X110744000Y-79391000D01*
X106734000Y-81391000D02*
X110744000Y-81391000D01*
%TO.C,D2*%
X125910000Y-60341000D02*
X125910000Y-62341000D01*
X125910000Y-60341000D02*
X129920000Y-60341000D01*
X125910000Y-62341000D02*
X129920000Y-62341000D01*
%TO.C,D1*%
X107115000Y-60341000D02*
X107115000Y-62341000D01*
X107115000Y-60341000D02*
X111125000Y-60341000D01*
X107115000Y-62341000D02*
X111125000Y-62341000D01*
%TO.C,C6*%
X93811252Y-93735000D02*
X93288748Y-93735000D01*
X93811252Y-92265000D02*
X93288748Y-92265000D01*
%TO.C,C5*%
X96288748Y-78265000D02*
X96811252Y-78265000D01*
X96288748Y-79735000D02*
X96811252Y-79735000D01*
%TO.C,C4*%
X75723752Y-80735000D02*
X75201248Y-80735000D01*
X75723752Y-79265000D02*
X75201248Y-79265000D01*
%TO.C,C3*%
X89311252Y-66735000D02*
X88788748Y-66735000D01*
X89311252Y-65265000D02*
X88788748Y-65265000D01*
%TO.C,C2*%
X80788748Y-65265000D02*
X81311252Y-65265000D01*
X80788748Y-66735000D02*
X81311252Y-66735000D01*
%TO.C,C1*%
X75773752Y-76265000D02*
X75251248Y-76265000D01*
X75773752Y-77735000D02*
X75251248Y-77735000D01*
%TD*%
M02*
