%TF.GenerationSoftware,KiCad,Pcbnew,9.0.6*%
%TF.CreationDate,2026-08-04T16:10:33-04:00*%
%TF.ProjectId,PCB_Related,5043425f-5265-46c6-9174-65642e6b6963,rev?*%
%TF.SameCoordinates,Original*%
%TF.FileFunction,Copper,L1,Top*%
%TF.FilePolarity,Positive*%
%FSLAX46Y46*%
G04 Gerber Fmt 4.6, Leading zero omitted, Abs format (unit mm)*
G04 Created by KiCad (PCBNEW 9.0.6) date 2026-08-04 16:10:33*
%MOMM*%
%LPD*%
G01*
G04 APERTURE LIST*
G04 Aperture macros list*
%AMRoundRect*
0 Rectangle with rounded corners*
0 $1 Rounding radius*
0 $2 $3 $4 $5 $6 $7 $8 $9 X,Y pos of 4 corners*
0 Add a 4 corners polygon primitive as box body*
4,1,4,$2,$3,$4,$5,$6,$7,$8,$9,$2,$3,0*
0 Add four circle primitives for the rounded corners*
1,1,$1+$1,$2,$3*
1,1,$1+$1,$4,$5*
1,1,$1+$1,$6,$7*
1,1,$1+$1,$8,$9*
0 Add four rect primitives between the rounded corners*
20,1,$1+$1,$2,$3,$4,$5,0*
20,1,$1+$1,$4,$5,$6,$7,0*
20,1,$1+$1,$6,$7,$8,$9,0*
20,1,$1+$1,$8,$9,$2,$3,0*%
%AMFreePoly0*
4,1,14,1.678536,1.678536,1.680000,1.675000,1.680000,-1.675000,1.678536,-1.678536,1.675000,-1.680000,-1.675000,-1.680000,-1.678536,-1.678536,-1.680000,-1.675000,-1.680000,1.425000,-1.678536,1.428536,-1.428536,1.678536,-1.425000,1.680000,1.675000,1.680000,1.678536,1.678536,1.678536,1.678536,$1*%
%AMFreePoly1*
4,1,91,0.008620,0.479961,0.016707,0.478950,0.023700,0.477951,0.031620,0.476961,0.032213,0.476851,0.040213,0.474851,0.040374,0.474808,0.047374,0.472808,0.047756,0.472682,0.055756,0.469682,0.055970,0.469596,0.069970,0.463596,0.070481,0.463341,0.084481,0.455341,0.085201,0.454841,0.090995,0.450012,0.096774,0.446160,0.097536,0.445536,0.103381,0.439691,0.109201,0.434841,
0.109841,0.434201,0.114691,0.428381,0.120536,0.422536,0.121160,0.421774,0.125012,0.415995,0.129841,0.410201,0.130341,0.409481,0.138341,0.395481,0.138596,0.394970,0.144596,0.380970,0.144682,0.380756,0.147682,0.372756,0.147808,0.372374,0.149808,0.365374,0.149851,0.365213,0.151851,0.357213,0.151961,0.356620,0.152950,0.348707,0.153950,0.341707,0.154961,0.333620,
0.155000,0.333000,0.155000,-0.475000,0.153536,-0.478536,0.150000,-0.480000,-0.150000,-0.480000,-0.153536,-0.478536,-0.155000,-0.475000,-0.155000,0.333000,-0.154961,0.333620,-0.153950,0.341707,-0.152950,0.348707,-0.151961,0.356620,-0.151851,0.357213,-0.149851,0.365213,-0.149808,0.365374,-0.147808,0.372374,-0.147682,0.372756,-0.144682,0.380756,-0.144596,0.380970,-0.138596,0.394970,
-0.138341,0.395481,-0.130341,0.409481,-0.129841,0.410201,-0.125012,0.415995,-0.121160,0.421774,-0.120536,0.422536,-0.114691,0.428381,-0.109841,0.434201,-0.109201,0.434841,-0.103381,0.439691,-0.097536,0.445536,-0.096774,0.446160,-0.090995,0.450012,-0.085201,0.454841,-0.084481,0.455341,-0.070481,0.463341,-0.069970,0.463596,-0.055970,0.469596,-0.055756,0.469682,-0.047756,0.472682,
-0.047374,0.472808,-0.040374,0.474808,-0.040213,0.474851,-0.032213,0.476851,-0.031620,0.476961,-0.023700,0.477951,-0.016707,0.478950,-0.008620,0.479961,-0.008000,0.480000,0.008000,0.480000,0.008620,0.479961,0.008620,0.479961,$1*%
%AMFreePoly2*
4,1,91,0.333620,0.154961,0.341707,0.153950,0.348700,0.152951,0.356620,0.151961,0.357213,0.151851,0.365213,0.149851,0.365374,0.149808,0.372374,0.147808,0.372756,0.147682,0.380756,0.144682,0.380970,0.144596,0.394970,0.138596,0.395481,0.138341,0.409481,0.130341,0.410201,0.129841,0.415995,0.125012,0.421774,0.121160,0.422536,0.120536,0.428381,0.114691,0.434201,0.109841,
0.434841,0.109201,0.439691,0.103381,0.445536,0.097536,0.446160,0.096774,0.450012,0.090995,0.454841,0.085201,0.455341,0.084481,0.463341,0.070481,0.463596,0.069970,0.469596,0.055970,0.469682,0.055756,0.472682,0.047756,0.472808,0.047374,0.474808,0.040374,0.474851,0.040213,0.476851,0.032213,0.476961,0.031620,0.477950,0.023707,0.478950,0.016707,0.479961,0.008620,
0.480000,0.008000,0.480000,-0.008000,0.479961,-0.008620,0.478950,-0.016707,0.477950,-0.023707,0.476961,-0.031620,0.476851,-0.032213,0.474851,-0.040213,0.474808,-0.040374,0.472808,-0.047374,0.472682,-0.047756,0.469682,-0.055756,0.469596,-0.055970,0.463596,-0.069970,0.463341,-0.070481,0.455341,-0.084481,0.454841,-0.085201,0.450012,-0.090995,0.446160,-0.096774,0.445536,-0.097536,
0.439691,-0.103381,0.434841,-0.109201,0.434201,-0.109841,0.428381,-0.114691,0.422536,-0.120536,0.421774,-0.121160,0.415995,-0.125012,0.410201,-0.129841,0.409481,-0.130341,0.395481,-0.138341,0.394970,-0.138596,0.380970,-0.144596,0.380756,-0.144682,0.372756,-0.147682,0.372374,-0.147808,0.365374,-0.149808,0.365213,-0.149851,0.357213,-0.151851,0.356620,-0.151961,0.348700,-0.152951,
0.341707,-0.153950,0.333620,-0.154961,0.333000,-0.155000,-0.475000,-0.155000,-0.478536,-0.153536,-0.480000,-0.150000,-0.480000,0.150000,-0.478536,0.153536,-0.475000,0.155000,0.333000,0.155000,0.333620,0.154961,0.333620,0.154961,$1*%
%AMFreePoly3*
4,1,91,0.153536,0.478536,0.155000,0.475000,0.155000,-0.333000,0.154961,-0.333620,0.153950,-0.341707,0.152950,-0.348707,0.151961,-0.356620,0.151851,-0.357213,0.149851,-0.365213,0.149808,-0.365374,0.147808,-0.372374,0.147682,-0.372756,0.144682,-0.380756,0.144596,-0.380970,0.138596,-0.394970,0.138341,-0.395481,0.130341,-0.409481,0.129841,-0.410201,0.125012,-0.415995,0.121160,-0.421774,
0.120536,-0.422536,0.114691,-0.428381,0.109841,-0.434201,0.109201,-0.434841,0.103381,-0.439691,0.097536,-0.445536,0.096774,-0.446160,0.090995,-0.450012,0.085201,-0.454841,0.084481,-0.455341,0.070481,-0.463341,0.069970,-0.463596,0.055970,-0.469596,0.055756,-0.469682,0.047756,-0.472682,0.047374,-0.472808,0.040374,-0.474808,0.040213,-0.474851,0.032213,-0.476851,0.031620,-0.476961,
0.023700,-0.477951,0.016707,-0.478950,0.008620,-0.479961,0.008000,-0.480000,-0.008000,-0.480000,-0.008620,-0.479961,-0.016707,-0.478950,-0.023700,-0.477951,-0.031620,-0.476961,-0.032213,-0.476851,-0.040213,-0.474851,-0.040374,-0.474808,-0.047374,-0.472808,-0.047756,-0.472682,-0.055756,-0.469682,-0.055970,-0.469596,-0.069970,-0.463596,-0.070481,-0.463341,-0.084481,-0.455341,-0.085201,-0.454841,
-0.090995,-0.450012,-0.096774,-0.446160,-0.097536,-0.445536,-0.103381,-0.439691,-0.109201,-0.434841,-0.109841,-0.434201,-0.114691,-0.428381,-0.120536,-0.422536,-0.121160,-0.421774,-0.125012,-0.415995,-0.129841,-0.410201,-0.130341,-0.409481,-0.138341,-0.395481,-0.138596,-0.394970,-0.144596,-0.380970,-0.144682,-0.380756,-0.147682,-0.372756,-0.147808,-0.372374,-0.149808,-0.365374,-0.149851,-0.365213,
-0.151851,-0.357213,-0.151961,-0.356620,-0.152950,-0.348707,-0.153950,-0.341707,-0.154961,-0.333620,-0.155000,-0.333000,-0.155000,0.475000,-0.153536,0.478536,-0.150000,0.480000,0.150000,0.480000,0.153536,0.478536,0.153536,0.478536,$1*%
%AMFreePoly4*
4,1,91,0.478536,0.153536,0.480000,0.150000,0.480000,-0.150000,0.478536,-0.153536,0.475000,-0.155000,-0.333000,-0.155000,-0.333620,-0.154961,-0.341707,-0.153950,-0.348700,-0.152951,-0.356620,-0.151961,-0.357213,-0.151851,-0.365213,-0.149851,-0.365374,-0.149808,-0.372374,-0.147808,-0.372756,-0.147682,-0.380756,-0.144682,-0.380970,-0.144596,-0.394970,-0.138596,-0.395481,-0.138341,-0.409481,-0.130341,
-0.410201,-0.129841,-0.415995,-0.125012,-0.421774,-0.121160,-0.422536,-0.120536,-0.428381,-0.114691,-0.434201,-0.109841,-0.434841,-0.109201,-0.439691,-0.103381,-0.445536,-0.097536,-0.446160,-0.096774,-0.450012,-0.090995,-0.454841,-0.085201,-0.455341,-0.084481,-0.463341,-0.070481,-0.463596,-0.069970,-0.469596,-0.055970,-0.469682,-0.055756,-0.472682,-0.047756,-0.472808,-0.047374,-0.474808,-0.040374,
-0.474851,-0.040213,-0.476851,-0.032213,-0.476961,-0.031620,-0.477950,-0.023707,-0.478950,-0.016707,-0.479961,-0.008620,-0.480000,-0.008000,-0.480000,0.008000,-0.479961,0.008620,-0.478950,0.016707,-0.477950,0.023707,-0.476961,0.031620,-0.476851,0.032213,-0.474851,0.040213,-0.474808,0.040374,-0.472808,0.047374,-0.472682,0.047756,-0.469682,0.055756,-0.469596,0.055970,-0.463596,0.069970,
-0.463341,0.070481,-0.455341,0.084481,-0.454841,0.085201,-0.450012,0.090995,-0.446160,0.096774,-0.445536,0.097536,-0.439691,0.103381,-0.434841,0.109201,-0.434201,0.109841,-0.428381,0.114691,-0.422536,0.120536,-0.421774,0.121160,-0.415995,0.125012,-0.410201,0.129841,-0.409481,0.130341,-0.395481,0.138341,-0.394970,0.138596,-0.380970,0.144596,-0.380756,0.144682,-0.372756,0.147682,
-0.372374,0.147808,-0.365374,0.149808,-0.365213,0.149851,-0.357213,0.151851,-0.356620,0.151961,-0.348700,0.152951,-0.341707,0.153950,-0.333620,0.154961,-0.333000,0.155000,0.475000,0.155000,0.478536,0.153536,0.478536,0.153536,$1*%
G04 Aperture macros list end*
%TA.AperFunction,SMDPad,CuDef*%
%ADD10RoundRect,0.225000X-0.225000X-0.375000X0.225000X-0.375000X0.225000X0.375000X-0.225000X0.375000X0*%
%TD*%
%TA.AperFunction,SMDPad,CuDef*%
%ADD11RoundRect,0.250000X0.250000X0.475000X-0.250000X0.475000X-0.250000X-0.475000X0.250000X-0.475000X0*%
%TD*%
%TA.AperFunction,SMDPad,CuDef*%
%ADD12RoundRect,0.250000X-0.250000X-0.475000X0.250000X-0.475000X0.250000X0.475000X-0.250000X0.475000X0*%
%TD*%
%TA.AperFunction,SMDPad,CuDef*%
%ADD13RoundRect,0.250000X0.475000X-0.250000X0.475000X0.250000X-0.475000X0.250000X-0.475000X-0.250000X0*%
%TD*%
%TA.AperFunction,SMDPad,CuDef*%
%ADD14RoundRect,0.250000X-0.475000X0.250000X-0.475000X-0.250000X0.475000X-0.250000X0.475000X0.250000X0*%
%TD*%
%TA.AperFunction,ComponentPad*%
%ADD15O,1.000000X1.800000*%
%TD*%
%TA.AperFunction,ComponentPad*%
%ADD16O,1.000000X2.100000*%
%TD*%
%TA.AperFunction,SMDPad,CuDef*%
%ADD17R,0.600000X1.150000*%
%TD*%
%TA.AperFunction,SMDPad,CuDef*%
%ADD18R,0.300000X1.150000*%
%TD*%
%TA.AperFunction,SMDPad,CuDef*%
%ADD19RoundRect,0.250000X0.450000X-0.262500X0.450000X0.262500X-0.450000X0.262500X-0.450000X-0.262500X0*%
%TD*%
%TA.AperFunction,SMDPad,CuDef*%
%ADD20RoundRect,0.250000X0.262500X0.450000X-0.262500X0.450000X-0.262500X-0.450000X0.262500X-0.450000X0*%
%TD*%
%TA.AperFunction,ComponentPad*%
%ADD21C,2.324100*%
%TD*%
%TA.AperFunction,SMDPad,CuDef*%
%ADD22R,1.100000X1.800000*%
%TD*%
%TA.AperFunction,SMDPad,CuDef*%
%ADD23R,1.500000X0.900000*%
%TD*%
%TA.AperFunction,SMDPad,CuDef*%
%ADD24R,0.700000X0.700000*%
%TD*%
%TA.AperFunction,ComponentPad*%
%ADD25C,0.350000*%
%TD*%
%TA.AperFunction,SMDPad,CuDef*%
%ADD26FreePoly0,90.000000*%
%TD*%
%TA.AperFunction,SMDPad,CuDef*%
%ADD27FreePoly1,90.000000*%
%TD*%
%TA.AperFunction,SMDPad,CuDef*%
%ADD28FreePoly2,90.000000*%
%TD*%
%TA.AperFunction,SMDPad,CuDef*%
%ADD29FreePoly3,90.000000*%
%TD*%
%TA.AperFunction,SMDPad,CuDef*%
%ADD30FreePoly4,90.000000*%
%TD*%
%TA.AperFunction,SMDPad,CuDef*%
%ADD31RoundRect,0.069750X-0.585250X-0.395250X0.585250X-0.395250X0.585250X0.395250X-0.585250X0.395250X0*%
%TD*%
%TA.AperFunction,SMDPad,CuDef*%
%ADD32RoundRect,0.098250X-0.556750X-1.521750X0.556750X-1.521750X0.556750X1.521750X-0.556750X1.521750X0*%
%TD*%
%TA.AperFunction,SMDPad,CuDef*%
%ADD33RoundRect,0.250000X-0.262500X-0.450000X0.262500X-0.450000X0.262500X0.450000X-0.262500X0.450000X0*%
%TD*%
%TA.AperFunction,SMDPad,CuDef*%
%ADD34RoundRect,0.250000X-0.450000X0.262500X-0.450000X-0.262500X0.450000X-0.262500X0.450000X0.262500X0*%
%TD*%
%TA.AperFunction,SMDPad,CuDef*%
%ADD35R,1.016000X1.143000*%
%TD*%
%TA.AperFunction,SMDPad,CuDef*%
%ADD36RoundRect,0.225000X0.375000X-0.225000X0.375000X0.225000X-0.375000X0.225000X-0.375000X-0.225000X0*%
%TD*%
%TA.AperFunction,ViaPad*%
%ADD37C,0.600000*%
%TD*%
%TA.AperFunction,Conductor*%
%ADD38C,0.200000*%
%TD*%
%TA.AperFunction,Conductor*%
%ADD39C,0.400000*%
%TD*%
%TA.AperFunction,Conductor*%
%ADD40C,0.150000*%
%TD*%
%TA.AperFunction,Conductor*%
%ADD41C,0.600000*%
%TD*%
G04 APERTURE END LIST*
D10*
%TO.P,D3,1,K*%
%TO.N,GND*%
X105335800Y-65735200D03*
%TO.P,D3,2,A*%
%TO.N,VBUS*%
X108635800Y-65735200D03*
%TD*%
D11*
%TO.P,C10,1*%
%TO.N,GPIO9*%
X127213400Y-64846200D03*
%TO.P,C10,2*%
%TO.N,GND*%
X125313400Y-64846200D03*
%TD*%
%TO.P,C9,1*%
%TO.N,CHIP_PU*%
X107299800Y-62306200D03*
%TO.P,C9,2*%
%TO.N,GND*%
X105399800Y-62306200D03*
%TD*%
%TO.P,C2,1*%
%TO.N,USB_DP*%
X112583000Y-60985400D03*
%TO.P,C2,2*%
%TO.N,GND*%
X110683000Y-60985400D03*
%TD*%
D12*
%TO.P,C1,2*%
%TO.N,GND*%
X117332800Y-61010800D03*
%TO.P,C1,1*%
%TO.N,USB_DN*%
X115432800Y-61010800D03*
%TD*%
%TO.P,C3,2*%
%TO.N,GND*%
X117308000Y-58869600D03*
%TO.P,C3,1*%
%TO.N,+3V3*%
X115408000Y-58869600D03*
%TD*%
D13*
%TO.P,C4,1*%
%TO.N,GND*%
X119218000Y-55943600D03*
%TO.P,C4,2*%
%TO.N,Net-(U2-VBUS)*%
X119218000Y-54043600D03*
%TD*%
D14*
%TO.P,C6,2*%
%TO.N,GND*%
X103295000Y-48458600D03*
%TO.P,C6,1*%
%TO.N,+3V3*%
X103295000Y-46558600D03*
%TD*%
D11*
%TO.P,C7,2*%
%TO.N,GND*%
X105070000Y-42633600D03*
%TO.P,C7,1*%
%TO.N,+3V3*%
X106970000Y-42633600D03*
%TD*%
D14*
%TO.P,C8,2*%
%TO.N,GND*%
X123596400Y-44391600D03*
%TO.P,C8,1*%
%TO.N,CHIP_PU*%
X123596400Y-42491600D03*
%TD*%
D13*
%TO.P,C11,2*%
%TO.N,GND*%
X107470000Y-46558600D03*
%TO.P,C11,1*%
%TO.N,+3V3*%
X107470000Y-48458600D03*
%TD*%
D11*
%TO.P,C12,2*%
%TO.N,GND*%
X103028000Y-50283600D03*
%TO.P,C12,1*%
%TO.N,+3V3*%
X104928000Y-50283600D03*
%TD*%
D14*
%TO.P,C13,2*%
%TO.N,GND*%
X105370000Y-48458600D03*
%TO.P,C13,1*%
%TO.N,+3V3*%
X105370000Y-46558600D03*
%TD*%
D11*
%TO.P,C14,2*%
%TO.N,GND*%
X105057500Y-44677350D03*
%TO.P,C14,1*%
%TO.N,+3V3*%
X106957500Y-44677350D03*
%TD*%
D15*
%TO.P,J1,SH3,SHELL_GND*%
%TO.N,GND*%
X109343900Y-73036500D03*
%TO.P,J1,SH4,SHELL_GND*%
X117983900Y-73036500D03*
D16*
%TO.P,J1,SH1,SHELL_GND*%
X109343900Y-68856500D03*
%TO.P,J1,SH2,SHELL_GND*%
X117983900Y-68856500D03*
D17*
%TO.P,J1,A1_B12,GND*%
X110463900Y-68281500D03*
%TO.P,J1,B1_A12,GND*%
X116863900Y-68281500D03*
%TO.P,J1,A4_B9,VBUS*%
%TO.N,VBUS*%
X111263900Y-68281500D03*
%TO.P,J1,B4_A9,VBUS*%
X116063900Y-68281500D03*
D18*
%TO.P,J1,A7,DN1*%
%TO.N,DN1*%
X113913900Y-68281500D03*
%TO.P,J1,A6,DP1*%
%TO.N,DP1*%
X113413900Y-68281500D03*
%TO.P,J1,B6,DP2*%
X114413900Y-68281500D03*
%TO.P,J1,A8,SBU1*%
%TO.N,unconnected-(J1-SBU1-PadA8)*%
X114913900Y-68281500D03*
%TO.P,J1,B5,CC2*%
%TO.N,Net-(J1-CC2)*%
X115413900Y-68281500D03*
%TO.P,J1,B7,DN2*%
%TO.N,DN1*%
X112913900Y-68281500D03*
%TO.P,J1,A5,CC1*%
%TO.N,Net-(J1-CC1)*%
X112413900Y-68281500D03*
%TO.P,J1,B8,SBU2*%
%TO.N,unconnected-(J1-SBU2-PadB8)*%
X111913900Y-68281500D03*
%TD*%
D19*
%TO.P,R1,2*%
%TO.N,GND*%
X117602000Y-63324100D03*
%TO.P,R1,1*%
%TO.N,Net-(J1-CC2)*%
X117602000Y-65149100D03*
%TD*%
%TO.P,R2,2*%
%TO.N,GND*%
X110464600Y-63298700D03*
%TO.P,R2,1*%
%TO.N,Net-(J1-CC1)*%
X110464600Y-65123700D03*
%TD*%
D20*
%TO.P,R10,1*%
%TO.N,GND*%
X121349700Y-51097200D03*
%TO.P,R10,2*%
%TO.N,Net-(U2-~{SUSPEND})*%
X119524700Y-51097200D03*
%TD*%
D19*
%TO.P,R12,2*%
%TO.N,Net-(U2-VBUS)*%
X119218000Y-57957100D03*
%TO.P,R12,1*%
%TO.N,GND*%
X119218000Y-59782100D03*
%TD*%
D21*
%TO.P,S1,1*%
%TO.N,Net-(D6-A)*%
X133646800Y-30043400D03*
%TO.P,S1,2*%
%TO.N,COL0*%
X139996800Y-27503400D03*
%TD*%
%TO.P,S2,1*%
%TO.N,Net-(D8-A)*%
X152603200Y-29972400D03*
%TO.P,S2,2*%
%TO.N,COL1*%
X158953200Y-27432400D03*
%TD*%
%TO.P,S3,1*%
%TO.N,Net-(D9-A)*%
X133553200Y-47067200D03*
%TO.P,S3,2*%
%TO.N,COL0*%
X139903200Y-44527200D03*
%TD*%
%TO.P,S4,1*%
%TO.N,Net-(D10-A)*%
X152603200Y-47118000D03*
%TO.P,S4,2*%
%TO.N,COL1*%
X158953200Y-44578000D03*
%TD*%
D22*
%TO.P,SW1,1,1*%
%TO.N,CHIP_PU*%
X107238800Y-68529200D03*
%TO.P,SW1,2,2*%
%TO.N,GND*%
X103538800Y-74729200D03*
%TO.P,SW1,3*%
%TO.N,N/C*%
X103538800Y-68529200D03*
%TO.P,SW1,4*%
X107238800Y-74729200D03*
%TD*%
%TO.P,SW2,1,1*%
%TO.N,GPIO9*%
X127935600Y-68197800D03*
%TO.P,SW2,2,2*%
%TO.N,GND*%
X124235600Y-74397800D03*
%TO.P,SW2,3*%
%TO.N,N/C*%
X124235600Y-68197800D03*
%TO.P,SW2,4*%
X127935600Y-74397800D03*
%TD*%
D23*
%TO.P,U1,1,3V3*%
%TO.N,+3V3*%
X105410000Y-27533600D03*
%TO.P,U1,2,EN*%
%TO.N,CHIP_PU*%
X105410000Y-29033600D03*
%TO.P,U1,3,IO4*%
%TO.N,unconnected-(U1-IO4-Pad3)*%
X105410000Y-30533600D03*
%TO.P,U1,4,IO5*%
%TO.N,unconnected-(U1-IO5-Pad4)*%
X105410000Y-32033600D03*
%TO.P,U1,5,IO6*%
%TO.N,unconnected-(U1-IO6-Pad5)*%
X105410000Y-33533600D03*
%TO.P,U1,6,IO7*%
%TO.N,unconnected-(U1-IO7-Pad6)*%
X105410000Y-35033600D03*
%TO.P,U1,7,IO8*%
%TO.N,GPIO8*%
X105410000Y-36533600D03*
%TO.P,U1,8,IO9*%
%TO.N,GPIO9*%
X105410000Y-38033600D03*
%TO.P,U1,9,GND*%
%TO.N,GND*%
X105410000Y-39533600D03*
%TO.P,U1,10,IO10*%
%TO.N,unconnected-(U1-IO10-Pad10)*%
X122910000Y-39533600D03*
%TO.P,U1,11,RXD/IO20*%
%TO.N,U0RXD*%
X122910000Y-38033600D03*
%TO.P,U1,12,TXD/IO21*%
%TO.N,U0TXD*%
X122910000Y-36533600D03*
%TO.P,U1,13,IO18*%
%TO.N,unconnected-(U1-IO18-Pad13)*%
X122910000Y-35033600D03*
%TO.P,U1,14,IO19*%
%TO.N,unconnected-(U1-IO19-Pad14)*%
X122910000Y-33533600D03*
%TO.P,U1,15,IO3*%
%TO.N,ROW1*%
X122910000Y-32033600D03*
%TO.P,U1,16,IO2*%
%TO.N,ROW0*%
X122910000Y-30533600D03*
%TO.P,U1,17,IO1*%
%TO.N,COL0*%
X122910000Y-29033600D03*
%TO.P,U1,18,IO0*%
%TO.N,COL1*%
X122910000Y-27533600D03*
D24*
%TO.P,U1,19_5,GND*%
%TO.N,GND*%
X115120000Y-33733600D03*
%TO.P,U1,19_6,GND*%
X116220000Y-33733600D03*
%TO.P,U1,19_4,GND*%
X114020000Y-33733600D03*
%TO.P,U1,19_1,GND*%
X114020000Y-32633600D03*
%TO.P,U1,19_2,GND*%
X115120000Y-32633600D03*
%TO.P,U1,19_3,GND*%
X116220000Y-32633600D03*
%TO.P,U1,19_9,GND*%
X116220000Y-34833600D03*
%TO.P,U1,19_8,GND*%
X115120000Y-34833600D03*
%TO.P,U1,19_7,GND*%
X114020000Y-34833600D03*
D25*
%TO.P,U1,20_2*%
%TO.N,N/C*%
X115670000Y-32633600D03*
%TO.P,U1,20_5*%
X116220000Y-33183600D03*
%TO.P,U1,20_10*%
X116220000Y-34283600D03*
%TO.P,U1,20_1*%
X114570000Y-32633600D03*
%TO.P,U1,20_7*%
%TO.N,GND*%
X115670000Y-33733600D03*
%TO.P,U1,20_4*%
%TO.N,N/C*%
X115120000Y-33183600D03*
%TO.P,U1,20_3*%
X114020000Y-33183600D03*
%TO.P,U1,20_6*%
%TO.N,GND*%
X114570000Y-33733600D03*
%TO.P,U1,20_12*%
%TO.N,N/C*%
X115670000Y-34833600D03*
%TO.P,U1,20_11*%
X114570000Y-34833600D03*
%TO.P,U1,20_9*%
%TO.N,GND*%
X115120000Y-34283600D03*
%TO.P,U1,20_8*%
%TO.N,N/C*%
X114020000Y-34283600D03*
%TD*%
D26*
%TO.P,U2,29,EXP*%
%TO.N,GND*%
X113770000Y-52241600D03*
D27*
%TO.P,U2,8,VBUS*%
%TO.N,Net-(U2-VBUS)*%
X116170000Y-53741600D03*
D28*
%TO.P,U2,1,DCD*%
%TO.N,unconnected-(U2-DCD-Pad1)*%
X112270000Y-54641600D03*
%TO.P,U2,2,RI/CLK*%
%TO.N,unconnected-(U2-RI{slash}CLK-Pad2)*%
X112770000Y-54641600D03*
%TO.P,U2,3,GND*%
%TO.N,GND*%
X113270000Y-54641600D03*
%TO.P,U2,4,D+*%
%TO.N,USB_DP*%
X113770000Y-54641600D03*
%TO.P,U2,5,D-*%
%TO.N,USB_DN*%
X114270000Y-54641600D03*
%TO.P,U2,6,VDD*%
%TO.N,+3V3*%
X114770000Y-54641600D03*
%TO.P,U2,7,VREGIN*%
X115270000Y-54641600D03*
D27*
%TO.P,U2,9,~{RST}*%
%TO.N,Net-(U2-~{RST})*%
X116170000Y-53241600D03*
%TO.P,U2,10,NC*%
%TO.N,unconnected-(U2-NC-Pad10)*%
X116170000Y-52741600D03*
%TO.P,U2,11,~{SUSPEND}*%
%TO.N,Net-(U2-~{SUSPEND})*%
X116170000Y-52241600D03*
%TO.P,U2,12,SUSPEND*%
%TO.N,unconnected-(U2-SUSPEND-Pad12)*%
X116170000Y-51741600D03*
%TO.P,U2,13,CHREN*%
%TO.N,unconnected-(U2-CHREN-Pad13)*%
X116170000Y-51241600D03*
%TO.P,U2,14,CHR1*%
%TO.N,unconnected-(U2-CHR1-Pad14)*%
X116170000Y-50741600D03*
D29*
%TO.P,U2,22,GPIO4*%
%TO.N,unconnected-(U2-GPIO4-Pad22)*%
X111370000Y-50741600D03*
D30*
%TO.P,U2,15,CHR0*%
%TO.N,unconnected-(U2-CHR0-Pad15)*%
X115270000Y-49841600D03*
%TO.P,U2,16,GPIO3_WAKEUP*%
%TO.N,unconnected-(U2-GPIO3_WAKEUP-Pad16)*%
X114770000Y-49841600D03*
%TO.P,U2,17,GPIO2_RS485*%
%TO.N,unconnected-(U2-GPIO2_RS485-Pad17)*%
X114270000Y-49841600D03*
%TO.P,U2,18,GPIO1_RXT*%
%TO.N,unconnected-(U2-GPIO1_RXT-Pad18)*%
X113770000Y-49841600D03*
%TO.P,U2,19,GPIO0_TXT*%
%TO.N,unconnected-(U2-GPIO0_TXT-Pad19)*%
X113270000Y-49841600D03*
%TO.P,U2,20,GPIO6*%
%TO.N,unconnected-(U2-GPIO6-Pad20)*%
X112770000Y-49841600D03*
%TO.P,U2,21,GPIO5*%
%TO.N,unconnected-(U2-GPIO5-Pad21)*%
X112270000Y-49841600D03*
D29*
%TO.P,U2,23,CTS*%
%TO.N,unconnected-(U2-CTS-Pad23)*%
X111370000Y-51241600D03*
%TO.P,U2,24,RTS*%
%TO.N,RTS*%
X111370000Y-51741600D03*
%TO.P,U2,25,RXD*%
%TO.N,Net-(U2-RXD)*%
X111370000Y-52241600D03*
%TO.P,U2,26,TXD*%
%TO.N,Net-(U2-TXD)*%
X111370000Y-52741600D03*
%TO.P,U2,27,DSR*%
%TO.N,unconnected-(U2-DSR-Pad27)*%
X111370000Y-53241600D03*
%TO.P,U2,28,DTR*%
%TO.N,DTR*%
X111370000Y-53741600D03*
%TD*%
D31*
%TO.P,U3,1,GND/ADJ*%
%TO.N,GND*%
X110175000Y-42843600D03*
%TO.P,U3,2,VOUT*%
%TO.N,+3V3*%
X110175000Y-45133600D03*
%TO.P,U3,3,VIN*%
X110175000Y-47423600D03*
D32*
%TO.P,U3,4*%
X116865000Y-45133600D03*
%TD*%
D20*
%TO.P,R16,1*%
%TO.N,GPIO8*%
X121182500Y-42608600D03*
%TO.P,R16,2*%
%TO.N,+3V3*%
X119357500Y-42608600D03*
%TD*%
D33*
%TO.P,R15,1*%
%TO.N,+3V3*%
X119425000Y-44645600D03*
%TO.P,R15,2*%
%TO.N,CHIP_PU*%
X121250000Y-44645600D03*
%TD*%
D20*
%TO.P,R14,1*%
%TO.N,U0RXD*%
X121400500Y-48963600D03*
%TO.P,R14,2*%
%TO.N,Net-(U2-TXD)*%
X119575500Y-48963600D03*
%TD*%
%TO.P,R13,1*%
%TO.N,U0TXD*%
X121400500Y-46931600D03*
%TO.P,R13,2*%
%TO.N,Net-(U2-RXD)*%
X119575500Y-46931600D03*
%TD*%
D34*
%TO.P,R11,1*%
%TO.N,Net-(U2-VBUS)*%
X121504000Y-54081100D03*
%TO.P,R11,2*%
%TO.N,VBUS*%
X121504000Y-55906100D03*
%TD*%
%TO.P,R9,1*%
%TO.N,Net-(U2-~{RST})*%
X123790000Y-54096300D03*
%TO.P,R9,2*%
%TO.N,+3V3*%
X123790000Y-55921300D03*
%TD*%
D19*
%TO.P,R8,1*%
%TO.N,DN1*%
X115468400Y-65149100D03*
%TO.P,R8,2*%
%TO.N,USB_DN*%
X115468400Y-63324100D03*
%TD*%
%TO.P,R7,1*%
%TO.N,DP1*%
X112572800Y-65125600D03*
%TO.P,R7,2*%
%TO.N,USB_DP*%
X112572800Y-63300600D03*
%TD*%
D35*
%TO.P,Q2,3*%
%TO.N,GPIO9*%
X103724000Y-54805600D03*
%TO.P,Q2,2*%
%TO.N,DTR*%
X102835000Y-52773600D03*
%TO.P,Q2,1*%
%TO.N,RTS*%
X104613000Y-52773600D03*
%TD*%
%TO.P,Q1,3*%
%TO.N,CHIP_PU*%
X107026000Y-54805600D03*
%TO.P,Q1,2*%
%TO.N,RTS*%
X106137000Y-52773600D03*
%TO.P,Q1,1*%
%TO.N,DTR*%
X107915000Y-52773600D03*
%TD*%
D36*
%TO.P,D10,1,K*%
%TO.N,ROW1*%
X147015200Y-53340000D03*
%TO.P,D10,2,A*%
%TO.N,Net-(D10-A)*%
X147015200Y-50040000D03*
%TD*%
%TO.P,D9,1,K*%
%TO.N,ROW1*%
X127660400Y-56692800D03*
%TO.P,D9,2,A*%
%TO.N,Net-(D9-A)*%
X127660400Y-53392800D03*
%TD*%
%TO.P,D8,1,K*%
%TO.N,ROW0*%
X146812000Y-35560000D03*
%TO.P,D8,2,A*%
%TO.N,Net-(D8-A)*%
X146812000Y-32260000D03*
%TD*%
%TO.P,D6,1,K*%
%TO.N,ROW0*%
X128219200Y-35509200D03*
%TO.P,D6,2,A*%
%TO.N,Net-(D6-A)*%
X128219200Y-32209200D03*
%TD*%
D11*
%TO.P,C5,1*%
%TO.N,GND*%
X117308000Y-56583600D03*
%TO.P,C5,2*%
%TO.N,+3V3*%
X115408000Y-56583600D03*
%TD*%
D37*
%TO.N,GND*%
X113770000Y-52241600D03*
X113665000Y-47117000D03*
%TO.N,+3V3*%
X106107500Y-49821100D03*
X106737800Y-40647000D03*
X107772200Y-28067000D03*
%TO.N,GPIO8*%
X122351800Y-42418000D03*
X107365800Y-36423600D03*
%TO.N,GPIO9*%
X104063800Y-38049200D03*
X103835200Y-62001400D03*
X127025400Y-62763400D03*
%TO.N,VBUS*%
X117505871Y-66782071D03*
X110667800Y-67005200D03*
%TO.N,DN1*%
X113913900Y-66703600D03*
X112655000Y-67106800D03*
%TO.N,+3V3*%
X122619700Y-57091600D03*
X115560400Y-57802800D03*
%TO.N,Net-(U2-TXD)*%
X109811667Y-52995088D03*
X110575147Y-49471600D03*
%TO.N,Net-(U2-RXD)*%
X109839000Y-52268600D03*
X109839000Y-48963600D03*
%TO.N,CHIP_PU*%
X109820000Y-41597600D03*
X108042000Y-53789600D03*
%TO.N,RTS*%
X108550000Y-51757600D03*
X107015954Y-52030600D03*
%TD*%
D38*
%TO.N,CHIP_PU*%
X107299800Y-62565200D02*
X107299800Y-62306200D01*
X107238800Y-62626200D02*
X107299800Y-62565200D01*
X107238800Y-68529200D02*
X107238800Y-62626200D01*
X106944200Y-61950600D02*
X106944200Y-54887400D01*
X106944200Y-54887400D02*
X107026000Y-54805600D01*
X107299800Y-62306200D02*
X106944200Y-61950600D01*
D39*
%TO.N,GND*%
X107270000Y-46558600D02*
X105370000Y-48458600D01*
X107470000Y-46558600D02*
X107270000Y-46558600D01*
X103028000Y-48725600D02*
X103295000Y-48458600D01*
X103028000Y-50283600D02*
X103028000Y-48725600D01*
X105370000Y-48458600D02*
X103295000Y-48458600D01*
X113106600Y-46558600D02*
X113665000Y-47117000D01*
X107470000Y-46558600D02*
X113106600Y-46558600D01*
D40*
%TO.N,CHIP_PU*%
X122774000Y-41669200D02*
X123596400Y-42491600D01*
X122774000Y-41597600D02*
X122774000Y-41669200D01*
%TO.N,GND*%
X116220000Y-33733600D02*
X115670000Y-33733600D01*
X115670000Y-33733600D02*
X115120000Y-33733600D01*
X114570000Y-33733600D02*
X115120000Y-33733600D01*
X114542200Y-33705800D02*
X114570000Y-33733600D01*
X114300000Y-33705800D02*
X114542200Y-33705800D01*
X114272200Y-33733600D02*
X114300000Y-33705800D01*
X114020000Y-33733600D02*
X114272200Y-33733600D01*
X115120000Y-34283600D02*
X115120000Y-33733600D01*
X115120000Y-34833600D02*
X115120000Y-34283600D01*
X113932190Y-33733600D02*
X114020000Y-33733600D01*
X113569000Y-34096790D02*
X113932190Y-33733600D01*
X113569000Y-34470410D02*
X113569000Y-34096790D01*
X113932190Y-34833600D02*
X113569000Y-34470410D01*
X114020000Y-34833600D02*
X113932190Y-34833600D01*
X114020000Y-34921410D02*
X114020000Y-34833600D01*
X114383190Y-35284600D02*
X114020000Y-34921410D01*
X115120000Y-34921410D02*
X114756810Y-35284600D01*
X115120000Y-34833600D02*
X115120000Y-34921410D01*
X114756810Y-35284600D02*
X114383190Y-35284600D01*
X115483190Y-35284600D02*
X115120000Y-34921410D01*
X115856810Y-35284600D02*
X115483190Y-35284600D01*
X116220000Y-34921410D02*
X115856810Y-35284600D01*
X116220000Y-34833600D02*
X116220000Y-34921410D01*
X116307810Y-34833600D02*
X116220000Y-34833600D01*
X116671000Y-34470410D02*
X116307810Y-34833600D01*
X116671000Y-34096790D02*
X116671000Y-34470410D01*
X116220000Y-33733600D02*
X116307810Y-33733600D01*
X116307810Y-33733600D02*
X116671000Y-34096790D01*
X116671000Y-33370410D02*
X116307810Y-33733600D01*
X116307810Y-32633600D02*
X116671000Y-32996790D01*
X116671000Y-32996790D02*
X116671000Y-33370410D01*
X116220000Y-32633600D02*
X116307810Y-32633600D01*
X116220000Y-32545790D02*
X116220000Y-32633600D01*
X115483190Y-32182600D02*
X115856810Y-32182600D01*
X115856810Y-32182600D02*
X116220000Y-32545790D01*
X115120000Y-32545790D02*
X115483190Y-32182600D01*
X115120000Y-32633600D02*
X115120000Y-32545790D01*
X114756810Y-32182600D02*
X115120000Y-32545790D01*
X114383190Y-32182600D02*
X114756810Y-32182600D01*
X114020000Y-32545790D02*
X114383190Y-32182600D01*
X114020000Y-32633600D02*
X114020000Y-32545790D01*
D39*
X109918900Y-68281500D02*
X109343900Y-68856500D01*
X110463900Y-68281500D02*
X109918900Y-68281500D01*
X117408900Y-68281500D02*
X117983900Y-68856500D01*
X116863900Y-68281500D02*
X117408900Y-68281500D01*
%TO.N,+3V3*%
X106107500Y-49821100D02*
X107470000Y-48458600D01*
X107518200Y-42085400D02*
X106970000Y-42633600D01*
X106737800Y-40647000D02*
X107518200Y-41427400D01*
X107518200Y-41427400D02*
X107518200Y-42085400D01*
X105410000Y-27533600D02*
X107238800Y-27533600D01*
X107238800Y-27533600D02*
X107772200Y-28067000D01*
D38*
%TO.N,GPIO8*%
X121373100Y-42418000D02*
X121182500Y-42608600D01*
X122351800Y-42418000D02*
X121373100Y-42418000D01*
X107255800Y-36533600D02*
X107365800Y-36423600D01*
X105410000Y-36533600D02*
X107255800Y-36533600D01*
%TO.N,GPIO9*%
X105394400Y-38049200D02*
X105410000Y-38033600D01*
X104063800Y-38049200D02*
X105394400Y-38049200D01*
X103835200Y-61919000D02*
X103724000Y-61807800D01*
X103835200Y-62001400D02*
X103835200Y-61919000D01*
X103724000Y-61807800D02*
X103724000Y-54805600D01*
X127025400Y-64658200D02*
X127025400Y-62763400D01*
X127213400Y-64846200D02*
X127025400Y-64658200D01*
X127213400Y-64988400D02*
X127177800Y-65024000D01*
X127213400Y-64846200D02*
X127213400Y-64988400D01*
X127935600Y-65568400D02*
X127213400Y-64846200D01*
X127935600Y-68197800D02*
X127935600Y-65568400D01*
%TO.N,USB_DN*%
X114518400Y-60096400D02*
X114270000Y-60096400D01*
X115432800Y-61010800D02*
X114518400Y-60096400D01*
D40*
X114270000Y-60096400D02*
X114270000Y-54641600D01*
%TO.N,USB_DP*%
X113770000Y-60071000D02*
X113770000Y-54641600D01*
D38*
X112583000Y-60985400D02*
X113497400Y-60071000D01*
X113497400Y-60071000D02*
X113770000Y-60071000D01*
D39*
%TO.N,GND*%
X113270000Y-58398400D02*
X110683000Y-60985400D01*
X113270000Y-54641600D02*
X113270000Y-58398400D01*
%TO.N,VBUS*%
X109905800Y-67005200D02*
X108635800Y-65735200D01*
X110667800Y-67005200D02*
X109905800Y-67005200D01*
D38*
%TO.N,GND*%
X113770000Y-52241600D02*
X113270000Y-52741600D01*
X113270000Y-52741600D02*
X113270000Y-54641600D01*
%TO.N,COL1*%
X125170600Y-25273000D02*
X122910000Y-27533600D01*
X153085400Y-25273000D02*
X125170600Y-25273000D01*
X155244800Y-27432400D02*
X153085400Y-25273000D01*
%TO.N,COL0*%
X123888000Y-28055600D02*
X123888000Y-28211600D01*
X135074000Y-26289000D02*
X125654600Y-26289000D01*
X139996800Y-27503400D02*
X136288400Y-27503400D01*
%TO.N,Net-(D9-A)*%
X130326400Y-53392800D02*
X133553200Y-50166000D01*
X127660400Y-53392800D02*
X130326400Y-53392800D01*
%TO.N,ROW0*%
X126847600Y-34137600D02*
X126847600Y-33985200D01*
%TO.N,ROW1*%
X127711200Y-56743600D02*
X127660400Y-56692800D01*
X147015200Y-53340000D02*
X143611600Y-56743600D01*
%TO.N,ROW0*%
X123396000Y-30533600D02*
X122910000Y-30533600D01*
%TO.N,Net-(D9-A)*%
X133553200Y-50166000D02*
X133553200Y-47067200D01*
%TO.N,COL0*%
X125654600Y-26289000D02*
X123888000Y-28055600D01*
X123888000Y-28211600D02*
X123732000Y-28211600D01*
%TO.N,ROW0*%
X126847600Y-33985200D02*
X123396000Y-30533600D01*
%TO.N,COL0*%
X136288400Y-27503400D02*
X135074000Y-26289000D01*
X123732000Y-28211600D02*
X122910000Y-29033600D01*
%TO.N,ROW0*%
X128219200Y-35509200D02*
X126847600Y-34137600D01*
%TO.N,ROW1*%
X143611600Y-56743600D02*
X127711200Y-56743600D01*
%TO.N,COL1*%
X158953200Y-27432400D02*
X155244800Y-27432400D01*
D39*
%TO.N,VBUS*%
X121504000Y-62783942D02*
X117505871Y-66782071D01*
X111263900Y-67601300D02*
X110667800Y-67005200D01*
X111263900Y-68281500D02*
X111263900Y-67601300D01*
%TO.N,+3V3*%
X122619700Y-57091600D02*
X123790000Y-55921300D01*
D40*
%TO.N,Net-(J1-CC2)*%
X115413900Y-67337200D02*
X115413900Y-68281500D01*
X117602000Y-65149100D02*
X115413900Y-67337200D01*
%TO.N,DP1*%
X114413900Y-70040900D02*
X114413900Y-68281500D01*
X114173000Y-70281800D02*
X114413900Y-70040900D01*
X113868200Y-69977000D02*
X114173000Y-70281800D01*
X113413900Y-69344900D02*
X113411000Y-69347800D01*
X113411000Y-69347800D02*
X113411000Y-69977000D01*
X113411000Y-69977000D02*
X113868200Y-69977000D01*
X113413900Y-68281500D02*
X113413900Y-69344900D01*
%TO.N,DN1*%
X112913900Y-67539070D02*
X112913900Y-68281500D01*
X112655000Y-67106800D02*
X112655000Y-67280170D01*
X112655000Y-67280170D02*
X112913900Y-67539070D01*
%TO.N,Net-(J1-CC1)*%
X112413900Y-67750420D02*
X112413900Y-68281500D01*
X110464600Y-65801120D02*
X112413900Y-67750420D01*
X110464600Y-65123700D02*
X110464600Y-65801120D01*
%TO.N,DP1*%
X112572800Y-65125600D02*
X113157000Y-65709800D01*
X113157000Y-65709800D02*
X113157000Y-65934278D01*
X113157000Y-65941760D02*
X113157000Y-65982910D01*
X113157000Y-65934278D02*
X113157000Y-65941760D01*
X113157000Y-67183235D02*
X113157000Y-66933096D01*
X113157000Y-66933096D02*
X113157000Y-65982910D01*
X113413900Y-67440135D02*
X113157000Y-67183235D01*
X113413900Y-68281500D02*
X113413900Y-67440135D01*
%TO.N,DN1*%
X112913900Y-68281500D02*
X112908900Y-68276500D01*
X113913900Y-66703600D02*
X115468400Y-65149100D01*
X113913900Y-68281500D02*
X113913900Y-66703600D01*
%TO.N,USB_DN*%
X114270000Y-61842500D02*
X114270000Y-60096400D01*
X115470300Y-63042800D02*
X114270000Y-61842500D01*
%TO.N,USB_DP*%
X113770000Y-61871000D02*
X113770000Y-60071000D01*
X112572800Y-63068200D02*
X113770000Y-61871000D01*
D38*
%TO.N,CHIP_PU*%
X116078000Y-39401600D02*
X105710000Y-29033600D01*
X116078000Y-41597600D02*
X116078000Y-39401600D01*
X116078000Y-41597600D02*
X122774000Y-41597600D01*
X105710000Y-29033600D02*
X105410000Y-29033600D01*
X121442400Y-44645600D02*
X123596400Y-42491600D01*
X121250000Y-44645600D02*
X121442400Y-44645600D01*
%TO.N,ROW1*%
X123067200Y-32033600D02*
X122910000Y-32033600D01*
X126492000Y-35458400D02*
X123067200Y-32033600D01*
X126492000Y-53471274D02*
X126492000Y-35458400D01*
X127660400Y-54639674D02*
X126492000Y-53471274D01*
X127660400Y-56692800D02*
X127660400Y-54639674D01*
%TO.N,COL0*%
X123210000Y-29033600D02*
X122910000Y-29033600D01*
%TO.N,ROW0*%
X128270000Y-35560000D02*
X128219200Y-35509200D01*
X146812000Y-35560000D02*
X128270000Y-35560000D01*
%TO.N,Net-(D10-A)*%
X149681200Y-50040000D02*
X152603200Y-47118000D01*
X147015200Y-50040000D02*
X149681200Y-50040000D01*
%TO.N,Net-(D8-A)*%
X150315600Y-32260000D02*
X152603200Y-29972400D01*
X146812000Y-32260000D02*
X150315600Y-32260000D01*
%TO.N,Net-(D6-A)*%
X131481000Y-32209200D02*
X133646800Y-30043400D01*
X128219200Y-32209200D02*
X131481000Y-32209200D01*
%TO.N,Net-(U2-~{SUSPEND})*%
X118380300Y-52241600D02*
X119524700Y-51097200D01*
X116170000Y-52241600D02*
X118380300Y-52241600D01*
D39*
%TO.N,+3V3*%
X115204800Y-57802800D02*
X114900000Y-58107600D01*
X115560400Y-57802800D02*
X115204800Y-57802800D01*
X114900000Y-58107600D02*
X114900000Y-57605600D01*
D38*
%TO.N,Net-(U2-~{RST})*%
X122935300Y-53241600D02*
X116170000Y-53241600D01*
X123790000Y-54096300D02*
X122935300Y-53241600D01*
D39*
%TO.N,Net-(U2-VBUS)*%
X116472000Y-54043600D02*
X116170000Y-53741600D01*
X119218000Y-54043600D02*
X116472000Y-54043600D01*
X121504000Y-54081100D02*
X119255500Y-54081100D01*
X119255500Y-54081100D02*
X119218000Y-54043600D01*
X120271000Y-55096600D02*
X119218000Y-54043600D01*
X120271000Y-56904100D02*
X120271000Y-55096600D01*
X119218000Y-57957100D02*
X120271000Y-56904100D01*
%TO.N,+3V3*%
X114770000Y-57475600D02*
X114770000Y-54641600D01*
X114900000Y-57605600D02*
X114770000Y-57475600D01*
X114900000Y-58361600D02*
X114900000Y-58107600D01*
X115408000Y-58869600D02*
X114900000Y-58361600D01*
X115408000Y-54779600D02*
X115270000Y-54641600D01*
X115408000Y-56583600D02*
X115408000Y-54779600D01*
D38*
%TO.N,Net-(U2-VBUS)*%
X121504000Y-53995600D02*
X121250000Y-53741600D01*
X121504000Y-54081100D02*
X121504000Y-53995600D01*
X119012000Y-54043600D02*
X118710000Y-53741600D01*
X119218000Y-54043600D02*
X119012000Y-54043600D01*
D39*
%TO.N,+3V3*%
X117353000Y-44645600D02*
X116865000Y-45133600D01*
X119425000Y-44645600D02*
X117353000Y-44645600D01*
X119357500Y-44578100D02*
X119425000Y-44645600D01*
X119357500Y-42608600D02*
X119357500Y-44578100D01*
X105645000Y-50283600D02*
X106107500Y-49821100D01*
X104928000Y-50283600D02*
X105645000Y-50283600D01*
D38*
%TO.N,Net-(U2-RXD)*%
X119472000Y-46931600D02*
X119575500Y-46931600D01*
X117768000Y-48635600D02*
X119472000Y-46931600D01*
X110635282Y-48709600D02*
X110709282Y-48635600D01*
X110709282Y-48635600D02*
X117768000Y-48635600D01*
X110091586Y-48709600D02*
X110635282Y-48709600D01*
X110047147Y-48755453D02*
X110047147Y-48754039D01*
X109839000Y-48963600D02*
X110047147Y-48755453D01*
X110047147Y-48754039D02*
X110091586Y-48709600D01*
%TO.N,Net-(U2-TXD)*%
X110845144Y-48963600D02*
X119575500Y-48963600D01*
X110575147Y-49233597D02*
X110845144Y-48963600D01*
X110575147Y-49471600D02*
X110575147Y-49233597D01*
X111263000Y-52848600D02*
X111370000Y-52741600D01*
X109958155Y-52848600D02*
X111263000Y-52848600D01*
X109811667Y-52995088D02*
X109958155Y-52848600D01*
%TO.N,Net-(U2-RXD)*%
X111343000Y-52268600D02*
X111370000Y-52241600D01*
X109839000Y-52268600D02*
X111343000Y-52268600D01*
%TO.N,CHIP_PU*%
X109820000Y-41597600D02*
X116078000Y-41597600D01*
X107026000Y-54805600D02*
X108042000Y-53789600D01*
%TO.N,RTS*%
X104783500Y-51831600D02*
X106816954Y-51831600D01*
X104613000Y-52002100D02*
X104783500Y-51831600D01*
X106816954Y-51831600D02*
X107015954Y-52030600D01*
X104613000Y-52773600D02*
X104613000Y-52002100D01*
X108566000Y-51741600D02*
X111370000Y-51741600D01*
X108550000Y-51757600D02*
X108566000Y-51741600D01*
X106272954Y-52773600D02*
X107015954Y-52030600D01*
X106137000Y-52773600D02*
X106272954Y-52773600D01*
%TO.N,DTR*%
X108883000Y-53741600D02*
X107915000Y-52773600D01*
X107534000Y-51503600D02*
X107915000Y-51884600D01*
X103216000Y-51503600D02*
X107534000Y-51503600D01*
X107915000Y-51884600D02*
X107915000Y-52773600D01*
X102835000Y-51884600D02*
X103216000Y-51503600D01*
X102835000Y-52773600D02*
X102835000Y-51884600D01*
X108883000Y-53741600D02*
X111370000Y-53741600D01*
D41*
%TO.N,+3V3*%
X116865000Y-45133600D02*
X110175000Y-45133600D01*
X105370000Y-46264850D02*
X106957500Y-44677350D01*
X105370000Y-46558600D02*
X105370000Y-46264850D01*
X103295000Y-46558600D02*
X105370000Y-46558600D01*
X108505000Y-47423600D02*
X107470000Y-48458600D01*
X110175000Y-47423600D02*
X108505000Y-47423600D01*
X107745000Y-43889850D02*
X108226250Y-43889850D01*
X106957500Y-44677350D02*
X107745000Y-43889850D01*
X109470000Y-45133600D02*
X108226250Y-43889850D01*
X108226250Y-43889850D02*
X106970000Y-42633600D01*
X110175000Y-45133600D02*
X109470000Y-45133600D01*
D39*
%TO.N,VBUS*%
X116304400Y-67310000D02*
X116063900Y-67550500D01*
X121504000Y-55906100D02*
X121504000Y-62783942D01*
X117505871Y-66782071D02*
X116977942Y-67310000D01*
X116977942Y-67310000D02*
X116304400Y-67310000D01*
X116063900Y-67550500D02*
X116063900Y-68281500D01*
%TD*%
M02*
